SplineFontDB: 2.0
FontName: THFahkwang
FullName: THFahkwang
FamilyName: TH Fah kwang
Weight: Book
Copyright: Copyright (c) 2006 by Department of Intellectual Property (DIP), Ministry of Commerce and Software Industry Promotion Agency (Public Organization) (SIPA). All rights reserved.
Version: 1.1
ItalicAngle: 0
UnderlinePosition: -35
UnderlineWidth: 30
Ascent: 800
Descent: 200
Order2: 1
XUID: [1021 375 425136265 4039945]
FSType: 0
OS2Version: 3
OS2_WeightWidthSlopeOnly: 0
OS2_UseTypoMetrics: 1
CreationTime: 1158666960
ModificationTime: 1196263170
PfmFamily: 17
TTFWeight: 400
TTFWidth: 5
LineGap: 60
VLineGap: 0
Panose: 2 0 5 6 0 0 0 2 0 4
OS2TypoAscent: 0
OS2TypoAOffset: 1
OS2TypoDescent: 0
OS2TypoDOffset: 1
OS2TypoLinegap: 0
OS2WinAscent: 5
OS2WinAOffset: 1
OS2WinDescent: -196
OS2WinDOffset: 1
HheadAscent: 5
HheadAOffset: 1
HheadDescent: 196
HheadDOffset: 1
OS2SubXSize: 700
OS2SubYSize: 650
OS2SubXOff: 0
OS2SubYOff: 140
OS2SupXSize: 700
OS2SupYSize: 650
OS2SupXOff: 0
OS2SupYOff: 477
OS2StrikeYSize: 30
OS2StrikeYPos: 250
OS2FamilyClass: 773
OS2Vendor: 'ipth'
Lookup: 4 0 0 "'frac' Diagonal Fractions in Latin lookup 0"  {"'frac' Diagonal Fractions in Latin lookup 0 subtable"  } ['frac' ('latn' <'dflt' > ) ]
Lookup: 6 0 0 "'liga' Standard Ligatures in Latin lookup 1"  {"'liga' Standard Ligatures in Latin lookup 1 subtable"  } ['liga' ('latn' <'dflt' > ) ]
Lookup: 6 0 0 "'liga' Standard Ligatures in Latin lookup 2"  {"'liga' Standard Ligatures in Latin lookup 2 subtable"  } ['liga' ('latn' <'dflt' > ) ]
Lookup: 6 0 0 "'liga' Standard Ligatures in Latin lookup 3"  {"'liga' Standard Ligatures in Latin lookup 3 subtable"  } ['liga' ('latn' <'dflt' > ) ]
Lookup: 6 0 0 "'liga' Standard Ligatures in Latin lookup 4"  {"'liga' Standard Ligatures in Latin lookup 4 subtable"  } ['liga' ('latn' <'dflt' > ) ]
Lookup: 6 0 0 "'liga' Standard Ligatures in Latin lookup 5"  {"'liga' Standard Ligatures in Latin lookup 5 subtable"  } ['liga' ('latn' <'dflt' > ) ]

StartChar: .notdef
Encoding: 65536 -1 0
Width: 547
VWidth: 1533
Flags: W
HStem: 0 44<71 475> 739 44<69 475>
VStem: 0 44<84 698> 503 44<81 701>
Fore
0 0 m 1,0,-1
 0 783 l 1,1,-1
 547 783 l 1,2,-1
 547 0 l 1,3,-1
 0 0 l 1,0,-1
475 739 m 1,4,-1
 69 739 l 1,5,-1
 273 431 l 1,6,-1
 475 739 l 1,4,-1
245 389 m 1,7,-1
 44 698 l 1,8,-1
 44 84 l 1,9,-1
 245 389 l 1,7,-1
71 44 m 1,10,-1
 475 44 l 1,11,-1
 273 350 l 1,12,-1
 71 44 l 1,10,-1
299 389 m 1,13,-1
 503 81 l 1,14,-1
 503 701 l 1,15,-1
 299 389 l 1,13,-1
EndSplineSet
EndChar
StartChar: numbersign
Encoding: 35 35 4
Width: 732
VWidth: 1533
Flags: W
HStem: 0 21G<199 249.793 402 451.793> 222 42<104 230 284 432 486 598> 423 42<135 258 311 461 514 627>
Fore
507 423 m 1,0,-1
 486 264 l 1,1,-1
 598 264 l 1,2,-1
 598 222 l 1,3,-1
 480 222 l 1,4,-1
 449 0 l 1,5,-1
 402 0 l 1,6,-1
 432 222 l 1,7,-1
 278 222 l 1,8,-1
 247 0 l 1,9,-1
 199 0 l 1,10,-1
 230 222 l 1,11,-1
 104 222 l 1,12,-1
 104 264 l 1,13,-1
 236 264 l 1,14,-1
 258 423 l 1,15,-1
 135 423 l 1,16,-1
 135 465 l 1,17,-1
 264 465 l 1,18,-1
 294 687 l 1,19,-1
 342 687 l 1,20,-1
 311 465 l 1,21,-1
 468 465 l 1,22,-1
 498 687 l 1,23,-1
 544 687 l 1,24,-1
 514 465 l 1,25,-1
 627 465 l 1,26,-1
 627 423 l 1,27,-1
 507 423 l 1,0,-1
305 423 m 1,28,-1
 284 264 l 1,29,-1
 438 264 l 1,30,-1
 461 423 l 1,31,-1
 305 423 l 1,28,-1
EndSplineSet
EndChar
StartChar: dollar
Encoding: 36 36 5
Width: 732
VWidth: 1533
Flags: W
HStem: 21 30<318.1 364.497> 647 25<326.875 365 397 469.892>
VStem: 109 81<471.468 577.709> 365 32<-83 21 672 771> 578 80<131.516 254.834>
Fore
658 218 m 0,0,1
 658 164 658 164 634 128 c 128,-1,2
 610 92 610 92 572 69 c 128,-1,3
 534 46 534 46 488 35.5 c 128,-1,4
 442 25 442 25 397 21 c 1,5,-1
 397 -83 l 1,6,-1
 365 -83 l 1,7,-1
 365 21 l 1,8,9
 322 21 322 21 273 32 c 128,-1,10
 224 43 224 43 182 66 c 128,-1,11
 140 89 140 89 109 125 c 128,-1,12
 78 161 78 161 74 210 c 1,13,-1
 163 210 l 1,14,15
 164 173 164 173 181.5 143 c 128,-1,16
 199 113 199 113 227 92.5 c 128,-1,17
 255 72 255 72 288.5 61.5 c 128,-1,18
 322 51 322 51 357 51 c 0,19,20
 391 51 391 51 430 57.5 c 128,-1,21
 469 64 469 64 502 80.5 c 128,-1,22
 535 97 535 97 556.5 124.5 c 128,-1,23
 578 152 578 152 578 195 c 0,24,25
 578 241 578 241 543.5 266 c 128,-1,26
 509 291 509 291 457 308 c 128,-1,27
 405 325 405 325 343.5 338 c 128,-1,28
 282 351 282 351 230 369.5 c 128,-1,29
 178 388 178 388 143.5 418.5 c 128,-1,30
 109 449 109 449 109 501 c 0,31,32
 109 549 109 549 134 582 c 128,-1,33
 159 615 159 615 197.5 635 c 128,-1,34
 236 655 236 655 281.5 663.5 c 128,-1,35
 327 672 327 672 365 672 c 1,36,-1
 365 771 l 1,37,-1
 397 771 l 1,38,-1
 397 672 l 1,39,40
 435 670 435 670 473.5 661 c 128,-1,41
 512 652 512 652 545 633.5 c 128,-1,42
 578 615 578 615 605 587.5 c 128,-1,43
 632 560 632 560 645 521 c 1,44,-1
 566 521 l 1,45,46
 540 583 540 583 488.5 615 c 128,-1,47
 437 647 437 647 373 647 c 0,48,49
 343 647 343 647 311 641 c 128,-1,50
 279 635 279 635 252 620.5 c 128,-1,51
 225 606 225 606 207.5 581.5 c 128,-1,52
 190 557 190 557 190 521 c 0,53,54
 190 483 190 483 224.5 461.5 c 128,-1,55
 259 440 259 440 311 424.5 c 128,-1,56
 363 409 363 409 423.5 395.5 c 128,-1,57
 484 382 484 382 536.5 360.5 c 128,-1,58
 589 339 589 339 623.5 306 c 128,-1,59
 658 273 658 273 658 218 c 0,0,1
EndSplineSet
EndChar
StartChar: percent
Encoding: 37 37 6
Width: 754
VWidth: 1533
Flags: W
HStem: -2 19<519.894 614.487> 301 16<145.257 237.792> 370 16<521.631 614.745> 672 16<145.374 237.745>
VStem: 32 62<454.976 533.558> 290 60<455.886 533.475> 408 60<153.319 232.995> 667 58<154.204 231.475>
Fore
725 193 m 256,0,1
 725 159 725 159 714.5 124.5 c 128,-1,2
 704 90 704 90 684 62 c 128,-1,3
 664 34 664 34 634 16 c 128,-1,4
 604 -2 604 -2 567 -2 c 256,5,6
 530 -2 530 -2 500.5 16 c 128,-1,7
 471 34 471 34 450 62 c 128,-1,8
 429 90 429 90 418.5 124.5 c 128,-1,9
 408 159 408 159 408 193 c 256,10,11
 408 227 408 227 418.5 261.5 c 128,-1,12
 429 296 429 296 450 323.5 c 128,-1,13
 471 351 471 351 500.5 368.5 c 128,-1,14
 530 386 530 386 567 386 c 256,15,16
 604 386 604 386 634 368.5 c 128,-1,17
 664 351 664 351 684 323.5 c 128,-1,18
 704 296 704 296 714.5 261.5 c 128,-1,19
 725 227 725 227 725 193 c 256,0,1
186 -17 m 1,20,-1
 146 -17 l 1,21,-1
 570 705 l 1,22,-1
 610 705 l 1,23,-1
 186 -17 l 1,20,-1
350 495 m 256,24,25
 350 461 350 461 339 426.5 c 128,-1,26
 328 392 328 392 308 364 c 128,-1,27
 288 336 288 336 258 318.5 c 128,-1,28
 228 301 228 301 192 301 c 256,29,30
 155 301 155 301 125 318.5 c 128,-1,31
 95 336 95 336 74.5 364 c 128,-1,32
 54 392 54 392 43 426.5 c 128,-1,33
 32 461 32 461 32 495 c 0,34,35
 32 527 32 527 43 561.5 c 128,-1,36
 54 596 54 596 74 624.5 c 128,-1,37
 94 653 94 653 123.5 670.5 c 128,-1,38
 153 688 153 688 190 688 c 256,39,40
 227 688 227 688 257 670.5 c 128,-1,41
 287 653 287 653 307.5 625.5 c 128,-1,42
 328 598 328 598 339 563.5 c 128,-1,43
 350 529 350 529 350 495 c 256,24,25
667 193 m 0,44,45
 667 213 667 213 661.5 243.5 c 128,-1,46
 656 274 656 274 644.5 302 c 128,-1,47
 633 330 633 330 614.5 350 c 128,-1,48
 596 370 596 370 569 370 c 256,49,50
 541 370 541 370 522 350 c 128,-1,51
 503 330 503 330 490.5 302 c 128,-1,52
 478 274 478 274 473 244.5 c 128,-1,53
 468 215 468 215 468 193 c 256,54,55
 468 172 468 172 473 142 c 128,-1,56
 478 112 478 112 489.5 84.5 c 128,-1,57
 501 57 501 57 520.5 37 c 128,-1,58
 540 17 540 17 567 17 c 256,59,60
 595 17 595 17 614 37 c 128,-1,61
 633 57 633 57 644.5 84.5 c 128,-1,62
 656 112 656 112 661.5 142 c 128,-1,63
 667 172 667 172 667 193 c 0,44,45
290 495 m 0,64,65
 290 515 290 515 284.5 545.5 c 128,-1,66
 279 576 279 576 267.5 604 c 128,-1,67
 256 632 256 632 237.5 652 c 128,-1,68
 219 672 219 672 192 672 c 256,69,70
 164 672 164 672 145.5 652 c 128,-1,71
 127 632 127 632 115.5 604 c 128,-1,72
 104 576 104 576 99 545.5 c 128,-1,73
 94 515 94 515 94 495 c 0,74,75
 94 474 94 474 99 443 c 128,-1,76
 104 412 104 412 115.5 384.5 c 128,-1,77
 127 357 127 357 145.5 337 c 128,-1,78
 164 317 164 317 192 317 c 256,79,80
 219 317 219 317 237.5 337 c 128,-1,81
 256 357 256 357 267.5 384.5 c 128,-1,82
 279 412 279 412 284.5 443 c 128,-1,83
 290 474 290 474 290 495 c 0,64,65
EndSplineSet
EndChar
StartChar: ampersand
Encoding: 38 38 7
Width: 794
VWidth: 1533
Flags: W
HStem: -21 21<272.322 446.069> 668 19<267.52 393.995>
VStem: 64 88<116.436 235.899> 170 60<480.362 596.768> 437 67<493.077 620.889> 610 89<238.285 323.198>
Fore
644 0 m 1,0,1
 619 12 619 12 597.5 27.5 c 128,-1,2
 576 43 576 43 555 60 c 1,3,4
 506 20 506 20 446 -0.5 c 128,-1,5
 386 -21 386 -21 322 -21 c 0,6,7
 281 -21 281 -21 235 -12 c 128,-1,8
 189 -3 189 -3 151 17.5 c 128,-1,9
 113 38 113 38 88.5 73.5 c 128,-1,10
 64 109 64 109 64 159 c 0,11,12
 64 201 64 201 79.5 231 c 128,-1,13
 95 261 95 261 120.5 284 c 128,-1,14
 146 307 146 307 178 324.5 c 128,-1,15
 210 342 210 342 242 359 c 1,16,17
 215 389 215 389 192.5 427 c 128,-1,18
 170 465 170 465 170 507 c 0,19,20
 170 586 170 586 221.5 636.5 c 128,-1,21
 273 687 273 687 351 687 c 0,22,23
 379 687 379 687 405.5 679.5 c 128,-1,24
 432 672 432 672 454.5 656.5 c 128,-1,25
 477 641 477 641 490.5 618 c 128,-1,26
 504 595 504 595 504 564 c 0,27,28
 504 526 504 526 488 497 c 128,-1,29
 472 468 472 468 447.5 446.5 c 128,-1,30
 423 425 423 425 391.5 408 c 128,-1,31
 360 391 360 391 331 377 c 1,32,33
 388 313 388 313 448.5 254 c 128,-1,34
 509 195 509 195 578 143 c 1,35,36
 595 173 595 173 602.5 207.5 c 128,-1,37
 610 242 610 242 610 278 c 0,38,39
 610 316 610 316 601 351 c 1,40,-1
 699 351 l 1,41,42
 696 287 696 287 673 227 c 128,-1,43
 650 167 650 167 610 117 c 1,44,45
 652 84 652 84 696.5 55 c 128,-1,46
 741 26 741 26 787 0 c 1,47,-1
 644 0 l 1,0,1
437 555 m 0,48,49
 437 604 437 604 405.5 636 c 128,-1,50
 374 668 374 668 325 668 c 0,51,52
 285 668 285 668 257.5 637 c 128,-1,53
 230 606 230 606 230 566 c 0,54,55
 230 512 230 512 256 473.5 c 128,-1,56
 282 435 282 435 316 396 c 1,57,58
 366 420 366 420 401.5 456 c 128,-1,59
 437 492 437 492 437 555 c 0,48,49
532 80 m 1,60,61
 458 138 458 138 391 204 c 128,-1,62
 324 270 324 270 259 339 c 1,63,64
 215 314 215 314 183.5 279.5 c 128,-1,65
 152 245 152 245 152 192 c 0,66,67
 152 155 152 155 169 120.5 c 128,-1,68
 186 86 186 86 214 59 c 128,-1,69
 242 32 242 32 277.5 16 c 128,-1,70
 313 0 313 0 350 0 c 0,71,72
 402 0 402 0 449.5 20 c 128,-1,73
 497 40 497 40 532 80 c 1,60,61
EndSplineSet
EndChar
StartChar: quotesingle
Encoding: 39 39 8
Width: 239
VWidth: 1533
Flags: W
HStem: 386 351<112 127>
VStem: 81 77<607.866 709.371>
Fore
158 688 m 0,0,1
 158 615 158 615 146.5 537.5 c 128,-1,2
 135 460 135 460 127 386 c 1,3,-1
 112 386 l 1,4,5
 104 460 104 460 92.5 538 c 128,-1,6
 81 616 81 616 81 690 c 0,7,8
 81 708 81 708 89.5 722.5 c 128,-1,9
 98 737 98 737 120 737 c 256,10,11
 141 737 141 737 149.5 721 c 128,-1,12
 158 705 158 705 158 688 c 0,0,1
EndSplineSet
EndChar
StartChar: parenleft
Encoding: 40 40 9
Width: 306
VWidth: 1533
Flags: W
HStem: 719 20G<181.5 241>
VStem: 52 72<110.673 403.961>
Fore
222 -224 m 1,0,1
 141 -112 141 -112 96.5 2.5 c 128,-1,2
 52 117 52 117 52 258 c 0,3,4
 52 396 52 396 96.5 512.5 c 128,-1,5
 141 629 141 629 222 739 c 1,6,-1
 241 739 l 1,7,8
 204 675 204 675 181 619 c 128,-1,9
 158 563 158 563 145.5 507.5 c 128,-1,10
 133 452 133 452 128.5 391.5 c 128,-1,11
 124 331 124 331 124 258 c 256,12,13
 124 184 124 184 128.5 123.5 c 128,-1,14
 133 63 133 63 145.5 7.5 c 128,-1,15
 158 -48 158 -48 181 -103.5 c 128,-1,16
 204 -159 204 -159 241 -224 c 1,17,-1
 222 -224 l 1,0,1
EndSplineSet
EndChar
StartChar: parenright
Encoding: 41 41 10
Width: 306
VWidth: 1533
Flags: W
HStem: 719 20G<52 109>
VStem: 169 72<110.673 402.98>
Fore
241 258 m 0,0,1
 241 117 241 117 195.5 2.5 c 128,-1,2
 150 -112 150 -112 69 -224 c 1,3,-1
 52 -224 l 1,4,5
 89 -159 89 -159 111 -103.5 c 128,-1,6
 133 -48 133 -48 146 7.5 c 128,-1,7
 159 63 159 63 164 123.5 c 128,-1,8
 169 184 169 184 169 258 c 256,9,10
 169 331 169 331 164 391.5 c 128,-1,11
 159 452 159 452 146 507.5 c 128,-1,12
 133 563 133 563 111 619 c 128,-1,13
 89 675 89 675 52 739 c 1,14,-1
 69 739 l 1,15,16
 149 629 149 629 195 512.5 c 128,-1,17
 241 396 241 396 241 258 c 0,0,1
EndSplineSet
EndChar
StartChar: asterisk
Encoding: 42 42 11
Width: 512
VWidth: 1533
Flags: W
HStem: 333 383<212 339 212 212>
VStem: 63 386<538 538 538 538>
Fore
273 512 m 1,0,-1
 406 383 l 1,1,-1
 339 333 l 1,2,-1
 256 500 l 1,3,-1
 173 333 l 1,4,-1
 106 383 l 1,5,-1
 239 512 l 1,6,-1
 63 538 l 1,7,-1
 89 616 l 1,8,-1
 244 535 l 1,9,-1
 212 716 l 1,10,-1
 296 716 l 1,11,-1
 265 534 l 1,12,-1
 425 616 l 1,13,-1
 449 538 l 1,14,-1
 273 512 l 1,0,-1
EndSplineSet
EndChar
StartChar: plus
Encoding: 43 43 12
Width: 677
VWidth: 1533
Flags: W
HStem: 0 21G<311 366> 262 57<54 311 366 624>
VStem: 311 55<0 262 319 581>
Fore
366 262 m 1,0,-1
 366 0 l 1,1,-1
 311 0 l 1,2,-1
 311 262 l 1,3,-1
 54 262 l 1,4,-1
 54 319 l 1,5,-1
 311 319 l 1,6,-1
 311 581 l 1,7,-1
 366 581 l 1,8,-1
 366 319 l 1,9,-1
 624 319 l 1,10,-1
 624 262 l 1,11,-1
 366 262 l 1,0,-1
EndSplineSet
EndChar
StartChar: comma
Encoding: 44 44 13
Width: 367
VWidth: 1533
Flags: W
HStem: -135 230<155 181 181 181> -8 103<144.47 190.843>
VStem: 129 109<6.95496 46.288> 202 36<-68.0009 -3>
Fore
238 18 m 0,0,1
 238 -26 238 -26 215.5 -69.5 c 128,-1,2
 193 -113 193 -113 155 -135 c 1,3,-1
 149 -129 l 1,4,5
 170 -109 170 -109 187.5 -78.5 c 128,-1,6
 205 -48 205 -48 202 -17 c 2,7,-1
 202 -3 l 1,8,9
 196 -5 196 -5 191 -6.5 c 128,-1,10
 186 -8 186 -8 179 -8 c 0,11,12
 158 -8 158 -8 143.5 6.5 c 128,-1,13
 129 21 129 21 129 43 c 256,14,15
 129 64 129 64 144 79.5 c 128,-1,16
 159 95 159 95 181 95 c 0,17,18
 215 95 215 95 226.5 69.5 c 128,-1,19
 238 44 238 44 238 18 c 0,0,1
EndSplineSet
EndChar
StartChar: hyphen
Encoding: 45 45 14
Width: 410
VWidth: 1533
Flags: W
HStem: 273 60<23 388>
VStem: 23 365<273 333 273 333 273 273>
Fore
388 273 m 1,0,-1
 23 273 l 1,1,-1
 23 333 l 1,2,-1
 388 333 l 1,3,-1
 388 273 l 1,0,-1
EndSplineSet
EndChar
StartChar: period
Encoding: 46 46 15
Width: 367
VWidth: 1533
Flags: W
HStem: -14 108<147.986 220.983>
VStem: 132 106<3.53223 78.014>
Fore
238 41 m 256,0,1
 238 20 238 20 222.5 3 c 128,-1,2
 207 -14 207 -14 184 -14 c 0,3,4
 163 -14 163 -14 147.5 3 c 128,-1,5
 132 20 132 20 132 41 c 256,6,7
 132 63 132 63 147.5 78.5 c 128,-1,8
 163 94 163 94 184 94 c 256,9,10
 205 94 205 94 221.5 78.5 c 128,-1,11
 238 63 238 63 238 41 c 256,0,1
EndSplineSet
EndChar
StartChar: slash
Encoding: 47 47 16
Width: 317
VWidth: 1533
Flags: W
HStem: -23 21G<-12 47.6316> 717 20G<271.342 330>
VStem: -12 342<-23 737 -23 -23>
Fore
40 -23 m 1,0,-1
 -12 -23 l 1,1,-1
 279 737 l 1,2,-1
 330 737 l 1,3,-1
 40 -23 l 1,0,-1
EndSplineSet
EndChar
StartChar: zero
Encoding: 48 48 17
Width: 677
VWidth: 1533
Flags: W
HStem: -11 37<242.035 435.324> 672 36<242.035 435.324>
VStem: 32 85<250.54 446.875> 561 84<250.54 446.875>
Fore
645 350 m 0,0,1
 645 282 645 282 624.5 217.5 c 128,-1,2
 604 153 604 153 565 102.5 c 128,-1,3
 526 52 526 52 469 20.5 c 128,-1,4
 412 -11 412 -11 339 -11 c 256,5,6
 265 -11 265 -11 208.5 20.5 c 128,-1,7
 152 52 152 52 113 102.5 c 128,-1,8
 74 153 74 153 53 217.5 c 128,-1,9
 32 282 32 282 32 350 c 0,10,11
 32 415 32 415 53 479.5 c 128,-1,12
 74 544 74 544 113 594.5 c 128,-1,13
 152 645 152 645 208.5 676.5 c 128,-1,14
 265 708 265 708 339 708 c 256,15,16
 412 708 412 708 469 676.5 c 128,-1,17
 526 645 526 645 565 594.5 c 128,-1,18
 604 544 604 544 624.5 479.5 c 128,-1,19
 645 415 645 415 645 350 c 0,0,1
561 350 m 0,20,21
 561 403 561 403 552 460.5 c 128,-1,22
 543 518 543 518 517.5 565 c 128,-1,23
 492 612 492 612 449 642 c 128,-1,24
 406 672 406 672 339 672 c 256,25,26
 271 672 271 672 228.5 642 c 128,-1,27
 186 612 186 612 160.5 565 c 128,-1,28
 135 518 135 518 126 460.5 c 128,-1,29
 117 403 117 403 117 350 c 0,30,31
 117 294 117 294 126 237.5 c 128,-1,32
 135 181 135 181 160.5 133.5 c 128,-1,33
 186 86 186 86 228.5 56 c 128,-1,34
 271 26 271 26 339 26 c 256,35,36
 406 26 406 26 449 56 c 128,-1,37
 492 86 492 86 517.5 133.5 c 128,-1,38
 543 181 543 181 552 237.5 c 128,-1,39
 561 294 561 294 561 350 c 0,20,21
EndSplineSet
EndChar
StartChar: one
Encoding: 49 49 18
Width: 677
VWidth: 1533
Flags: W
HStem: 0 21G<308 389> 560 33<136 206.514> 687 20G<338.5 389>
VStem: 308 81<0 560>
Fore
308 0 m 1,0,-1
 308 560 l 1,1,-1
 136 560 l 1,2,-1
 136 593 l 1,3,4
 176 593 176 593 207.5 596 c 128,-1,5
 239 599 239 599 264.5 610.5 c 128,-1,6
 290 622 290 622 310 644.5 c 128,-1,7
 330 667 330 667 347 707 c 1,8,-1
 389 707 l 1,9,-1
 389 0 l 1,10,-1
 308 0 l 1,0,-1
EndSplineSet
EndChar
StartChar: two
Encoding: 50 50 19
Width: 677
VWidth: 1533
Flags: W
HStem: 0 74<136 622> 670 32<249.458 386.495>
VStem: 28 81<483 556.501> 526 81<403.723 568.976>
Fore
44 0 m 1,0,1
 54 67 54 67 93.5 113 c 128,-1,2
 133 159 133 159 187 193 c 128,-1,3
 241 227 241 227 300.5 255.5 c 128,-1,4
 360 284 360 284 410 315.5 c 128,-1,5
 460 347 460 347 493 387.5 c 128,-1,6
 526 428 526 428 526 488 c 0,7,8
 526 532 526 532 509 565.5 c 128,-1,9
 492 599 492 599 463.5 622 c 128,-1,10
 435 645 435 645 398.5 657.5 c 128,-1,11
 362 670 362 670 320 670 c 256,12,13
 279 670 279 670 240.5 657 c 128,-1,14
 202 644 202 644 173 620 c 128,-1,15
 144 596 144 596 126.5 561 c 128,-1,16
 109 526 109 526 109 483 c 1,17,-1
 28 483 l 1,18,19
 35 538 35 538 62.5 579.5 c 128,-1,20
 90 621 90 621 130 648 c 128,-1,21
 170 675 170 675 219 688.5 c 128,-1,22
 268 702 268 702 320 702 c 0,23,24
 371 702 371 702 421.5 690.5 c 128,-1,25
 472 679 472 679 513.5 653 c 128,-1,26
 555 627 555 627 581 585.5 c 128,-1,27
 607 544 607 544 607 486 c 0,28,29
 607 422 607 422 574 377.5 c 128,-1,30
 541 333 541 333 490.5 301.5 c 128,-1,31
 440 270 440 270 380 246 c 128,-1,32
 320 222 320 222 268 198.5 c 128,-1,33
 216 175 216 175 179.5 146 c 128,-1,34
 143 117 143 117 136 74 c 1,35,-1
 622 74 l 1,36,-1
 622 0 l 1,37,-1
 44 0 l 1,0,1
EndSplineSet
EndChar
StartChar: three
Encoding: 51 51 20
Width: 677
VWidth: 1533
Flags: W
HStem: -11 34<280.911 379.328> 353 32<300.687 365.59> 670 32<261.279 385.464>
VStem: 78 81<513.95 595.287> 523 81<466.604 598.219> 561 81<122.759 273.559>
Fore
642 201 m 0,0,1
 642 141 642 141 611.5 100.5 c 128,-1,2
 581 60 581 60 534.5 35.5 c 128,-1,3
 488 11 488 11 432.5 0 c 128,-1,4
 377 -11 377 -11 328 -11 c 0,5,6
 276 -11 276 -11 227 2 c 128,-1,7
 178 15 178 15 138 42 c 128,-1,8
 98 69 98 69 70.5 109.5 c 128,-1,9
 43 150 43 150 35 205 c 1,10,-1
 117 205 l 1,11,12
 117 161 117 161 134.5 127.5 c 128,-1,13
 152 94 152 94 182 71 c 128,-1,14
 212 48 212 48 249.5 35.5 c 128,-1,15
 287 23 287 23 328 23 c 0,16,17
 368 23 368 23 409.5 33.5 c 128,-1,18
 451 44 451 44 484.5 66.5 c 128,-1,19
 518 89 518 89 539.5 122.5 c 128,-1,20
 561 156 561 156 561 202 c 0,21,22
 561 245 561 245 540.5 274.5 c 128,-1,23
 520 304 520 304 488.5 321.5 c 128,-1,24
 457 339 457 339 418.5 346 c 128,-1,25
 380 353 380 353 343 353 c 0,26,27
 322 353 322 353 300 350.5 c 128,-1,28
 278 348 278 348 256 345 c 1,29,-1
 256 389 l 1,30,31
 288 385 288 385 319 385 c 0,32,33
 353 385 353 385 389 392.5 c 128,-1,34
 425 400 425 400 454.5 417.5 c 128,-1,35
 484 435 484 435 503.5 463 c 128,-1,36
 523 491 523 491 523 530 c 128,-1,37
 523 569 523 569 506 595.5 c 128,-1,38
 489 622 489 622 461.5 639 c 128,-1,39
 434 656 434 656 400 663 c 128,-1,40
 366 670 366 670 333 670 c 0,41,42
 256 670 256 670 210 628.5 c 128,-1,43
 164 587 164 587 159 509 c 1,44,-1
 78 509 l 1,45,46
 81 558 81 558 105 595 c 128,-1,47
 129 632 129 632 165 655.5 c 128,-1,48
 201 679 201 679 244.5 690.5 c 128,-1,49
 288 702 288 702 333 702 c 0,50,51
 374 702 374 702 421.5 694.5 c 128,-1,52
 469 687 469 687 509.5 668 c 128,-1,53
 550 649 550 649 577 616 c 128,-1,54
 604 583 604 583 604 530 c 0,55,56
 604 495 604 495 589.5 468.5 c 128,-1,57
 575 442 575 442 551 422.5 c 128,-1,58
 527 403 527 403 496.5 391 c 128,-1,59
 466 379 466 379 435 373 c 1,60,61
 474 370 474 370 510.5 358.5 c 128,-1,62
 547 347 547 347 576.5 326 c 128,-1,63
 606 305 606 305 624 274.5 c 128,-1,64
 642 244 642 244 642 201 c 0,0,1
EndSplineSet
EndChar
StartChar: four
Encoding: 52 52 21
Width: 677
VWidth: 1533
Flags: W
HStem: 0 21G<389 469> 170 51<80 389 469 607> 687 20G<442.252 469>
VStem: 389 80<0 170 221 572>
Fore
607 170 m 1,0,-1
 469 170 l 1,1,-1
 469 0 l 1,2,-1
 389 0 l 1,3,-1
 389 170 l 1,4,-1
 20 170 l 1,5,-1
 3 192 l 1,6,-1
 460 707 l 1,7,-1
 469 707 l 1,8,-1
 469 221 l 1,9,-1
 627 221 l 1,10,-1
 607 170 l 1,0,-1
389 572 m 1,11,-1
 80 221 l 1,12,-1
 389 221 l 1,13,-1
 389 572 l 1,11,-1
EndSplineSet
EndChar
StartChar: five
Encoding: 53 53 22
Width: 677
VWidth: 1533
Flags: W
HStem: -11 32<288.227 401.994> 399 38<273.489 380.875> 621 74<161 578>
VStem: 558 86<128.931 294.224>
Fore
644 205 m 0,0,1
 644 147 644 147 614 105.5 c 128,-1,2
 584 64 584 64 539 38 c 128,-1,3
 494 12 494 12 439.5 0.5 c 128,-1,4
 385 -11 385 -11 336 -11 c 0,5,6
 285 -11 285 -11 235.5 2 c 128,-1,7
 186 15 186 15 145 42 c 128,-1,8
 104 69 104 69 76.5 109.5 c 128,-1,9
 49 150 49 150 41 205 c 1,10,-1
 123 205 l 1,11,12
 123 161 123 161 140.5 126.5 c 128,-1,13
 158 92 158 92 188 69 c 128,-1,14
 218 46 218 46 255.5 33.5 c 128,-1,15
 293 21 293 21 334 21 c 0,16,17
 374 21 374 21 414 34.5 c 128,-1,18
 454 48 454 48 486 71.5 c 128,-1,19
 518 95 518 95 538 129.5 c 128,-1,20
 558 164 558 164 558 209 c 0,21,22
 558 258 558 258 537.5 294 c 128,-1,23
 517 330 517 330 484 353 c 128,-1,24
 451 376 451 376 408 387.5 c 128,-1,25
 365 399 365 399 322 399 c 0,26,27
 268 399 268 399 218.5 386.5 c 128,-1,28
 169 374 169 374 124 343 c 1,29,-1
 94 351 l 1,30,-1
 129 695 l 1,31,-1
 601 695 l 1,32,-1
 578 621 l 1,33,-1
 161 621 l 1,34,-1
 136 388 l 1,35,36
 176 415 176 415 232 426 c 128,-1,37
 288 437 288 437 336 437 c 0,38,39
 391 437 391 437 446 424.5 c 128,-1,40
 501 412 501 412 545 385.5 c 128,-1,41
 589 359 589 359 616.5 314.5 c 128,-1,42
 644 270 644 270 644 205 c 0,0,1
EndSplineSet
EndChar
StartChar: six
Encoding: 54 54 23
Width: 677
VWidth: 1533
Flags: W
HStem: -11 39<262.288 436.987> 440 43<262.646 433.876> 664 38<261.31 403.214>
VStem: 34 86.5<337.312 365 312 472.124> 34 107<198.926 391.1> 544 82<530 588.701> 553 88<146.601 321.18>
Fore
641 245 m 0,0,1
 641 182 641 182 616.5 134.5 c 128,-1,2
 592 87 592 87 551.5 55 c 128,-1,3
 511 23 511 23 457 6 c 128,-1,4
 403 -11 403 -11 347 -11 c 0,5,6
 274 -11 274 -11 216.5 16.5 c 128,-1,7
 159 44 159 44 118.5 90 c 128,-1,8
 78 136 78 136 56 197.5 c 128,-1,9
 34 259 34 259 34 327 c 0,10,11
 34 402 34 402 54 470 c 128,-1,12
 74 538 74 538 114.5 590 c 128,-1,13
 155 642 155 642 216.5 672 c 128,-1,14
 278 702 278 702 359 702 c 0,15,16
 397 702 397 702 444 693 c 128,-1,17
 491 684 491 684 530.5 664 c 128,-1,18
 570 644 570 644 598 611 c 128,-1,19
 626 578 626 578 626 530 c 1,20,-1
 544 530 l 1,21,22
 544 564 544 564 525.5 589.5 c 128,-1,23
 507 615 507 615 479.5 632 c 128,-1,24
 452 649 452 649 419 656.5 c 128,-1,25
 386 664 386 664 357 664 c 0,26,27
 299 664 299 664 254.5 638.5 c 128,-1,28
 210 613 210 613 180 571.5 c 128,-1,29
 150 530 150 530 135 478 c 128,-1,30
 120 426 120 426 120 374 c 0,31,32
 120 365 120 365 120.5 356 c 128,-1,33
 121 347 121 347 123 337 c 1,34,35
 152 411 152 411 220 447 c 128,-1,36
 288 483 288 483 363 483 c 0,37,38
 417 483 417 483 467.5 467.5 c 128,-1,39
 518 452 518 452 556.5 422 c 128,-1,40
 595 392 595 392 618 348 c 128,-1,41
 641 304 641 304 641 245 c 0,0,1
553 235 m 0,42,43
 553 278 553 278 537 315.5 c 128,-1,44
 521 353 521 353 493.5 380.5 c 128,-1,45
 466 408 466 408 428.5 424 c 128,-1,46
 391 440 391 440 348 440 c 256,47,48
 305 440 305 440 267.5 424 c 128,-1,49
 230 408 230 408 201.5 380.5 c 128,-1,50
 173 353 173 353 157 315.5 c 128,-1,51
 141 278 141 278 141 235 c 256,52,53
 141 192 141 192 157 154.5 c 128,-1,54
 173 117 173 117 201.5 88.5 c 128,-1,55
 230 60 230 60 267.5 44 c 128,-1,56
 305 28 305 28 348 28 c 0,57,58
 392 28 392 28 430 43 c 128,-1,59
 468 58 468 58 495.5 85.5 c 128,-1,60
 523 113 523 113 538 151.5 c 128,-1,61
 553 190 553 190 553 235 c 0,42,43
EndSplineSet
EndChar
StartChar: seven
Encoding: 55 55 24
Width: 677
VWidth: 1533
Flags: W
HStem: 0 21G<195 284> 621 74<71 557>
VStem: 195 89<0 142.162>
Fore
644 695 m 1,0,1
 644 652 644 652 617 610.5 c 128,-1,2
 590 569 590 569 550.5 523 c 128,-1,3
 511 477 511 477 464 425.5 c 128,-1,4
 417 374 417 374 376.5 311 c 128,-1,5
 336 248 336 248 310 171.5 c 128,-1,6
 284 95 284 95 284 0 c 1,7,-1
 195 0 l 1,8,9
 195 86 195 86 221.5 156.5 c 128,-1,10
 248 227 248 227 288 286 c 128,-1,11
 328 345 328 345 375.5 392.5 c 128,-1,12
 423 440 423 440 463 480 c 128,-1,13
 503 520 503 520 530 554.5 c 128,-1,14
 557 589 557 589 557 621 c 1,15,-1
 48 621 l 1,16,-1
 71 695 l 1,17,-1
 644 695 l 1,0,1
EndSplineSet
EndChar
StartChar: eight
Encoding: 56 56 25
Width: 677
VWidth: 1533
Flags: W
HStem: -11 39<285.026 385.903> 676 34<296.013 370.687 367.563 373.81 373.81 405 425.5 454.571>
VStem: 25 90<129.593 262.819> 74 76<503.466 613.8> 527 80<500.252 612.856> 572 81<124.728 245.402>
Fore
653 205 m 0,0,1
 653 146 653 146 621.5 104.5 c 128,-1,2
 590 63 590 63 543.5 37.5 c 128,-1,3
 497 12 497 12 441 0.5 c 128,-1,4
 385 -11 385 -11 336 -11 c 0,5,6
 288 -11 288 -11 233.5 -1.5 c 128,-1,7
 179 8 179 8 132.5 31 c 128,-1,8
 86 54 86 54 55.5 93 c 128,-1,9
 25 132 25 132 25 192 c 0,10,11
 25 232 25 232 42.5 264 c 128,-1,12
 60 296 60 296 89 319 c 128,-1,13
 118 342 118 342 154 356.5 c 128,-1,14
 190 371 190 371 225 377 c 1,15,16
 198 386 198 386 170.5 400.5 c 128,-1,17
 143 415 143 415 121.5 435 c 128,-1,18
 100 455 100 455 87 481 c 128,-1,19
 74 507 74 507 74 541 c 0,20,21
 74 589 74 589 102 622 c 128,-1,22
 130 655 130 655 171.5 674 c 128,-1,23
 213 693 213 693 260.5 701.5 c 128,-1,24
 308 710 308 710 347 710 c 0,25,26
 380 710 380 710 425.5 703 c 128,-1,27
 471 696 471 696 510.5 678.5 c 128,-1,28
 550 661 550 661 578.5 632 c 128,-1,29
 607 603 607 603 607 558 c 0,30,31
 607 524 607 524 588 497.5 c 128,-1,32
 569 471 569 471 540 450 c 128,-1,33
 511 429 511 429 477 417 c 128,-1,34
 443 405 443 405 415 400 c 1,35,36
 452 391 452 391 493.5 376.5 c 128,-1,37
 535 362 535 362 571 339.5 c 128,-1,38
 607 317 607 317 630 284 c 128,-1,39
 653 251 653 251 653 205 c 0,0,1
527 553 m 0,40,41
 527 587 527 587 509 611 c 128,-1,42
 491 635 491 635 464 649.5 c 128,-1,43
 437 664 437 664 405 670 c 128,-1,44
 373 676 373 676 345 676 c 0,45,46
 319 676 319 676 285 670.5 c 128,-1,47
 251 665 251 665 221.5 651.5 c 128,-1,48
 192 638 192 638 171 615.5 c 128,-1,49
 150 593 150 593 150 560 c 0,50,51
 150 524 150 524 174.5 500.5 c 128,-1,52
 199 477 199 477 234.5 461.5 c 128,-1,53
 270 446 270 446 307.5 437 c 128,-1,54
 345 428 345 428 371 422 c 1,55,56
 394 428 394 428 421.5 438.5 c 128,-1,57
 449 449 449 449 473 464.5 c 128,-1,58
 497 480 497 480 512 501.5 c 128,-1,59
 527 523 527 523 527 553 c 0,40,41
572 199 m 0,60,61
 572 228 572 228 537.5 257.5 c 128,-1,62
 503 287 503 287 456 308.5 c 128,-1,63
 409 330 409 330 361.5 343.5 c 128,-1,64
 314 357 314 357 290 357 c 0,65,66
 261 357 261 357 230 345 c 128,-1,67
 199 333 199 333 174 312 c 128,-1,68
 149 291 149 291 132 263.5 c 128,-1,69
 115 236 115 236 115 205 c 0,70,71
 115 163 115 163 135 130 c 128,-1,72
 155 97 155 97 187 74 c 128,-1,73
 219 51 219 51 258 39.5 c 128,-1,74
 297 28 297 28 336 28 c 0,75,76
 373 28 373 28 414 38 c 128,-1,77
 455 48 455 48 490.5 69 c 128,-1,78
 526 90 526 90 549 122.5 c 128,-1,79
 572 155 572 155 572 199 c 0,60,61
EndSplineSet
EndChar
StartChar: nine
Encoding: 57 57 26
Width: 677
VWidth: 1533
Flags: W
HStem: -11 39<274.964 417.398> 209 42<244.759 414.989> 664 38<241.001 416.237>
VStem: 37 87<371.887 544.914> 52 81<102.784 163> 537 107<300.642 493.732> 558 86<218.619 380.879 327.758 353.719>
Fore
644 365 m 0,0,1
 644 288 644 288 624 220.5 c 128,-1,2
 604 153 604 153 563.5 101 c 128,-1,3
 523 49 523 49 461.5 19 c 128,-1,4
 400 -11 400 -11 319 -11 c 0,5,6
 281 -11 281 -11 234 -1.5 c 128,-1,7
 187 8 187 8 147 28.5 c 128,-1,8
 107 49 107 49 79.5 82 c 128,-1,9
 52 115 52 115 52 163 c 1,10,-1
 133 163 l 1,11,12
 133 127 133 127 151.5 102 c 128,-1,13
 170 77 170 77 197.5 60 c 128,-1,14
 225 43 225 43 258 35.5 c 128,-1,15
 291 28 291 28 320 28 c 0,16,17
 379 28 379 28 423.5 53 c 128,-1,18
 468 78 468 78 497.5 119.5 c 128,-1,19
 527 161 527 161 542.5 213 c 128,-1,20
 558 265 558 265 558 319 c 0,21,22
 558 328 558 328 557.5 336.5 c 128,-1,23
 557 345 557 345 555 354 c 1,24,25
 526 281 526 281 457.5 245 c 128,-1,26
 389 209 389 209 314 209 c 0,27,28
 261 209 261 209 210 224 c 128,-1,29
 159 239 159 239 121 269 c 128,-1,30
 83 299 83 299 60 343.5 c 128,-1,31
 37 388 37 388 37 446 c 0,32,33
 37 509 37 509 61.5 556.5 c 128,-1,34
 86 604 86 604 126.5 636 c 128,-1,35
 167 668 167 668 220 685 c 128,-1,36
 273 702 273 702 331 702 c 0,37,38
 403 702 403 702 460.5 675.5 c 128,-1,39
 518 649 518 649 558.5 603 c 128,-1,40
 599 557 599 557 621.5 495.5 c 128,-1,41
 644 434 644 434 644 365 c 0,0,1
537 458 m 0,42,43
 537 500 537 500 520.5 537.5 c 128,-1,44
 504 575 504 575 476 603.5 c 128,-1,45
 448 632 448 632 410.5 648 c 128,-1,46
 373 664 373 664 330 664 c 0,47,48
 285 664 285 664 247.5 648.5 c 128,-1,49
 210 633 210 633 182.5 605.5 c 128,-1,50
 155 578 155 578 139.5 540.5 c 128,-1,51
 124 503 124 503 124 458 c 0,52,53
 124 415 124 415 140 377.5 c 128,-1,54
 156 340 156 340 184 312 c 128,-1,55
 212 284 212 284 249.5 267.5 c 128,-1,56
 287 251 287 251 330 251 c 256,57,58
 373 251 373 251 410.5 267.5 c 128,-1,59
 448 284 448 284 476 312 c 128,-1,60
 504 340 504 340 520.5 377.5 c 128,-1,61
 537 415 537 415 537 458 c 0,42,43
EndSplineSet
EndChar
StartChar: colon
Encoding: 58 58 27
Width: 367
VWidth: 1533
Flags: W
HStem: -14 108<147.986 220.983> 405 107<147.986 220.983>
VStem: 132 106<3.53223 78.014 421.501 495.499>
Fore
238 458 m 256,0,1
 238 437 238 437 221.5 421 c 128,-1,2
 205 405 205 405 184 405 c 256,3,4
 163 405 163 405 147.5 421 c 128,-1,5
 132 437 132 437 132 458 c 256,6,7
 132 480 132 480 147.5 496 c 128,-1,8
 163 512 163 512 184 512 c 256,9,10
 205 512 205 512 221.5 496 c 128,-1,11
 238 480 238 480 238 458 c 256,0,1
238 41 m 256,12,13
 238 20 238 20 222.5 3 c 128,-1,14
 207 -14 207 -14 184 -14 c 0,15,16
 163 -14 163 -14 147.5 3 c 128,-1,17
 132 20 132 20 132 41 c 256,18,19
 132 63 132 63 147.5 78.5 c 128,-1,20
 163 94 163 94 184 94 c 256,21,22
 205 94 205 94 221.5 78.5 c 128,-1,23
 238 63 238 63 238 41 c 256,12,13
EndSplineSet
EndChar
StartChar: semicolon
Encoding: 59 59 28
Width: 367
VWidth: 1533
Flags: W
HStem: -8 103<144.47 190.843> 405 107<147.986 220.983>
VStem: 129 109<6.95496 46.288 421.501 495.499> 202 36<-68.0009 -3>
Fore
238 458 m 256,0,1
 238 437 238 437 221.5 421 c 128,-1,2
 205 405 205 405 184 405 c 256,3,4
 163 405 163 405 147.5 421 c 128,-1,5
 132 437 132 437 132 458 c 256,6,7
 132 480 132 480 147.5 496 c 128,-1,8
 163 512 163 512 184 512 c 256,9,10
 205 512 205 512 221.5 496 c 128,-1,11
 238 480 238 480 238 458 c 256,0,1
238 18 m 0,12,13
 238 -26 238 -26 215.5 -69.5 c 128,-1,14
 193 -113 193 -113 155 -135 c 1,15,-1
 149 -129 l 1,16,17
 170 -109 170 -109 187.5 -78.5 c 128,-1,18
 205 -48 205 -48 202 -17 c 2,19,-1
 202 -3 l 1,20,21
 196 -5 196 -5 191 -6.5 c 128,-1,22
 186 -8 186 -8 179 -8 c 0,23,24
 158 -8 158 -8 143.5 6.5 c 128,-1,25
 129 21 129 21 129 43 c 256,26,27
 129 64 129 64 144 79.5 c 128,-1,28
 159 95 159 95 181 95 c 0,29,30
 215 95 215 95 226.5 69.5 c 128,-1,31
 238 44 238 44 238 18 c 0,12,13
EndSplineSet
EndChar
StartChar: less
Encoding: 60 60 29
Width: 677
VWidth: 1533
Flags: W
Fore
60 262 m 1,0,-1
 60 320 l 1,1,-1
 618 581 l 1,2,-1
 618 520 l 1,3,-1
 124 291 l 1,4,-1
 618 63 l 1,5,-1
 618 2 l 1,6,-1
 60 262 l 1,0,-1
EndSplineSet
EndChar
StartChar: equal
Encoding: 61 61 30
Width: 677
VWidth: 1533
Flags: W
HStem: 153 57<54 624> 380 57<54 624>
Fore
54 380 m 1,0,-1
 54 437 l 1,1,-1
 624 437 l 1,2,-1
 624 380 l 1,3,-1
 54 380 l 1,0,-1
54 153 m 1,4,-1
 54 210 l 1,5,-1
 624 210 l 1,6,-1
 624 153 l 1,7,-1
 54 153 l 1,4,-1
EndSplineSet
EndChar
StartChar: greater
Encoding: 62 62 31
Width: 677
VWidth: 1533
Flags: W
Fore
60 2 m 1,0,-1
 60 63 l 1,1,-1
 553 291 l 1,2,-1
 60 520 l 1,3,-1
 60 581 l 1,4,-1
 618 320 l 1,5,-1
 618 262 l 1,6,-1
 60 2 l 1,0,-1
EndSplineSet
EndChar
StartChar: question
Encoding: 63 63 32
Width: 565
VWidth: 1533
Flags: W
HStem: -14 104<220.47 292.53> 707 30<196.049 338.236>
VStem: 41 82<509 561.671> 205 103<1.98572 74.5295> 247 18<129 165.501 165.501 229.683> 408 103<466.246 625.372>
Fore
511 537 m 0,0,1
 511 495 511 495 492.5 465 c 128,-1,2
 474 435 474 435 446.5 410 c 128,-1,3
 419 385 419 385 386 360.5 c 128,-1,4
 353 336 353 336 326 304.5 c 128,-1,5
 299 273 299 273 281.5 231 c 128,-1,6
 264 189 264 189 265 129 c 1,7,-1
 247 129 l 1,8,9
 242 161 242 161 242 192 c 0,10,11
 242 270 242 270 268 316 c 128,-1,12
 294 362 294 362 325 395.5 c 128,-1,13
 356 429 356 429 382 460.5 c 128,-1,14
 408 492 408 492 408 540 c 0,15,16
 408 612 408 612 379 659.5 c 128,-1,17
 350 707 350 707 271 707 c 0,18,19
 227 707 227 707 198.5 690 c 128,-1,20
 170 673 170 673 153 645.5 c 128,-1,21
 136 618 136 618 129.5 582 c 128,-1,22
 123 546 123 546 123 509 c 1,23,-1
 41 509 l 1,24,25
 41 615 41 615 105 676 c 128,-1,26
 169 737 169 737 274 737 c 0,27,28
 320 737 320 737 362.5 725 c 128,-1,29
 405 713 405 713 438 687.5 c 128,-1,30
 471 662 471 662 491 624.5 c 128,-1,31
 511 587 511 587 511 537 c 0,0,1
308 38 m 256,32,33
 308 17 308 17 293 1.5 c 128,-1,34
 278 -14 278 -14 256 -14 c 256,35,36
 235 -14 235 -14 220 1.5 c 128,-1,37
 205 17 205 17 205 38 c 256,38,39
 205 60 205 60 220 75 c 128,-1,40
 235 90 235 90 256 90 c 256,41,42
 278 90 278 90 293 75 c 128,-1,43
 308 60 308 60 308 38 c 256,32,33
EndSplineSet
EndChar
StartChar: at
Encoding: 64 64 33
Width: 898
VWidth: 1533
Flags: W
HStem: -21 39<353.593 572.755> 152 35<638 702.976> 153 45<385.477 470.213> 511 39<444.646 540.617> 711 26<354.315 591.656>
VStem: 66 86<220.852 473.158> 293 73<236.688 333.764> 794 39<349.647 521.964>
Fore
833 414 m 0,0,1
 833 373 833 373 818 326 c 128,-1,2
 803 279 803 279 776.5 240.5 c 128,-1,3
 750 202 750 202 711.5 177 c 128,-1,4
 673 152 673 152 626 152 c 0,5,6
 547 152 547 152 530 232 c 1,7,8
 500 195 500 195 470 174 c 128,-1,9
 440 153 440 153 391 153 c 0,10,11
 363 153 363 153 344 165.5 c 128,-1,12
 325 178 325 178 313.5 197 c 128,-1,13
 302 216 302 216 297.5 240 c 128,-1,14
 293 264 293 264 293 287 c 0,15,16
 293 330 293 330 306.5 376 c 128,-1,17
 320 422 320 422 347 461 c 128,-1,18
 374 500 374 500 411.5 525 c 128,-1,19
 449 550 449 550 498 550 c 0,20,21
 526 550 526 550 550.5 535.5 c 128,-1,22
 575 521 575 521 589 497 c 1,23,-1
 621 538 l 1,24,-1
 676 538 l 1,25,26
 668 511 668 511 656 470 c 128,-1,27
 644 429 644 429 631.5 387 c 128,-1,28
 619 345 619 345 611 305 c 128,-1,29
 603 265 603 265 603 239 c 0,30,31
 603 230 603 230 606 215 c 1,32,-1
 616 195 l 1,33,-1
 638 187 l 1,34,35
 676 187 676 187 705 210 c 128,-1,36
 734 233 734 233 754 267.5 c 128,-1,37
 774 302 774 302 784 340.5 c 128,-1,38
 794 379 794 379 794 411 c 0,39,40
 794 477 794 477 768 532 c 128,-1,41
 742 587 742 587 697 627 c 128,-1,42
 652 667 652 667 593.5 689 c 128,-1,43
 535 711 535 711 471 711 c 0,44,45
 394 711 394 711 335 680.5 c 128,-1,46
 276 650 276 650 235.5 598.5 c 128,-1,47
 195 547 195 547 173.5 481 c 128,-1,48
 152 415 152 415 152 345 c 0,49,50
 152 273 152 273 176.5 213 c 128,-1,51
 201 153 201 153 244.5 109.5 c 128,-1,52
 288 66 288 66 348 42 c 128,-1,53
 408 18 408 18 480 18 c 0,54,55
 537 18 537 18 593 29 c 128,-1,56
 649 40 649 40 698 67 c 1,57,-1
 714 41 l 1,58,59
 661 11 661 11 603.5 -5 c 128,-1,60
 546 -21 546 -21 484 -21 c 0,61,62
 405 -21 405 -21 330 3.5 c 128,-1,63
 255 28 255 28 195.5 74.5 c 128,-1,64
 136 121 136 121 101 188.5 c 128,-1,65
 66 256 66 256 66 342 c 0,66,67
 66 426 66 426 97.5 499 c 128,-1,68
 129 572 129 572 184 625 c 128,-1,69
 239 678 239 678 312.5 707.5 c 128,-1,70
 386 737 386 737 471 737 c 0,71,72
 543 737 543 737 608 715 c 128,-1,73
 673 693 673 693 723 651.5 c 128,-1,74
 773 610 773 610 803 549.5 c 128,-1,75
 833 489 833 489 833 414 c 0,0,1
572 428 m 0,76,77
 572 440 572 440 568 454.5 c 128,-1,78
 564 469 564 469 557 481.5 c 128,-1,79
 550 494 550 494 539.5 502.5 c 128,-1,80
 529 511 529 511 515 511 c 0,81,82
 474 511 474 511 444.5 489.5 c 128,-1,83
 415 468 415 468 398.5 435 c 128,-1,84
 382 402 382 402 374 363 c 128,-1,85
 366 324 366 324 366 290 c 0,86,87
 366 255 366 255 381 226.5 c 128,-1,88
 396 198 396 198 435 198 c 0,89,90
 468 198 468 198 493 224 c 128,-1,91
 518 250 518 250 535.5 287 c 128,-1,92
 553 324 553 324 562.5 363 c 128,-1,93
 572 402 572 402 572 428 c 0,76,77
EndSplineSet
EndChar
StartChar: A
Encoding: 65 65 34
Width: 803
VWidth: 1533
Flags: W
HStem: 0 21G<0 59.6557 696.454 803> 366 37<265 497> 719 20G<394.039 432.311>
Fore
707 0 m 1,0,-1
 514 366 l 1,1,-1
 244 366 l 1,2,-1
 49 0 l 1,3,-1
 0 0 l 1,4,-1
 405 739 l 1,5,-1
 422 739 l 1,6,-1
 803 0 l 1,7,-1
 707 0 l 1,0,-1
385 627 m 1,8,-1
 265 403 l 1,9,-1
 497 403 l 1,10,-1
 385 627 l 1,8,-1
EndSplineSet
EndChar
StartChar: B
Encoding: 66 66 35
Width: 820
VWidth: 1533
Flags: W
HStem: 0 37<159 500.094> 365 38<159 443.633> 678 38<159 418.635 418.635 464.729 464.729 522 522 535.358>
VStem: 77 82<37 365 403 678> 624 89<482.856 614.138> 685 97<117.97 274.362>
Fore
782 196 m 0,0,1
 782 130 782 130 743.5 92 c 128,-1,2
 705 54 705 54 649 33 c 128,-1,3
 593 12 593 12 530.5 6 c 128,-1,4
 468 0 468 0 419 0 c 2,5,-1
 77 0 l 1,6,-1
 77 716 l 1,7,-1
 434 716 l 2,8,9
 474 716 474 716 522 710 c 128,-1,10
 570 704 570 704 613 686 c 128,-1,11
 656 668 656 668 684.5 636 c 128,-1,12
 713 604 713 604 713 552 c 0,13,14
 713 511 713 511 689 480 c 128,-1,15
 665 449 665 449 630 429 c 128,-1,16
 595 409 595 409 553.5 398.5 c 128,-1,17
 512 388 512 388 478 386 c 1,18,19
 521 383 521 383 574 374 c 128,-1,20
 627 365 627 365 673 344.5 c 128,-1,21
 719 324 719 324 750.5 288.5 c 128,-1,22
 782 253 782 253 782 196 c 0,0,1
624 544 m 0,23,24
 624 592 624 592 598.5 618.5 c 128,-1,25
 573 645 573 645 536.5 658.5 c 128,-1,26
 500 672 500 672 457.5 675 c 128,-1,27
 415 678 415 678 380 678 c 2,28,-1
 159 678 l 1,29,-1
 159 403 l 1,30,-1
 385 403 l 2,31,32
 419 403 419 403 460 408.5 c 128,-1,33
 501 414 501 414 538 430 c 128,-1,34
 575 446 575 446 599.5 473 c 128,-1,35
 624 500 624 500 624 544 c 0,23,24
685 190 m 0,36,37
 685 250 685 250 655.5 284.5 c 128,-1,38
 626 319 626 319 580.5 337.5 c 128,-1,39
 535 356 535 356 483 360.5 c 128,-1,40
 431 365 431 365 385 365 c 2,41,-1
 159 365 l 1,42,-1
 159 37 l 1,43,-1
 466 37 l 2,44,45
 501 37 501 37 540.5 44.5 c 128,-1,46
 580 52 580 52 612 70.5 c 128,-1,47
 644 89 644 89 664.5 118 c 128,-1,48
 685 147 685 147 685 190 c 0,36,37
EndSplineSet
EndChar
StartChar: C
Encoding: 67 67 36
Width: 861
VWidth: 1533
Flags: W
HStem: -23 34<343.194 572.503> 704 35<340.923 572.786>
VStem: 38 98<235.358 483.84>
Fore
823 205 m 1,0,1
 800 149 800 149 764 106 c 128,-1,2
 728 63 728 63 681.5 34.5 c 128,-1,3
 635 6 635 6 579 -8.5 c 128,-1,4
 523 -23 523 -23 463 -23 c 0,5,6
 383 -23 383 -23 306.5 3 c 128,-1,7
 230 29 230 29 170 78 c 128,-1,8
 110 127 110 127 74 196 c 128,-1,9
 38 265 38 265 38 351 c 0,10,11
 38 442 38 442 72.5 514 c 128,-1,12
 107 586 107 586 166 635.5 c 128,-1,13
 225 685 225 685 302 712 c 128,-1,14
 379 739 379 739 465 739 c 0,15,16
 524 739 524 739 579.5 724.5 c 128,-1,17
 635 710 635 710 681.5 681 c 128,-1,18
 728 652 728 652 765 609 c 128,-1,19
 802 566 802 566 823 509 c 1,20,-1
 718 509 l 1,21,22
 691 598 691 598 624.5 651 c 128,-1,23
 558 704 558 704 463 704 c 0,24,25
 389 704 389 704 329.5 678 c 128,-1,26
 270 652 270 652 227 606 c 128,-1,27
 184 560 184 560 160 497.5 c 128,-1,28
 136 435 136 435 136 363 c 0,29,30
 136 293 136 293 160 228.5 c 128,-1,31
 184 164 184 164 226 115.5 c 128,-1,32
 268 67 268 67 328.5 39 c 128,-1,33
 389 11 389 11 463 11 c 0,34,35
 558 11 558 11 624.5 64 c 128,-1,36
 691 117 691 117 718 205 c 1,37,-1
 823 205 l 1,0,1
EndSplineSet
EndChar
StartChar: D
Encoding: 68 68 37
Width: 853
VWidth: 1533
Flags: W
HStem: 0 37<159 519.279> 678 38<159 492.42>
VStem: 77 82<37 678> 714 102<232.657 504.072>
Fore
816 380 m 0,0,1
 816 267 816 267 777.5 194 c 128,-1,2
 739 121 739 121 674 77.5 c 128,-1,3
 609 34 609 34 522 17 c 128,-1,4
 435 0 435 0 337 0 c 2,5,-1
 77 0 l 1,6,-1
 77 716 l 1,7,-1
 331 716 l 2,8,9
 415 716 415 716 501 702 c 128,-1,10
 587 688 587 688 657 650.5 c 128,-1,11
 727 613 727 613 771.5 548 c 128,-1,12
 816 483 816 483 816 380 c 0,0,1
714 380 m 0,13,14
 714 466 714 466 686 523 c 128,-1,15
 658 580 658 580 609.5 614.5 c 128,-1,16
 561 649 561 649 494.5 663.5 c 128,-1,17
 428 678 428 678 353 678 c 2,18,-1
 159 678 l 1,19,-1
 159 37 l 1,20,-1
 353 37 l 2,21,22
 534 37 534 37 624 114.5 c 128,-1,23
 714 192 714 192 714 380 c 0,13,14
EndSplineSet
EndChar
StartChar: E
Encoding: 69 69 38
Width: 691
VWidth: 1533
Flags: W
HStem: 0 37<159 676> 366 37<159 566> 678 38<159 676>
VStem: 77 82<37 366 403 678>
Fore
77 0 m 1,0,-1
 77 716 l 1,1,-1
 676 716 l 1,2,-1
 676 678 l 1,3,-1
 159 678 l 1,4,-1
 159 403 l 1,5,-1
 566 403 l 1,6,-1
 566 366 l 1,7,-1
 159 366 l 1,8,-1
 159 37 l 1,9,-1
 676 37 l 1,10,-1
 676 0 l 1,11,-1
 77 0 l 1,0,-1
EndSplineSet
EndChar
StartChar: F
Encoding: 70 70 39
Width: 691
VWidth: 1533
Flags: W
HStem: 0 21G<77 159> 366 37<159 566> 678 38<159 676>
VStem: 77 82<0 366 403 678>
Fore
159 678 m 1,0,-1
 159 403 l 1,1,-1
 566 403 l 1,2,-1
 566 366 l 1,3,-1
 159 366 l 1,4,-1
 159 0 l 1,5,-1
 77 0 l 1,6,-1
 77 716 l 1,7,-1
 676 716 l 1,8,-1
 676 678 l 1,9,-1
 159 678 l 1,0,-1
EndSplineSet
EndChar
StartChar: G
Encoding: 71 71 40
Width: 861
VWidth: 1533
Flags: W
HStem: -23 35<337.92 539.849> 328 38<465 721> 704 35<337.167 535.053>
VStem: 38 102<232.977 479.434> 718 105<509 583.759> 721 81<118 328>
Fore
718 509 m 1,0,1
 707 557 707 557 681.5 593 c 128,-1,2
 656 629 656 629 621.5 653.5 c 128,-1,3
 587 678 587 678 544 691 c 128,-1,4
 501 704 501 704 455 704 c 0,5,6
 383 704 383 704 325 677 c 128,-1,7
 267 650 267 650 225.5 604 c 128,-1,8
 184 558 184 558 162 496.5 c 128,-1,9
 140 435 140 435 140 366 c 256,10,11
 140 297 140 297 160.5 233.5 c 128,-1,12
 181 170 181 170 221 121 c 128,-1,13
 261 72 261 72 319 42 c 128,-1,14
 377 12 377 12 451 12 c 0,15,16
 484 12 484 12 522 19 c 128,-1,17
 560 26 560 26 596 39 c 128,-1,18
 632 52 632 52 664 72 c 128,-1,19
 696 92 696 92 721 118 c 1,20,-1
 721 328 l 1,21,-1
 465 328 l 1,22,-1
 465 366 l 1,23,-1
 802 366 l 1,24,-1
 802 101 l 1,25,26
 734 32 734 32 639 4.5 c 128,-1,27
 544 -23 544 -23 451 -23 c 0,28,29
 373 -23 373 -23 298.5 4.5 c 128,-1,30
 224 32 224 32 166.5 82 c 128,-1,31
 109 132 109 132 73.5 200 c 128,-1,32
 38 268 38 268 38 351 c 0,33,34
 38 438 38 438 72 509.5 c 128,-1,35
 106 581 106 581 163.5 632.5 c 128,-1,36
 221 684 221 684 296 711.5 c 128,-1,37
 371 739 371 739 455 739 c 0,38,39
 584 739 584 739 679 686 c 128,-1,40
 774 633 774 633 823 509 c 1,41,-1
 718 509 l 1,0,1
EndSplineSet
EndChar
StartChar: H
Encoding: 72 72 41
Width: 838
VWidth: 1533
Flags: W
HStem: 0 21G<77 159 681 762> 366 37<159 681> 696 20G<77 159 681 762>
VStem: 77 82<0 366 403 716> 681 81<0 366 403 716>
Fore
681 0 m 1,0,-1
 681 366 l 1,1,-1
 159 366 l 1,2,-1
 159 0 l 1,3,-1
 77 0 l 1,4,-1
 77 716 l 1,5,-1
 159 716 l 1,6,-1
 159 403 l 1,7,-1
 681 403 l 1,8,-1
 681 716 l 1,9,-1
 762 716 l 1,10,-1
 762 0 l 1,11,-1
 681 0 l 1,0,-1
EndSplineSet
EndChar
StartChar: I
Encoding: 73 73 42
Width: 236
VWidth: 1533
Flags: W
HStem: 0 716<77 159 77 159 77 77>
VStem: 77 82<0 716>
Fore
77 0 m 1,0,-1
 77 716 l 1,1,-1
 159 716 l 1,2,-1
 159 0 l 1,3,-1
 77 0 l 1,0,-1
EndSplineSet
EndChar
StartChar: J
Encoding: 74 74 43
Width: 532
VWidth: 1533
Flags: W
HStem: -31 34<162.824 294.821> 696 20G<371 455>
VStem: 371 84<151.969 199 199 716>
Fore
455 218 m 1,0,1
 455 167 455 167 440 122 c 128,-1,2
 425 77 425 77 395.5 43 c 128,-1,3
 366 9 366 9 324 -11 c 128,-1,4
 282 -31 282 -31 228 -31 c 0,5,6
 190 -31 190 -31 149.5 -21 c 128,-1,7
 109 -11 109 -11 76 9 c 128,-1,8
 43 29 43 29 20 60.5 c 128,-1,9
 -3 92 -3 92 -6 136 c 1,10,-1
 83 136 l 1,11,12
 86 75 86 75 124.5 39 c 128,-1,13
 163 3 163 3 224 3 c 0,14,15
 265 3 265 3 292.5 20.5 c 128,-1,16
 320 38 320 38 338 66 c 128,-1,17
 356 94 356 94 363.5 129 c 128,-1,18
 371 164 371 164 371 199 c 2,19,-1
 371 716 l 1,20,-1
 455 716 l 1,21,-1
 455 218 l 1,0,1
EndSplineSet
EndChar
StartChar: K
Encoding: 75 75 44
Width: 751
VWidth: 1533
Flags: W
HStem: 0 21G<77 159 622.563 736> 696 20G<77 159 559.714 656>
VStem: 77 82<0 310 366 716>
Fore
636 0 m 1,0,-1
 333 451 l 1,1,-1
 159 310 l 1,2,-1
 159 0 l 1,3,-1
 77 0 l 1,4,-1
 77 716 l 1,5,-1
 159 716 l 1,6,-1
 159 366 l 1,7,-1
 584 716 l 1,8,-1
 656 716 l 1,9,-1
 394 501 l 1,10,-1
 736 0 l 1,11,-1
 636 0 l 1,0,-1
EndSplineSet
EndChar
StartChar: L
Encoding: 76 76 45
Width: 611
VWidth: 1533
Flags: W
HStem: 0 37<159 604> 696 20G<77 159>
VStem: 77 82<37 716>
Fore
77 0 m 1,0,-1
 77 716 l 1,1,-1
 159 716 l 1,2,-1
 159 37 l 1,3,-1
 604 37 l 1,4,-1
 604 0 l 1,5,-1
 77 0 l 1,0,-1
EndSplineSet
EndChar
StartChar: M
Encoding: 77 77 46
Width: 944
VWidth: 1533
Flags: W
HStem: 0 21G<77 124 430.262 461.955 785 868> 696 20G<77 191.683 761.017 868>
VStem: 77 47<0 635> 785 83<0 655>
Fore
785 0 m 1,0,-1
 785 655 l 1,1,-1
 452 -14 l 1,2,-1
 440 -14 l 1,3,-1
 124 635 l 1,4,-1
 124 0 l 1,5,-1
 77 0 l 1,6,-1
 77 716 l 1,7,-1
 182 716 l 1,8,-1
 472 117 l 1,9,-1
 771 716 l 1,10,-1
 868 716 l 1,11,-1
 868 0 l 1,12,-1
 785 0 l 1,0,-1
EndSplineSet
EndChar
StartChar: N
Encoding: 78 78 47
Width: 818
VWidth: 1533
Flags: W
HStem: -21 21<77 124 712.689 742> 696 20G<77 187.264 695 742>
VStem: 77 47<0 642> 695 47<140 716>
Fore
731 -21 m 1,0,-1
 124 642 l 1,1,-1
 124 0 l 1,2,-1
 77 0 l 1,3,-1
 77 716 l 1,4,-1
 169 716 l 1,5,-1
 695 140 l 1,6,-1
 695 716 l 1,7,-1
 742 716 l 1,8,-1
 742 -21 l 1,9,-1
 731 -21 l 1,0,-1
EndSplineSet
EndChar
StartChar: O
Encoding: 79 79 48
Width: 912
VWidth: 1533
Flags: W
HStem: -26 29<336.137 574.223> 710 29<336.731 575.043>
VStem: 38 102<229.894 478.656> 771 103<231.78 480.656>
Fore
874 357 m 0,0,1
 874 271 874 271 838.5 200.5 c 128,-1,2
 803 130 803 130 745 79.5 c 128,-1,3
 687 29 687 29 612 1.5 c 128,-1,4
 537 -26 537 -26 455 -26 c 256,5,6
 374 -26 374 -26 299 1.5 c 128,-1,7
 224 29 224 29 165.5 79.5 c 128,-1,8
 107 130 107 130 72.5 200.5 c 128,-1,9
 38 271 38 271 38 356 c 256,10,11
 38 440 38 440 73.5 510.5 c 128,-1,12
 109 581 109 581 168 631.5 c 128,-1,13
 227 682 227 682 302 710.5 c 128,-1,14
 377 739 377 739 457 739 c 256,15,16
 537 739 537 739 612.5 711.5 c 128,-1,17
 688 684 688 684 745.5 633.5 c 128,-1,18
 803 583 803 583 838.5 512.5 c 128,-1,19
 874 442 874 442 874 357 c 0,0,1
771 357 m 0,20,21
 771 428 771 428 750.5 492.5 c 128,-1,22
 730 557 730 557 689.5 605 c 128,-1,23
 649 653 649 653 590.5 681.5 c 128,-1,24
 532 710 532 710 457 710 c 0,25,26
 380 710 380 710 321 681.5 c 128,-1,27
 262 653 262 653 222 605 c 128,-1,28
 182 557 182 557 161 492.5 c 128,-1,29
 140 428 140 428 140 356 c 256,30,31
 140 284 140 284 160.5 220 c 128,-1,32
 181 156 181 156 221.5 108 c 128,-1,33
 262 60 262 60 320.5 31.5 c 128,-1,34
 379 3 379 3 455 3 c 0,35,36
 530 3 530 3 589.5 31.5 c 128,-1,37
 649 60 649 60 689.5 109 c 128,-1,38
 730 158 730 158 750.5 221.5 c 128,-1,39
 771 285 771 285 771 357 c 0,20,21
EndSplineSet
EndChar
StartChar: P
Encoding: 80 80 49
Width: 758
VWidth: 1533
Flags: W
HStem: 0 21G<77 159> 327 39<159 205.208 205.208 311.392 311.392 403.769> 678 38<159 345.815 345.815 365.483 365.483 410.459 410.459 474 474 500.402>
VStem: 77 82<0 327 366 678> 626 95<450.416 595.911>
Fore
721 527 m 0,0,1
 721 468 721 468 689.5 430 c 128,-1,2
 658 392 658 392 608 370 c 128,-1,3
 558 348 558 348 496 338 c 128,-1,4
 434 328 434 328 371 326 c 128,-1,5
 308 324 308 324 252 325.5 c 128,-1,6
 196 327 196 327 159 327 c 1,7,-1
 159 0 l 1,8,-1
 77 0 l 1,9,-1
 77 716 l 1,10,-1
 308 716 l 2,11,12
 340 716 340 716 384 715 c 128,-1,13
 428 714 428 714 474 709 c 128,-1,14
 520 704 520 704 564.5 692.5 c 128,-1,15
 609 681 609 681 643.5 659.5 c 128,-1,16
 678 638 678 638 699.5 605.5 c 128,-1,17
 721 573 721 573 721 527 c 0,0,1
626 529 m 0,18,19
 626 581 626 581 589.5 611 c 128,-1,20
 553 641 553 641 503.5 655.5 c 128,-1,21
 454 670 454 670 400.5 674 c 128,-1,22
 347 678 347 678 310 678 c 2,23,-1
 159 678 l 1,24,-1
 159 366 l 1,25,-1
 307 366 l 2,26,27
 350 366 350 366 405.5 369.5 c 128,-1,28
 461 373 461 373 509.5 388 c 128,-1,29
 558 403 558 403 592 436 c 128,-1,30
 626 469 626 469 626 529 c 0,18,19
EndSplineSet
EndChar
StartChar: Q
Encoding: 81 81 50
Width: 912
VWidth: 1533
Flags: W
HStem: -225 33<723.6 775.951> 710 29<336.112 575.043>
VStem: 38 102<235.054 478.656> 771 103<236.824 480.656>
Fore
874 357 m 0,0,1
 874 284 874 284 845.5 220 c 128,-1,2
 817 156 817 156 769.5 107 c 128,-1,3
 722 58 722 58 658.5 24.5 c 128,-1,4
 595 -9 595 -9 526 -21 c 1,5,6
 534 -72 534 -72 560 -107.5 c 128,-1,7
 586 -143 586 -143 622.5 -164.5 c 128,-1,8
 659 -186 659 -186 703 -192.5 c 128,-1,9
 747 -199 747 -199 790 -192 c 1,10,-1
 779 -225 l 1,11,12
 722 -244 722 -244 661.5 -235.5 c 128,-1,13
 601 -227 601 -227 549.5 -198 c 128,-1,14
 498 -169 498 -169 460.5 -124.5 c 128,-1,15
 423 -80 423 -80 411 -25 c 1,16,17
 337 -17 337 -17 269.5 15.5 c 128,-1,18
 202 48 202 48 151 97.5 c 128,-1,19
 100 147 100 147 69 213 c 128,-1,20
 38 279 38 279 38 356 c 0,21,22
 38 440 38 440 73.5 510.5 c 128,-1,23
 109 581 109 581 167 631.5 c 128,-1,24
 225 682 225 682 300.5 710.5 c 128,-1,25
 376 739 376 739 457 739 c 0,26,27
 537 739 537 739 612.5 711.5 c 128,-1,28
 688 684 688 684 745.5 633.5 c 128,-1,29
 803 583 803 583 838.5 512.5 c 128,-1,30
 874 442 874 442 874 357 c 0,0,1
771 357 m 0,31,32
 771 428 771 428 750.5 492.5 c 128,-1,33
 730 557 730 557 689.5 605 c 128,-1,34
 649 653 649 653 590.5 681.5 c 128,-1,35
 532 710 532 710 457 710 c 0,36,37
 380 710 380 710 321 681.5 c 128,-1,38
 262 653 262 653 222 605 c 128,-1,39
 182 557 182 557 161 492.5 c 128,-1,40
 140 428 140 428 140 356 c 256,41,42
 140 284 140 284 160.5 220 c 128,-1,43
 181 156 181 156 221.5 108 c 128,-1,44
 262 60 262 60 320.5 31.5 c 128,-1,45
 379 3 379 3 455 3 c 0,46,47
 530 3 530 3 589.5 31.5 c 128,-1,48
 649 60 649 60 689.5 109 c 128,-1,49
 730 158 730 158 750.5 221.5 c 128,-1,50
 771 285 771 285 771 357 c 0,31,32
EndSplineSet
EndChar
StartChar: R
Encoding: 82 82 51
Width: 817
VWidth: 1533
Flags: W
HStem: 0 21G<77 159 662.5 787> 327 20<451 515> 327 39<159 434.439> 678 38<159 355.604 355.604 369.542 369.542 460.875>
VStem: 77 82<0 327 366 678> 622 105<453.913 603.383>
Fore
678 0 m 1,0,1
 647 35 647 35 629.5 90.5 c 128,-1,2
 612 146 612 146 592 198.5 c 128,-1,3
 572 251 572 251 541.5 289 c 128,-1,4
 511 327 511 327 451 327 c 2,5,-1
 159 327 l 1,6,-1
 159 0 l 1,7,-1
 77 0 l 1,8,-1
 77 716 l 1,9,-1
 317 716 l 2,10,11
 351 716 351 716 394.5 715 c 128,-1,12
 438 714 438 714 483.5 709.5 c 128,-1,13
 529 705 529 705 572.5 693.5 c 128,-1,14
 616 682 616 682 650.5 661.5 c 128,-1,15
 685 641 685 641 706 608 c 128,-1,16
 727 575 727 575 727 527 c 0,17,18
 727 486 727 486 707 454.5 c 128,-1,19
 687 423 687 423 655.5 401.5 c 128,-1,20
 624 380 624 380 586.5 366.5 c 128,-1,21
 549 353 549 353 515 347 c 1,22,23
 567 345 567 345 599.5 326 c 128,-1,24
 632 307 632 307 652 277.5 c 128,-1,25
 672 248 672 248 685 211.5 c 128,-1,26
 698 175 698 175 710 136.5 c 128,-1,27
 722 98 722 98 739.5 63 c 128,-1,28
 757 28 757 28 787 0 c 1,29,-1
 678 0 l 1,0,1
622 529 m 0,30,31
 622 584 622 584 591 614 c 128,-1,32
 560 644 560 644 514 658.5 c 128,-1,33
 468 673 468 673 415.5 675.5 c 128,-1,34
 363 678 363 678 324 678 c 2,35,-1
 159 678 l 1,36,-1
 159 366 l 1,37,-1
 342 366 l 2,38,39
 386 366 386 366 436 369.5 c 128,-1,40
 486 373 486 373 527.5 389 c 128,-1,41
 569 405 569 405 595.5 437 c 128,-1,42
 622 469 622 469 622 529 c 0,30,31
EndSplineSet
EndChar
StartChar: S
Encoding: 83 83 52
Width: 742
VWidth: 1533
Flags: W
HStem: -25 36<299.313 426.207> 702 34<312.766 424.968>
VStem: 38 102<131.239 192.113> 60 92<493.829 620.791> 613 91<107.261 245.13>
Fore
704 204 m 0,0,1
 704 135 704 135 672.5 91.5 c 128,-1,2
 641 48 641 48 592 21.5 c 128,-1,3
 543 -5 543 -5 483 -15 c 128,-1,4
 423 -25 423 -25 368 -25 c 0,5,6
 314 -25 314 -25 257.5 -11.5 c 128,-1,7
 201 2 201 2 154 30 c 128,-1,8
 107 58 107 58 75 102 c 128,-1,9
 43 146 43 146 38 207 c 1,10,-1
 140 207 l 1,11,12
 143 161 143 161 162 125 c 128,-1,13
 181 89 181 89 212.5 63.5 c 128,-1,14
 244 38 244 38 284 24.5 c 128,-1,15
 324 11 324 11 368 11 c 0,16,17
 406 11 406 11 450 19.5 c 128,-1,18
 494 28 494 28 530 47 c 128,-1,19
 566 66 566 66 589.5 98 c 128,-1,20
 613 130 613 130 613 178 c 0,21,22
 613 233 613 233 572.5 263.5 c 128,-1,23
 532 294 532 294 470 312.5 c 128,-1,24
 408 331 408 331 336.5 344 c 128,-1,25
 265 357 265 357 203 378.5 c 128,-1,26
 141 400 141 400 100.5 436 c 128,-1,27
 60 472 60 472 60 537 c 0,28,29
 60 595 60 595 90.5 633.5 c 128,-1,30
 121 672 121 672 168 695 c 128,-1,31
 215 718 215 718 269.5 727 c 128,-1,32
 324 736 324 736 370 736 c 0,33,34
 414 736 414 736 466 727.5 c 128,-1,35
 518 719 518 719 564 699 c 128,-1,36
 610 679 610 679 644 644 c 128,-1,37
 678 609 678 609 687 557 c 1,38,-1
 598 557 l 1,39,40
 590 598 590 598 567 626.5 c 128,-1,41
 544 655 544 655 512 671.5 c 128,-1,42
 480 688 480 688 442.5 695 c 128,-1,43
 405 702 405 702 368 702 c 0,44,45
 334 702 334 702 296 696 c 128,-1,46
 258 690 258 690 225.5 674 c 128,-1,47
 193 658 193 658 172.5 630.5 c 128,-1,48
 152 603 152 603 152 560 c 0,49,50
 152 506 152 506 192.5 476 c 128,-1,51
 233 446 233 446 294.5 428.5 c 128,-1,52
 356 411 356 411 428 398 c 128,-1,53
 500 385 500 385 561 362.5 c 128,-1,54
 622 340 622 340 663 304 c 128,-1,55
 704 268 704 268 704 204 c 0,0,1
EndSplineSet
EndChar
StartChar: T
Encoding: 84 84 53
Width: 703
VWidth: 1533
Flags: W
HStem: 0 21G<308 394> 678 38<15 308 394 688>
VStem: 308 86<0 678>
Fore
394 678 m 1,0,-1
 394 0 l 1,1,-1
 308 0 l 1,2,-1
 308 678 l 1,3,-1
 15 678 l 1,4,-1
 15 716 l 1,5,-1
 688 716 l 1,6,-1
 688 678 l 1,7,-1
 394 678 l 1,0,-1
EndSplineSet
EndChar
StartChar: U
Encoding: 85 85 54
Width: 878
VWidth: 1533
Flags: W
HStem: -25 34<325.188 552.624> 696 20G<77 159 721 802>
VStem: 77 82<165.534 716> 721 81<166.679 274 274 716>
Fore
802 291 m 1,0,1
 802 209 802 209 773.5 149.5 c 128,-1,2
 745 90 745 90 696 51 c 128,-1,3
 647 12 647 12 580.5 -6.5 c 128,-1,4
 514 -25 514 -25 438 -25 c 256,5,6
 363 -25 363 -25 297.5 -6.5 c 128,-1,7
 232 12 232 12 182.5 51 c 128,-1,8
 133 90 133 90 105 150 c 128,-1,9
 77 210 77 210 77 291 c 2,10,-1
 77 716 l 1,11,-1
 159 716 l 1,12,-1
 159 274 l 2,13,14
 159 213 159 213 180.5 164 c 128,-1,15
 202 115 202 115 240 80.5 c 128,-1,16
 278 46 278 46 328.5 27.5 c 128,-1,17
 379 9 379 9 438 9 c 256,18,19
 498 9 498 9 549.5 27.5 c 128,-1,20
 601 46 601 46 638.5 80.5 c 128,-1,21
 676 115 676 115 698.5 164 c 128,-1,22
 721 213 721 213 721 274 c 2,23,-1
 721 716 l 1,24,-1
 802 716 l 1,25,-1
 802 291 l 1,0,1
EndSplineSet
EndChar
StartChar: V
Encoding: 86 86 55
Width: 788
VWidth: 1533
Flags: W
HStem: -20 21G<366 401.571> 696 20G<8 111 720.545 780>
Fore
391 -20 m 1,0,-1
 376 -20 l 1,1,-1
 8 716 l 1,2,-1
 101 716 l 1,3,-1
 409 100 l 1,4,-1
 731 716 l 1,5,-1
 780 716 l 1,6,-1
 391 -20 l 1,0,-1
EndSplineSet
EndChar
StartChar: W
Encoding: 87 87 56
Width: 1048
VWidth: 1533
Flags: W
HStem: -20 21G<280.391 310.952 736.849 766.663> 696 20G<8 105.657 513.867 541 541 548.096 990.384 1041>
Fore
759 -20 m 1,0,-1
 745 -20 l 1,1,-1
 507 564 l 1,2,-1
 304 -20 l 1,3,-1
 288 -20 l 1,4,-1
 8 716 l 1,5,-1
 98 716 l 1,6,-1
 317 144 l 1,7,-1
 521 716 l 1,8,-1
 541 716 l 1,9,-1
 540 716 l 1,10,-1
 776 133 l 1,11,-1
 998 716 l 1,12,-1
 1041 716 l 1,13,-1
 759 -20 l 1,0,-1
EndSplineSet
EndChar
StartChar: X
Encoding: 88 88 57
Width: 668
VWidth: 1533
Flags: W
HStem: -2 21G<8 68.8712 554.153 661> 696 20G<41 149.605 598.026 659>
Fore
569 -2 m 1,0,-1
 327 324 l 1,1,-1
 52 -2 l 1,2,-1
 8 -2 l 1,3,-1
 307 351 l 1,4,-1
 41 716 l 1,5,-1
 135 716 l 1,6,-1
 357 412 l 1,7,-1
 615 716 l 1,8,-1
 659 716 l 1,9,-1
 379 385 l 1,10,-1
 661 -2 l 1,11,-1
 569 -2 l 1,0,-1
EndSplineSet
EndChar
StartChar: Y
Encoding: 89 89 58
Width: 737
VWidth: 1533
Flags: W
HStem: 0 21G<316 402> 696 20G<8 113.355 664.497 730>
VStem: 316 86<0 307>
Fore
402 322 m 1,0,-1
 402 0 l 1,1,-1
 316 0 l 1,2,-1
 316 307 l 1,3,-1
 8 716 l 1,4,-1
 98 716 l 1,5,-1
 379 350 l 1,6,-1
 681 716 l 1,7,-1
 730 716 l 1,8,-1
 402 322 l 1,0,-1
EndSplineSet
EndChar
StartChar: Z
Encoding: 90 90 59
Width: 657
VWidth: 1533
Flags: W
HStem: 0 37<140 616> 678 38<63 521>
Fore
140 37 m 1,0,-1
 629 37 l 1,1,-1
 616 0 l 1,2,-1
 15 0 l 1,3,-1
 521 678 l 1,4,-1
 51 678 l 1,5,-1
 63 716 l 1,6,-1
 642 716 l 1,7,-1
 140 37 l 1,0,-1
EndSplineSet
EndChar
StartChar: bracketleft
Encoding: 91 91 60
Width: 305
VWidth: 1533
Flags: W
HStem: -202 16<174.082 227> 717 20G<203 227>
VStem: 67 69.5<-50.014 587.014>
Fore
227 -202 m 1,0,1
 179 -202 179 -202 148.5 -185.5 c 128,-1,2
 118 -169 118 -169 99.5 -139.5 c 128,-1,3
 81 -110 81 -110 74 -72.5 c 128,-1,4
 67 -35 67 -35 67 5 c 2,5,-1
 67 532 l 2,6,7
 67 572 67 572 74 609.5 c 128,-1,8
 81 647 81 647 99.5 675.5 c 128,-1,9
 118 704 118 704 148.5 720.5 c 128,-1,10
 179 737 179 737 227 737 c 1,11,-1
 227 721 l 1,12,13
 192 716 192 716 173.5 702 c 128,-1,14
 155 688 155 688 146.5 667.5 c 128,-1,15
 138 647 138 647 136.5 620 c 128,-1,16
 135 593 135 593 135 564 c 2,17,-1
 135 -29 l 2,18,19
 135 -58 135 -58 136.5 -85 c 128,-1,20
 138 -112 138 -112 146.5 -132.5 c 128,-1,21
 155 -153 155 -153 173.5 -167 c 128,-1,22
 192 -181 192 -181 227 -186 c 1,23,-1
 227 -202 l 1,0,1
EndSplineSet
EndChar
StartChar: backslash
Encoding: 92 92 61
Width: 326
VWidth: 1533
Flags: W
HStem: -23 21G<274.263 343> 717 20G<-12 56.7368>
VStem: -12 355<-23 737 737 737>
Fore
282 -23 m 1,0,-1
 -12 737 l 1,1,-1
 49 737 l 1,2,-1
 343 -23 l 1,3,-1
 282 -23 l 1,0,-1
EndSplineSet
EndChar
StartChar: bracketright
Encoding: 93 93 62
Width: 305
VWidth: 1533
Flags: W
HStem: -202 21G<78 102> 721 16<78 130.403>
VStem: 170.5 65.5<-50.014 -29 -29 586.52>
Fore
236 5 m 1,0,1
 236 -35 236 -35 229 -72.5 c 128,-1,2
 222 -110 222 -110 204.5 -139.5 c 128,-1,3
 187 -169 187 -169 156.5 -185.5 c 128,-1,4
 126 -202 126 -202 78 -202 c 1,5,-1
 78 -186 l 1,6,7
 112 -181 112 -181 131 -166.5 c 128,-1,8
 150 -152 150 -152 159.5 -131 c 128,-1,9
 169 -110 169 -110 170.5 -83.5 c 128,-1,10
 172 -57 172 -57 172 -29 c 2,11,-1
 172 564 l 2,12,13
 172 593 172 593 170.5 619 c 128,-1,14
 169 645 169 645 159.5 666 c 128,-1,15
 150 687 150 687 131 701.5 c 128,-1,16
 112 716 112 716 78 721 c 1,17,-1
 78 737 l 1,18,19
 126 737 126 737 156.5 720.5 c 128,-1,20
 187 704 187 704 204.5 674.5 c 128,-1,21
 222 645 222 645 229 608.5 c 128,-1,22
 236 572 236 572 236 532 c 2,23,-1
 236 5 l 1,0,1
EndSplineSet
EndChar
StartChar: asciicircum
Encoding: 94 94 63
Width: 686
VWidth: 1533
Flags: W
HStem: 281 406<313 509 313 313>
VStem: 109 471<281 281 281 281>
Fore
509 281 m 1,0,-1
 345 610 l 1,1,-1
 179 281 l 1,2,-1
 109 281 l 1,3,-1
 313 687 l 1,4,-1
 377 687 l 1,5,-1
 580 281 l 1,6,-1
 509 281 l 1,0,-1
EndSplineSet
EndChar
StartChar: underscore
Encoding: 95 95 64
Width: 574
VWidth: 1533
Flags: W
HStem: -140 56<8 567>
Fore
8 -140 m 1,0,-1
 8 -84 l 1,1,-1
 567 -84 l 1,2,-1
 567 -140 l 1,3,-1
 8 -140 l 1,0,-1
EndSplineSet
EndChar
StartChar: grave
Encoding: 96 96 65
Width: 305
VWidth: 1533
Flags: W
HStem: 650 193<25 196 25 25>
VStem: -8 238<650 810 810 810>
Fore
196 650 m 1,0,1
 147 682 147 682 95 713.5 c 128,-1,2
 43 745 43 745 2 787 c 1,3,-1
 -8 810 l 1,4,-1
 2 833 l 1,5,6
 12 843 12 843 25 843 c 0,7,8
 44 843 44 843 75 817 c 128,-1,9
 106 791 106 791 136.5 757.5 c 128,-1,10
 167 724 167 724 193 692.5 c 128,-1,11
 219 661 219 661 230 650 c 1,12,-1
 196 650 l 1,0,1
EndSplineSet
EndChar
StartChar: a
Encoding: 97 97 66
Width: 616
VWidth: 1533
Flags: W
HStem: -15 35<217.904 368.209> 293 38<220.844 290.5 302 338.873 338.873 349.546 349.546 475> 512 38<260.542 401.907>
VStem: 31 89<89.7468 219.602> 475 68<197.458 217.758 217.758 292.316 332.092 427.843> 500 70<0 46.5162>
Fore
500 0 m 1,0,1
 492 25 492 25 487.5 45.5 c 128,-1,2
 483 66 483 66 481 89 c 1,3,4
 440 29 440 29 384 7 c 128,-1,5
 328 -15 328 -15 255 -15 c 0,6,7
 216 -15 216 -15 176 -6 c 128,-1,8
 136 3 136 3 104 23 c 128,-1,9
 72 43 72 43 51.5 75 c 128,-1,10
 31 107 31 107 31 152 c 0,11,12
 31 199 31 199 54.5 230.5 c 128,-1,13
 78 262 78 262 116.5 282 c 128,-1,14
 155 302 155 302 204 313 c 128,-1,15
 253 324 253 324 302 327.5 c 128,-1,16
 351 331 351 331 397 331 c 128,-1,17
 443 331 443 331 475 331 c 1,18,-1
 475 353 l 2,19,20
 475 432 475 432 428.5 472 c 128,-1,21
 382 512 382 512 304 512 c 0,22,23
 278 512 278 512 249.5 503.5 c 128,-1,24
 221 495 221 495 197 479 c 128,-1,25
 173 463 173 463 158 439 c 128,-1,26
 143 415 143 415 143 386 c 1,27,-1
 58 386 l 1,28,29
 69 432 69 432 93 463.5 c 128,-1,30
 117 495 117 495 149 514.5 c 128,-1,31
 181 534 181 534 221 542 c 128,-1,32
 261 550 261 550 304 550 c 0,33,34
 376 550 376 550 422 535 c 128,-1,35
 468 520 468 520 494 493 c 128,-1,36
 520 466 520 466 530.5 429 c 128,-1,37
 541 392 541 392 544 351 c 0,38,39
 546 308 546 308 543 263 c 128,-1,40
 540 218 540 218 540 172.5 c 128,-1,41
 540 127 540 127 545 83.5 c 128,-1,42
 550 40 550 40 570 0 c 1,43,-1
 500 0 l 1,0,1
371 293 m 2,44,45
 334 293 334 293 290.5 287.5 c 128,-1,46
 247 282 247 282 208.5 266.5 c 128,-1,47
 170 251 170 251 145 223.5 c 128,-1,48
 120 196 120 196 120 150 c 0,49,50
 120 118 120 118 134.5 94.5 c 128,-1,51
 149 71 149 71 172 54 c 128,-1,52
 195 37 195 37 224 28.5 c 128,-1,53
 253 20 253 20 282 20 c 0,54,55
 330 20 330 20 366 38.5 c 128,-1,56
 402 57 402 57 426.5 87.5 c 128,-1,57
 451 118 451 118 463 158.5 c 128,-1,58
 475 199 475 199 475 244 c 2,59,-1
 475 293 l 1,60,-1
 371 293 l 2,44,45
EndSplineSet
Substitution2: "Single Substitution lookup 22 subtable" uni0E38
Substitution2: "Single Substitution lookup 22 subtable" uni0E38
EndChar
StartChar: b
Encoding: 98 98 67
Width: 668
VWidth: 1533
Flags: W
HStem: -17 38<259.028 432.534> 515 37<261.128 433.443>
VStem: 69 71<0 97 179.344 308.375 425 742> 553 85<168.485 366.756>
Fore
638 268 m 0,0,1
 638 210 638 210 617 158.5 c 128,-1,2
 596 107 596 107 559.5 68 c 128,-1,3
 523 29 523 29 472.5 6 c 128,-1,4
 422 -17 422 -17 362 -17 c 0,5,6
 293 -17 293 -17 234 10.5 c 128,-1,7
 175 38 175 38 140 97 c 1,8,-1
 140 0 l 1,9,-1
 69 0 l 1,10,-1
 69 742 l 1,11,-1
 140 742 l 1,12,-1
 140 425 l 1,13,14
 170 491 170 491 229 521.5 c 128,-1,15
 288 552 288 552 362 552 c 0,16,17
 425 552 425 552 475.5 530.5 c 128,-1,18
 526 509 526 509 562 470.5 c 128,-1,19
 598 432 598 432 618 381 c 128,-1,20
 638 330 638 330 638 268 c 0,0,1
553 265 m 256,21,22
 553 311 553 311 539.5 355.5 c 128,-1,23
 526 400 526 400 500 436 c 128,-1,24
 474 472 474 472 434 493.5 c 128,-1,25
 394 515 394 515 343 515 c 0,26,27
 296 515 296 515 258.5 492 c 128,-1,28
 221 469 221 469 194 433 c 128,-1,29
 167 397 167 397 153.5 352.5 c 128,-1,30
 140 308 140 308 140 265 c 0,31,32
 140 221 140 221 153.5 178 c 128,-1,33
 167 135 167 135 194 99.5 c 128,-1,34
 221 64 221 64 258.5 42.5 c 128,-1,35
 296 21 296 21 343 21 c 0,36,37
 394 21 394 21 433 42 c 128,-1,38
 472 63 472 63 499 97.5 c 128,-1,39
 526 132 526 132 539.5 175.5 c 128,-1,40
 553 219 553 219 553 265 c 256,21,22
EndSplineSet
Substitution2: "Single Substitution lookup 22 subtable" uni0E39
Substitution2: "Single Substitution lookup 22 subtable" uni0E39
EndChar
StartChar: c
Encoding: 99 99 68
Width: 630
VWidth: 1533
Flags: W
HStem: -17 40<238.925 404.788> 512 38<241.304 405.089>
VStem: 31 89<191.487 367.057>
Fore
511 386 m 1,0,1
 489 448 489 448 441.5 480 c 128,-1,2
 394 512 394 512 330 512 c 0,3,4
 281 512 281 512 241.5 491.5 c 128,-1,5
 202 471 202 471 175.5 437 c 128,-1,6
 149 403 149 403 134.5 360 c 128,-1,7
 120 317 120 317 120 273 c 0,8,9
 120 225 120 225 133 180.5 c 128,-1,10
 146 136 146 136 172.5 101 c 128,-1,11
 199 66 199 66 238.5 44.5 c 128,-1,12
 278 23 278 23 330 23 c 0,13,14
 394 23 394 23 442.5 54.5 c 128,-1,15
 491 86 491 86 512 147 c 1,16,-1
 599 147 l 1,17,18
 587 103 587 103 559.5 71.5 c 128,-1,19
 532 40 532 40 496 21 c 128,-1,20
 460 2 460 2 418 -7.5 c 128,-1,21
 376 -17 376 -17 336 -17 c 0,22,23
 274 -17 274 -17 219 4 c 128,-1,24
 164 25 164 25 122 62.5 c 128,-1,25
 80 100 80 100 55.5 152 c 128,-1,26
 31 204 31 204 31 267 c 256,27,28
 31 330 31 330 55.5 382 c 128,-1,29
 80 434 80 434 122 471.5 c 128,-1,30
 164 509 164 509 219 529.5 c 128,-1,31
 274 550 274 550 336 550 c 0,32,33
 376 550 376 550 418 541 c 128,-1,34
 460 532 460 532 496 513 c 128,-1,35
 532 494 532 494 559.5 462.5 c 128,-1,36
 587 431 587 431 599 386 c 1,37,-1
 511 386 l 1,0,1
EndSplineSet
Substitution2: "Single Substitution lookup 22 subtable" uni0E3A
Substitution2: "Single Substitution lookup 22 subtable" uni0E3A
EndChar
StartChar: d
Encoding: 100 100 69
Width: 668
VWidth: 1533
Flags: W
HStem: -17 38<236.451 410.214> 515 37<235.541 408.62>
VStem: 31 86<168.485 345.721> 529 70<0 97 178.375 308.625 425 742>
Fore
529 0 m 1,0,-1
 529 97 l 1,1,2
 494 38 494 38 435 10.5 c 128,-1,3
 376 -17 376 -17 307 -17 c 0,4,5
 247 -17 247 -17 196.5 6 c 128,-1,6
 146 29 146 29 109 68 c 128,-1,7
 72 107 72 107 51.5 158.5 c 128,-1,8
 31 210 31 210 31 268 c 0,9,10
 31 330 31 330 51 381 c 128,-1,11
 71 432 71 432 107 470.5 c 128,-1,12
 143 509 143 509 193.5 530.5 c 128,-1,13
 244 552 244 552 307 552 c 0,14,15
 380 552 380 552 439 521.5 c 128,-1,16
 498 491 498 491 529 425 c 1,17,-1
 529 742 l 1,18,-1
 599 742 l 1,19,-1
 599 0 l 1,20,-1
 529 0 l 1,0,-1
529 265 m 0,21,22
 529 308 529 308 515 353.5 c 128,-1,23
 501 399 501 399 475 434 c 128,-1,24
 449 469 449 469 411 492 c 128,-1,25
 373 515 373 515 325 515 c 0,26,27
 274 515 274 515 235 493.5 c 128,-1,28
 196 472 196 472 169.5 436 c 128,-1,29
 143 400 143 400 130 355.5 c 128,-1,30
 117 311 117 311 117 265 c 256,31,32
 117 219 117 219 130.5 175.5 c 128,-1,33
 144 132 144 132 171 97.5 c 128,-1,34
 198 63 198 63 236 42 c 128,-1,35
 274 21 274 21 325 21 c 0,36,37
 373 21 373 21 411 42.5 c 128,-1,38
 449 64 449 64 475 98.5 c 128,-1,39
 501 133 501 133 515 177 c 128,-1,40
 529 221 529 221 529 265 c 0,21,22
EndSplineSet
EndChar
StartChar: e
Encoding: 101 101 70
Width: 657
VWidth: 1533
Flags: W
HStem: -17 38<256.084 407.07> 333 38<149 527> 514 36<242.88 406.255>
VStem: 38 92<170.861 279.727 279.727 326.572> 540 75<124.404 190>
Fore
135 333 m 1,0,1
 129 316 129 316 129.5 297.5 c 128,-1,2
 130 279 130 279 130 262 c 0,3,4
 130 213 130 213 144.5 169.5 c 128,-1,5
 159 126 159 126 187.5 93 c 128,-1,6
 216 60 216 60 257.5 40.5 c 128,-1,7
 299 21 299 21 351 21 c 0,8,9
 385 21 385 21 418 34.5 c 128,-1,10
 451 48 451 48 477 71 c 128,-1,11
 503 94 503 94 520 124.5 c 128,-1,12
 537 155 537 155 540 190 c 1,13,-1
 615 190 l 1,14,15
 612 140 612 140 586.5 100.5 c 128,-1,16
 561 61 561 61 523.5 35 c 128,-1,17
 486 9 486 9 441 -4 c 128,-1,18
 396 -17 396 -17 350 -17 c 0,19,20
 290 -17 290 -17 234 3 c 128,-1,21
 178 23 178 23 134 59 c 128,-1,22
 90 95 90 95 64 146.5 c 128,-1,23
 38 198 38 198 38 261 c 0,24,25
 38 325 38 325 61 378 c 128,-1,26
 84 431 84 431 124 469 c 128,-1,27
 164 507 164 507 218.5 528.5 c 128,-1,28
 273 550 273 550 337 550 c 0,29,30
 388 550 388 550 436 537 c 128,-1,31
 484 524 484 524 523.5 497.5 c 128,-1,32
 563 471 563 471 589 429.5 c 128,-1,33
 615 388 615 388 619 333 c 1,34,-1
 135 333 l 1,0,1
527 371 m 1,35,36
 506 435 506 435 453 474.5 c 128,-1,37
 400 514 400 514 331 514 c 0,38,39
 265 514 265 514 215.5 474 c 128,-1,40
 166 434 166 434 149 371 c 1,41,-1
 527 371 l 1,35,36
EndSplineSet
EndChar
StartChar: f
Encoding: 102 102 71
Width: 318
VWidth: 1533
Flags: W
HStem: 0 21G<112 184> 468 39<40 112 184 270> 682 60<229.707 310.595>
VStem: 112 72<0 468 507 553.906>
Fore
342 668 m 1,0,1
 310 682 310 682 284 682 c 0,2,3
 242 682 242 682 213 657.5 c 128,-1,4
 184 633 184 633 184 590 c 2,5,-1
 184 507 l 1,6,-1
 287 507 l 1,7,-1
 270 468 l 1,8,-1
 184 468 l 1,9,-1
 184 0 l 1,10,-1
 112 0 l 1,11,-1
 112 468 l 1,12,-1
 23 468 l 1,13,-1
 40 507 l 1,14,-1
 112 507 l 1,15,16
 112 553 112 553 125 597 c 128,-1,17
 138 641 138 641 164 674 c 128,-1,18
 190 707 190 707 228.5 725.5 c 128,-1,19
 267 744 267 744 320 742 c 2,20,-1
 342 741 l 1,21,-1
 342 668 l 1,0,1
EndSplineSet
EndChar
StartChar: g
Encoding: 103 103 72
Width: 659
VWidth: 1533
Flags: W
HStem: -197 30.5<183.126 217 257 270.043 270.043 289.7 279.871 339.214 331.986 346.442 346.442 385 392.5 455.001> 175 35<270.343 343.039> 509 38<240.391 391.031> 553 68<490.265 570.438>
VStem: 14 81<-114.072 -3.86462> 54 86<311.775 436.719> 113 85<113.776 165.858> 491 84<274.575 413.465> 547 74<-105.112 -5.18317>
Fore
621 -32 m 0,0,1
 621 -87 621 -87 585 -121 c 128,-1,2
 549 -155 549 -155 498.5 -173.5 c 128,-1,3
 448 -192 448 -192 392.5 -198 c 128,-1,4
 337 -204 337 -204 297 -204 c 0,5,6
 265 -204 265 -204 217 -197 c 128,-1,7
 169 -190 169 -190 123.5 -173 c 128,-1,8
 78 -156 78 -156 46 -128 c 128,-1,9
 14 -100 14 -100 14 -55 c 0,10,11
 14 -26 14 -26 31 -6 c 128,-1,12
 48 14 48 14 72.5 27.5 c 128,-1,13
 97 41 97 41 125 49.5 c 128,-1,14
 153 58 153 58 176 63 c 1,15,16
 153 71 153 71 133 85.5 c 128,-1,17
 113 100 113 100 113 126 c 0,18,19
 113 155 113 155 142.5 170.5 c 128,-1,20
 172 186 172 186 199 189 c 1,21,22
 173 198 173 198 147 215.5 c 128,-1,23
 121 233 121 233 100.5 256 c 128,-1,24
 80 279 80 279 67 306 c 128,-1,25
 54 333 54 333 54 360 c 0,26,27
 54 408 54 408 80 443 c 128,-1,28
 106 478 106 478 145 501 c 128,-1,29
 184 524 184 524 229 535.5 c 128,-1,30
 274 547 274 547 314 547 c 0,31,32
 339 547 339 547 362.5 544 c 128,-1,33
 386 541 386 541 409 534 c 1,34,35
 445 583 445 583 488.5 602.5 c 128,-1,36
 532 622 532 622 590 621 c 2,37,-1
 609 621 l 1,38,-1
 609 540 l 1,39,40
 589 546 589 546 571 549.5 c 128,-1,41
 553 553 553 553 537 553 c 0,42,43
 514 553 514 553 489.5 545.5 c 128,-1,44
 465 538 465 538 446 523 c 1,45,46
 471 512 471 512 494 496 c 128,-1,47
 517 480 517 480 535 460 c 128,-1,48
 553 440 553 440 564 414.5 c 128,-1,49
 575 389 575 389 575 360 c 0,50,51
 575 301 575 301 546.5 264.5 c 128,-1,52
 518 228 518 228 475 209 c 128,-1,53
 432 190 432 190 381.5 183 c 128,-1,54
 331 176 331 176 287 175 c 0,55,56
 281 175 281 175 270 174 c 128,-1,57
 259 173 259 173 247.5 171.5 c 128,-1,58
 236 170 236 170 226 168.5 c 128,-1,59
 216 167 216 167 212 166 c 0,60,61
 198 161 198 161 198 147 c 0,62,63
 198 127 198 127 262 118 c 0,64,65
 291 113 291 113 328.5 111 c 128,-1,66
 366 109 366 109 406 104 c 256,67,68
 446 100 446 100 484.5 91.5 c 128,-1,69
 523 83 523 83 553.5 68.5 c 128,-1,70
 584 54 584 54 602.5 29.5 c 128,-1,71
 621 5 621 5 621 -32 c 0,0,1
491 359 m 0,72,73
 491 440 491 440 441.5 474.5 c 128,-1,74
 392 509 392 509 316 509 c 0,75,76
 241 509 241 509 190.5 474.5 c 128,-1,77
 140 440 140 440 140 359 c 0,78,79
 140 319 140 319 153 290.5 c 128,-1,80
 166 262 166 262 189.5 244.5 c 128,-1,81
 213 227 213 227 245.5 218.5 c 128,-1,82
 278 210 278 210 316 210 c 0,83,84
 392 210 392 210 441.5 244.5 c 128,-1,85
 491 279 491 279 491 359 c 0,72,73
547 -61 m 0,86,87
 547 -25 547 -25 522.5 -2.5 c 128,-1,88
 498 20 498 20 463 30.5 c 128,-1,89
 428 41 428 41 389.5 44.5 c 128,-1,90
 351 48 351 48 322 48 c 0,91,92
 291 48 291 48 252 45.5 c 128,-1,93
 213 43 213 43 178 33 c 128,-1,94
 143 23 143 23 119 1 c 128,-1,95
 95 -21 95 -21 95 -61 c 0,96,97
 95 -97 95 -97 120.5 -117.5 c 128,-1,98
 146 -138 146 -138 182 -150.5 c 128,-1,99
 218 -163 218 -163 257 -166.5 c 128,-1,100
 296 -170 296 -170 322 -170 c 0,101,102
 347 -170 347 -170 385 -164.5 c 128,-1,103
 423 -159 423 -159 459 -147 c 128,-1,104
 495 -135 495 -135 521 -113.5 c 128,-1,105
 547 -92 547 -92 547 -61 c 0,86,87
EndSplineSet
EndChar
StartChar: h
Encoding: 104 104 73
Width: 642
VWidth: 1533
Flags: W
HStem: 0 21G<69 140 500 573> 512 38<270.84 374.912> 682 20G<69 140>
VStem: 69 71<0 342.851 435 702> 500 73<0 433.185>
Fore
500 0 m 1,0,-1
 500 371 l 2,1,2
 500 408 500 408 485.5 434 c 128,-1,3
 471 460 471 460 447 477.5 c 128,-1,4
 423 495 423 495 392.5 503.5 c 128,-1,5
 362 512 362 512 328 512 c 0,6,7
 285 512 285 512 250 494.5 c 128,-1,8
 215 477 215 477 190.5 448 c 128,-1,9
 166 419 166 419 153 380.5 c 128,-1,10
 140 342 140 342 140 302 c 2,11,-1
 140 0 l 1,12,-1
 69 0 l 1,13,-1
 69 702 l 1,14,-1
 140 702 l 1,15,-1
 140 435 l 1,16,17
 153 460 153 460 173 481.5 c 128,-1,18
 193 503 193 503 218.5 518.5 c 128,-1,19
 244 534 244 534 271.5 542 c 128,-1,20
 299 550 299 550 328 550 c 0,21,22
 373 550 373 550 417 540 c 128,-1,23
 461 530 461 530 495.5 508 c 128,-1,24
 530 486 530 486 551.5 450 c 128,-1,25
 573 414 573 414 573 362 c 2,26,-1
 573 0 l 1,27,-1
 500 0 l 1,0,-1
EndSplineSet
EndChar
StartChar: i
Encoding: 105 105 74
Width: 272
VWidth: 1533
Flags: W
HStem: 0 21G<100 170> 515 20G<100 170> 604 103<99.9857 173.014>
VStem: 84 105<619.986 692.045> 100 70<0 535>
Fore
189 656 m 256,0,1
 189 635 189 635 173.5 619.5 c 128,-1,2
 158 604 158 604 136 604 c 256,3,4
 115 604 115 604 99.5 619.5 c 128,-1,5
 84 635 84 635 84 656 c 256,6,7
 84 678 84 678 99.5 692.5 c 128,-1,8
 115 707 115 707 136 707 c 256,9,10
 158 707 158 707 173.5 692.5 c 128,-1,11
 189 678 189 678 189 656 c 256,0,1
100 0 m 1,12,-1
 100 535 l 1,13,-1
 170 535 l 1,14,-1
 170 0 l 1,15,-1
 100 0 l 1,12,-1
EndSplineSet
EndChar
StartChar: j
Encoding: 106 106 75
Width: 288
VWidth: 1533
Flags: W
HStem: -189 49<-16.8464 70.9943> 515 20G<118 195> 599 108<119.502 194.983>
VStem: 103 109<616.017 690.499> 118 77<10.2495 49 49 535>
Fore
212 653 m 256,0,1
 212 632 212 632 195.5 615.5 c 128,-1,2
 179 599 179 599 158 599 c 0,3,4
 135 599 135 599 119 615.5 c 128,-1,5
 103 632 103 632 103 653 c 256,6,7
 103 675 103 675 119 691 c 128,-1,8
 135 707 135 707 158 707 c 0,9,10
 179 707 179 707 195.5 691 c 128,-1,11
 212 675 212 675 212 653 c 256,0,1
195 66 m 2,12,13
 195 25 195 25 187 -20.5 c 128,-1,14
 179 -66 179 -66 158.5 -103.5 c 128,-1,15
 138 -141 138 -141 102.5 -165 c 128,-1,16
 67 -189 67 -189 12 -189 c 0,17,18
 -9 -189 -9 -189 -36.5 -182.5 c 128,-1,19
 -64 -176 -64 -176 -86 -161 c 1,20,-1
 -54 -106 l 1,21,22
 -38 -126 -38 -126 -22 -133 c 128,-1,23
 -6 -140 -6 -140 14 -140 c 0,24,25
 49 -140 49 -140 69.5 -121.5 c 128,-1,26
 90 -103 90 -103 101 -74.5 c 128,-1,27
 112 -46 112 -46 115 -13 c 128,-1,28
 118 20 118 20 118 49 c 2,29,-1
 118 535 l 1,30,-1
 195 535 l 1,31,-1
 195 66 l 2,12,13
EndSplineSet
EndChar
StartChar: k
Encoding: 107 107 76
Width: 601
VWidth: 1533
Flags: W
HStem: 0 21G<84 155 489.766 586> 515 20G<429.289 520>
VStem: 84 71<0 244 293 742>
Fore
504 0 m 1,0,-1
 267 333 l 1,1,-1
 155 244 l 1,2,-1
 155 0 l 1,3,-1
 84 0 l 1,4,-1
 84 742 l 1,5,-1
 155 742 l 1,6,-1
 155 293 l 1,7,-1
 454 535 l 1,8,-1
 520 535 l 1,9,-1
 320 376 l 1,10,-1
 586 0 l 1,11,-1
 504 0 l 1,0,-1
EndSplineSet
EndChar
StartChar: l
Encoding: 108 108 77
Width: 239
VWidth: 1533
Flags: W
HStem: 0 742<84 155 84 155 84 84>
VStem: 84 71<0 742>
Fore
84 0 m 1,0,-1
 84 742 l 1,1,-1
 155 742 l 1,2,-1
 155 0 l 1,3,-1
 84 0 l 1,0,-1
EndSplineSet
EndChar
StartChar: m
Encoding: 109 109 78
Width: 1008
VWidth: 1533
Flags: W
HStem: 0 21G<69 140 474 547 866 940> 511 38<241.098 396.232 624.753 776.898>
VStem: 69 71<0 57.4552 73.4673 173.696 173.696 268.33 434 534> 474 73<0 339.614> 866 74<0 438.325>
Fore
866 0 m 1,0,-1
 866 360 l 2,1,2
 866 429 866 429 821 470 c 128,-1,3
 776 511 776 511 707 511 c 0,4,5
 656 511 656 511 624.5 489.5 c 128,-1,6
 593 468 593 468 575.5 434 c 128,-1,7
 558 400 558 400 552.5 357 c 128,-1,8
 547 314 547 314 547 273 c 2,9,-1
 547 0 l 1,10,-1
 474 0 l 1,11,-1
 474 294 l 2,12,13
 474 333 474 333 467 371 c 128,-1,14
 460 409 460 409 443 440 c 128,-1,15
 426 471 426 471 396 491 c 128,-1,16
 366 511 366 511 320 511 c 0,17,18
 276 511 276 511 244.5 494 c 128,-1,19
 213 477 213 477 192.5 448.5 c 128,-1,20
 172 420 172 420 159.5 382.5 c 128,-1,21
 147 345 147 345 141 302 c 256,22,23
 135 259 135 259 133.5 215.5 c 128,-1,24
 132 172 132 172 133 132 c 256,25,26
 135 92 135 92 137.5 58.5 c 128,-1,27
 140 25 140 25 140 0 c 1,28,-1
 69 0 l 1,29,-1
 69 534 l 1,30,-1
 140 534 l 1,31,-1
 140 434 l 1,32,33
 170 492 170 492 220.5 520.5 c 128,-1,34
 271 549 271 549 339 549 c 0,35,36
 411 549 411 549 459 513.5 c 128,-1,37
 507 478 507 478 529 414 c 1,38,39
 552 478 552 478 595.5 513.5 c 128,-1,40
 639 549 639 549 713 549 c 0,41,42
 760 549 760 549 801.5 536.5 c 128,-1,43
 843 524 843 524 874 500.5 c 128,-1,44
 905 477 905 477 922.5 439.5 c 128,-1,45
 940 402 940 402 940 351 c 2,46,-1
 940 0 l 1,47,-1
 866 0 l 1,0,-1
EndSplineSet
EndChar
StartChar: n
Encoding: 110 110 79
Width: 642
VWidth: 1533
Flags: W
HStem: 0 21G<69 140 500 573> 511 38<246.9 374.912>
VStem: 69 71<0 342.351 434 534> 500 73<0 431.185>
Fore
500 0 m 1,0,-1
 500 370 l 2,1,2
 500 406 500 406 485.5 432 c 128,-1,3
 471 458 471 458 447 476 c 128,-1,4
 423 494 423 494 392.5 502.5 c 128,-1,5
 362 511 362 511 328 511 c 0,6,7
 285 511 285 511 250 493 c 128,-1,8
 215 475 215 475 190.5 446 c 128,-1,9
 166 417 166 417 153 379.5 c 128,-1,10
 140 342 140 342 140 301 c 2,11,-1
 140 0 l 1,12,-1
 69 0 l 1,13,-1
 69 534 l 1,14,-1
 140 534 l 1,15,-1
 140 434 l 1,16,17
 166 484 166 484 218 516.5 c 128,-1,18
 270 549 270 549 328 549 c 0,19,20
 373 549 373 549 417 539 c 128,-1,21
 461 529 461 529 495.5 506.5 c 128,-1,22
 530 484 530 484 551.5 448 c 128,-1,23
 573 412 573 412 573 360 c 2,24,-1
 573 0 l 1,25,-1
 500 0 l 1,0,-1
EndSplineSet
EndChar
StartChar: o
Encoding: 111 111 80
Width: 682
VWidth: 1533
Flags: W
HStem: -15 38<242.004 442.75> 509 38<240.206 441.976>
VStem: 38 88<183.884 348.615> 558 86<182.884 349.076>
Fore
644 265 m 0,0,1
 644 201 644 201 620 149 c 128,-1,2
 596 97 596 97 555 61 c 128,-1,3
 514 25 514 25 458.5 5 c 128,-1,4
 403 -15 403 -15 340 -15 c 256,5,6
 278 -15 278 -15 222.5 5 c 128,-1,7
 167 25 167 25 126.5 61 c 128,-1,8
 86 97 86 97 62 149 c 128,-1,9
 38 201 38 201 38 265 c 256,10,11
 38 330 38 330 62 382 c 128,-1,12
 86 434 86 434 127.5 470.5 c 128,-1,13
 169 507 169 507 224 527 c 128,-1,14
 279 547 279 547 342 547 c 0,15,16
 406 547 406 547 461.5 528 c 128,-1,17
 517 509 517 509 557.5 472 c 128,-1,18
 598 435 598 435 621 383 c 128,-1,19
 644 331 644 331 644 265 c 0,0,1
558 265 m 256,20,21
 558 317 558 317 546 362.5 c 128,-1,22
 534 408 534 408 507 440 c 128,-1,23
 480 472 480 472 439.5 490.5 c 128,-1,24
 399 509 399 509 342 509 c 0,25,26
 284 509 284 509 243 490.5 c 128,-1,27
 202 472 202 472 176 440 c 128,-1,28
 150 408 150 408 138 363.5 c 128,-1,29
 126 319 126 319 126 267 c 256,30,31
 126 215 126 215 138 170.5 c 128,-1,32
 150 126 150 126 177 93 c 128,-1,33
 204 60 204 60 244.5 41.5 c 128,-1,34
 285 23 285 23 343 23 c 0,35,36
 400 23 400 23 440.5 41.5 c 128,-1,37
 481 60 481 60 507.5 92 c 128,-1,38
 534 124 534 124 546 168.5 c 128,-1,39
 558 213 558 213 558 265 c 256,20,21
EndSplineSet
EndChar
StartChar: p
Encoding: 112 112 81
Width: 668
VWidth: 1533
Flags: W
HStem: -198 21G<69 140> -20 37<259.146 432.092> 509 38<258.71 433.377>
VStem: 69 57<502.833 532> 69 71<-198 107 178.891 310.125> 553 85<165.575 363.272>
Fore
638 264 m 0,0,1
 638 202 638 202 618 150 c 128,-1,2
 598 98 598 98 562 60.5 c 128,-1,3
 526 23 526 23 475.5 1.5 c 128,-1,4
 425 -20 425 -20 362 -20 c 0,5,6
 288 -20 288 -20 229 10.5 c 128,-1,7
 170 41 170 41 140 107 c 1,8,-1
 140 -198 l 1,9,-1
 69 -198 l 1,10,-1
 69 532 l 1,11,-1
 126 532 l 1,12,-1
 138 432 l 1,13,14
 173 492 173 492 233 519.5 c 128,-1,15
 293 547 293 547 362 547 c 0,16,17
 422 547 422 547 472.5 525 c 128,-1,18
 523 503 523 503 559.5 464 c 128,-1,19
 596 425 596 425 617 373.5 c 128,-1,20
 638 322 638 322 638 264 c 0,0,1
553 267 m 256,21,22
 553 313 553 313 539.5 356 c 128,-1,23
 526 399 526 399 499 433.5 c 128,-1,24
 472 468 472 468 433 488.5 c 128,-1,25
 394 509 394 509 343 509 c 0,26,27
 296 509 296 509 258.5 487.5 c 128,-1,28
 221 466 221 466 194 431.5 c 128,-1,29
 167 397 167 397 153.5 353.5 c 128,-1,30
 140 310 140 310 140 267 c 0,31,32
 140 222 140 222 153.5 177.5 c 128,-1,33
 167 133 167 133 193 98 c 128,-1,34
 219 63 219 63 256.5 40 c 128,-1,35
 294 17 294 17 343 17 c 0,36,37
 394 17 394 17 433 38.5 c 128,-1,38
 472 60 472 60 499 96 c 128,-1,39
 526 132 526 132 539.5 176.5 c 128,-1,40
 553 221 553 221 553 267 c 256,21,22
EndSplineSet
EndChar
StartChar: q
Encoding: 113 113 82
Width: 668
VWidth: 1533
Flags: W
HStem: -198 21G<529 599> -20 37<235.541 410.45> 509 38<235.607 410.373>
VStem: 31 86<165.575 363.272> 529 70<-198 107 178.891 352.656>
Fore
529 -198 m 1,0,-1
 529 107 l 1,1,2
 498 41 498 41 439 10.5 c 128,-1,3
 380 -20 380 -20 307 -20 c 0,4,5
 244 -20 244 -20 193.5 1.5 c 128,-1,6
 143 23 143 23 107 60.5 c 128,-1,7
 71 98 71 98 51 150 c 128,-1,8
 31 202 31 202 31 264 c 0,9,10
 31 322 31 322 51.5 373.5 c 128,-1,11
 72 425 72 425 109 464 c 128,-1,12
 146 503 146 503 196.5 525 c 128,-1,13
 247 547 247 547 307 547 c 0,14,15
 376 547 376 547 435.5 519.5 c 128,-1,16
 495 492 495 492 530 432 c 1,17,-1
 543 532 l 1,18,-1
 599 532 l 1,19,-1
 599 -198 l 1,20,-1
 529 -198 l 1,0,-1
529 267 m 256,21,22
 529 311 529 311 515 354 c 128,-1,23
 501 397 501 397 475 431.5 c 128,-1,24
 449 466 449 466 411 487.5 c 128,-1,25
 373 509 373 509 325 509 c 0,26,27
 274 509 274 509 236 488.5 c 128,-1,28
 198 468 198 468 171 433.5 c 128,-1,29
 144 399 144 399 130.5 356 c 128,-1,30
 117 313 117 313 117 267 c 256,31,32
 117 221 117 221 130.5 176.5 c 128,-1,33
 144 132 144 132 170 96 c 128,-1,34
 196 60 196 60 235 38.5 c 128,-1,35
 274 17 274 17 325 17 c 0,36,37
 374 17 374 17 411.5 39 c 128,-1,38
 449 61 449 61 475 97 c 128,-1,39
 501 133 501 133 515 177.5 c 128,-1,40
 529 222 529 222 529 267 c 256,21,22
EndSplineSet
EndChar
StartChar: r
Encoding: 114 114 83
Width: 366
VWidth: 1533
Flags: W
HStem: 0 21G<69 140> 481 65<288.125 320.908>
VStem: 69 71<0 326.611 415 534>
Fore
340 472 m 1,0,1
 314 481 314 481 296 481 c 0,2,3
 251 481 251 481 221.5 463.5 c 128,-1,4
 192 446 192 446 173.5 417 c 128,-1,5
 155 388 155 388 147.5 351 c 128,-1,6
 140 314 140 314 140 276 c 2,7,-1
 140 0 l 1,8,-1
 69 0 l 1,9,-1
 69 534 l 1,10,-1
 140 534 l 1,11,-1
 140 415 l 1,12,13
 149 443 149 443 169 467.5 c 128,-1,14
 189 492 189 492 215 510.5 c 128,-1,15
 241 529 241 529 270 538 c 128,-1,16
 299 547 299 547 328 546 c 2,17,-1
 351 544 l 1,18,-1
 340 472 l 1,0,1
EndSplineSet
EndChar
StartChar: s
Encoding: 115 115 84
Width: 591
VWidth: 1533
Flags: W
HStem: -18 38<252.97 351.086> 505 35.5<196.235 224.5 246.5 265.745 265.745 273.4 269.572 370.234>
VStem: 38 75<87.8101 133.066> 67 74<357.629 464.827> 478 75<74.4449 184.649 379 427.341>
Fore
553 153 m 0,0,1
 553 101 553 101 528.5 68 c 128,-1,2
 504 35 504 35 466 16 c 128,-1,3
 428 -3 428 -3 382.5 -10.5 c 128,-1,4
 337 -18 337 -18 296 -18 c 0,5,6
 256 -18 256 -18 214.5 -8 c 128,-1,7
 173 2 173 2 136.5 22.5 c 128,-1,8
 100 43 100 43 74 75 c 128,-1,9
 48 107 48 107 38 152 c 1,10,-1
 113 152 l 1,11,12
 118 120 118 120 136.5 95.5 c 128,-1,13
 155 71 155 71 180 54 c 128,-1,14
 205 37 205 37 235 28.5 c 128,-1,15
 265 20 265 20 296 20 c 0,16,17
 325 20 325 20 357 24.5 c 128,-1,18
 389 29 389 29 416 41.5 c 128,-1,19
 443 54 443 54 460.5 76 c 128,-1,20
 478 98 478 98 478 133 c 0,21,22
 478 164 478 164 461.5 182.5 c 128,-1,23
 445 201 445 201 415 213 c 0,24,25
 402 219 402 219 385 223 c 128,-1,26
 368 227 368 227 351 230 c 0,27,28
 333 233 333 233 313.5 237 c 128,-1,29
 294 241 294 241 276 244 c 0,30,31
 238 250 238 250 200.5 259 c 128,-1,32
 163 268 163 268 133.5 285 c 128,-1,33
 104 302 104 302 85.5 329 c 128,-1,34
 67 356 67 356 67 399 c 256,35,36
 67 442 67 442 91 471 c 128,-1,37
 115 500 115 500 149.5 517 c 128,-1,38
 184 534 184 534 224.5 540.5 c 128,-1,39
 265 547 265 547 301 547 c 0,40,41
 340 547 340 547 381 538 c 128,-1,42
 422 529 422 529 456.5 508.5 c 128,-1,43
 491 488 491 488 516 456.5 c 128,-1,44
 541 425 541 425 549 379 c 1,45,-1
 474 379 l 1,46,47
 461 443 461 443 410.5 476 c 128,-1,48
 360 509 360 509 299 509 c 0,49,50
 274 509 274 509 246.5 505 c 128,-1,51
 219 501 219 501 195.5 491 c 128,-1,52
 172 481 172 481 156.5 462 c 128,-1,53
 141 443 141 443 141 414 c 0,54,55
 141 380 141 380 158 360 c 128,-1,56
 175 340 175 340 204 328 c 0,57,58
 235 314 235 314 273 307.5 c 128,-1,59
 311 301 311 301 345 294 c 0,60,61
 383 287 383 287 420 279 c 128,-1,62
 457 271 457 271 487 256 c 128,-1,63
 517 241 517 241 535 216.5 c 128,-1,64
 553 192 553 192 553 153 c 0,0,1
EndSplineSet
EndChar
StartChar: t
Encoding: 116 116 85
Width: 335
VWidth: 1533
Flags: W
HStem: -9 43<217.143 307.484> 468 36<31 104 182 287>
VStem: 112 70<66.9541 96.5 96.5 118.727 118.727 135.954 135.954 468>
Fore
333 9 m 1,0,1
 291 -9 291 -9 248 -9 c 0,2,3
 209 -9 209 -9 182.5 4.5 c 128,-1,4
 156 18 156 18 140 42 c 128,-1,5
 124 66 124 66 118 96.5 c 128,-1,6
 112 127 112 127 112 161 c 2,7,-1
 112 468 l 1,8,-1
 31 468 l 1,9,-1
 31 504 l 1,10,-1
 104 504 l 1,11,-1
 163 656 l 1,12,-1
 182 656 l 1,13,-1
 182 504 l 1,14,-1
 287 504 l 1,15,-1
 287 468 l 1,16,-1
 182 468 l 1,17,-1
 182 138 l 2,18,19
 182 118 182 118 184.5 99.5 c 128,-1,20
 187 81 187 81 195.5 66.5 c 128,-1,21
 204 52 204 52 218.5 43 c 128,-1,22
 233 34 233 34 256 34 c 0,23,24
 276 34 276 34 293.5 40 c 128,-1,25
 311 46 311 46 333 57 c 1,26,-1
 333 9 l 1,0,1
EndSplineSet
EndChar
StartChar: u
Encoding: 117 117 86
Width: 642
VWidth: 1533
Flags: W
HStem: -17 38<267.749 395.681> 514 20G<69 143 503 573>
VStem: 69 74<101.33 534> 503 70<0 100 192.282 534>
Fore
503 0 m 1,0,-1
 503 100 l 1,1,2
 477 51 477 51 423.5 17 c 128,-1,3
 370 -17 370 -17 314 -17 c 0,4,5
 270 -17 270 -17 225.5 -7 c 128,-1,6
 181 3 181 3 146.5 25.5 c 128,-1,7
 112 48 112 48 90.5 84 c 128,-1,8
 69 120 69 120 69 172 c 2,9,-1
 69 534 l 1,10,-1
 143 534 l 1,11,-1
 143 163 l 2,12,13
 143 127 143 127 157.5 100.5 c 128,-1,14
 172 74 172 74 195.5 56 c 128,-1,15
 219 38 219 38 250 29.5 c 128,-1,16
 281 21 281 21 314 21 c 0,17,18
 357 21 357 21 392.5 39 c 128,-1,19
 428 57 428 57 452.5 87 c 128,-1,20
 477 117 477 117 490 155 c 128,-1,21
 503 193 503 193 503 233 c 2,22,-1
 503 534 l 1,23,-1
 573 534 l 1,24,-1
 573 0 l 1,25,-1
 503 0 l 1,0,-1
EndSplineSet
EndChar
StartChar: v
Encoding: 118 118 87
Width: 579
VWidth: 1533
Flags: W
HStem: -17 21G<276.764 307.091> 514 20G<5 94.3417 523.841 575>
Fore
297 -17 m 1,0,-1
 287 -17 l 1,1,-1
 5 534 l 1,2,-1
 84 534 l 1,3,-1
 311 95 l 1,4,-1
 534 534 l 1,5,-1
 575 534 l 1,6,-1
 297 -17 l 1,0,-1
EndSplineSet
EndChar
StartChar: w
Encoding: 119 119 88
Width: 898
VWidth: 1533
Flags: W
HStem: -17 21G<248.817 276.458 624.402 653.074> 514 20G<5 90.0909 450.063 477.578 843.167 894>
Fore
644 -17 m 1,0,-1
 633 -17 l 1,1,-1
 449 411 l 1,2,-1
 268 -17 l 1,3,-1
 258 -17 l 1,4,-1
 5 534 l 1,5,-1
 81 534 l 1,6,-1
 281 94 l 1,7,-1
 458 540 l 1,8,-1
 469 540 l 1,9,-1
 659 97 l 1,10,-1
 852 534 l 1,11,-1
 894 534 l 1,12,-1
 644 -17 l 1,0,-1
EndSplineSet
EndChar
StartChar: x
Encoding: 120 120 89
Width: 544
VWidth: 1533
Flags: W
HStem: 0 21G<5 67.9038 439.929 540> 514 20G<5 103.727 440.091 503>
Fore
457 0 m 1,0,-1
 253 239 l 1,1,-1
 51 0 l 1,2,-1
 5 0 l 1,3,-1
 230 267 l 1,4,-1
 5 534 l 1,5,-1
 87 534 l 1,6,-1
 271 314 l 1,7,-1
 457 534 l 1,8,-1
 503 534 l 1,9,-1
 294 288 l 1,10,-1
 540 0 l 1,11,-1
 457 0 l 1,0,-1
EndSplineSet
EndChar
StartChar: y
Encoding: 121 121 90
Width: 584
VWidth: 1533
Flags: W
HStem: -202 49<77.0332 163.398> 514 20G<5 94.3604 526.955 580>
Fore
106 -202 m 0,0,1
 84 -202 84 -202 58 -196 c 128,-1,2
 32 -190 32 -190 11 -175 c 1,3,-1
 43 -120 l 1,4,5
 58 -140 58 -140 74 -146.5 c 128,-1,6
 90 -153 90 -153 110 -153 c 0,7,8
 136 -153 136 -153 163 -138 c 128,-1,9
 190 -123 190 -123 212.5 -99 c 128,-1,10
 235 -75 235 -75 248.5 -46.5 c 128,-1,11
 262 -18 262 -18 262 6 c 0,12,13
 262 23 262 23 256.5 38.5 c 128,-1,14
 251 54 251 54 244 71 c 2,15,-1
 5 534 l 1,16,-1
 84 534 l 1,17,-1
 314 90 l 1,18,-1
 537 534 l 1,19,-1
 580 534 l 1,20,-1
 304 -15 l 2,21,22
 285 -51 285 -51 264.5 -84.5 c 128,-1,23
 244 -118 244 -118 218.5 -144 c 128,-1,24
 193 -170 193 -170 165.5 -186 c 128,-1,25
 138 -202 138 -202 106 -202 c 0,0,1
EndSplineSet
EndChar
StartChar: z
Encoding: 122 122 91
Width: 544
VWidth: 1533
Flags: W
HStem: 0 40<130 495> 495 39<77 415>
Fore
130 40 m 1,0,-1
 512 40 l 1,1,-1
 495 0 l 1,2,-1
 15 0 l 1,3,-1
 415 495 l 1,4,-1
 64 495 l 1,5,-1
 77 534 l 1,6,-1
 529 534 l 1,7,-1
 130 40 l 1,0,-1
EndSplineSet
EndChar
StartChar: braceleft
Encoding: 123 123 92
Width: 387
VWidth: 1533
Flags: W
HStem: -209 19<257.185 314> 721 20<256.667 314>
VStem: 74 240<-209 265 228.104 332.835> 149 81<-96.5225 -32.3961 -32.3961 72.3346 72.3346 75.0406 75.0406 114 125.5 206.231 325.414 366.5 366.5 405.15 405.15 407.5 444 460.423 460.423 485.75 485.75 564.396 564.396 567.304 567.304 673.934>
Fore
314 -209 m 1,0,1
 232 -209 232 -209 197.5 -178 c 128,-1,2
 163 -147 163 -147 153 -99.5 c 128,-1,3
 143 -52 143 -52 149 4.5 c 128,-1,4
 155 61 155 61 155.5 114 c 128,-1,5
 156 167 156 167 141 207.5 c 128,-1,6
 126 248 126 248 74 265 c 1,7,8
 112 278 112 278 129.5 304.5 c 128,-1,9
 147 331 147 331 152.5 366.5 c 128,-1,10
 158 402 158 402 155 444 c 128,-1,11
 152 486 152 486 149 527.5 c 128,-1,12
 146 569 146 569 149 607 c 128,-1,13
 152 645 152 645 168 675 c 128,-1,14
 184 705 184 705 218.5 723 c 128,-1,15
 253 741 253 741 314 741 c 1,16,-1
 314 721 l 1,17,18
 267 721 267 721 250 691 c 128,-1,19
 233 661 233 661 230.5 615 c 128,-1,20
 228 569 228 569 233 513.5 c 128,-1,21
 238 458 238 458 233 407.5 c 128,-1,22
 228 357 228 357 207.5 318 c 128,-1,23
 187 279 187 279 133 267 c 1,24,25
 186 255 186 255 207 215.5 c 128,-1,26
 228 176 228 176 232 125.5 c 128,-1,27
 236 75 236 75 231.5 19 c 128,-1,28
 227 -37 227 -37 230 -83.5 c 128,-1,29
 233 -130 233 -130 250 -160 c 128,-1,30
 267 -190 267 -190 314 -190 c 1,31,-1
 314 -209 l 1,0,1
EndSplineSet
EndChar
StartChar: bar
Encoding: 124 124 93
Width: 263
VWidth: 1533
Flags: W
HStem: -279 1118<100 164 100 164 100 100>
VStem: 100 64<-279 839>
Fore
100 -279 m 1,0,-1
 100 839 l 1,1,-1
 164 839 l 1,2,-1
 164 -279 l 1,3,-1
 100 -279 l 1,0,-1
EndSplineSet
EndChar
StartChar: braceright
Encoding: 125 125 94
Width: 387
VWidth: 1533
Flags: W
HStem: -209 19<74 130.262> 721 20<74 130.262>
VStem: 154 84<-99.0443 -32.6384 -32.6384 3 3 71.5769 71.5769 76.5288 76.5288 205.716 324.315 453.122 453.122 460.423 460.423 564.396 564.396 630.013>
Fore
314 265 m 1,0,1
 262 248 262 248 246 207 c 128,-1,2
 230 166 230 166 231 113 c 128,-1,3
 232 60 232 60 238 3 c 128,-1,4
 244 -54 244 -54 234.5 -100.5 c 128,-1,5
 225 -147 225 -147 190 -178 c 128,-1,6
 155 -209 155 -209 74 -209 c 1,7,-1
 74 -190 l 1,8,9
 120 -190 120 -190 136.5 -160 c 128,-1,10
 153 -130 153 -130 155.5 -83.5 c 128,-1,11
 158 -37 158 -37 154 18.5 c 128,-1,12
 150 74 150 74 154 124.5 c 128,-1,13
 158 175 158 175 178.5 214 c 128,-1,14
 199 253 199 253 253 267 c 1,15,16
 199 279 199 279 178.5 318 c 128,-1,17
 158 357 158 357 154 407.5 c 128,-1,18
 150 458 150 458 154 513.5 c 128,-1,19
 158 569 158 569 155.5 615 c 128,-1,20
 153 661 153 661 136.5 691 c 128,-1,21
 120 721 120 721 74 721 c 1,22,-1
 74 741 l 1,23,24
 155 741 155 741 190 710 c 128,-1,25
 225 679 225 679 234.5 631.5 c 128,-1,26
 244 584 244 584 238 526.5 c 128,-1,27
 232 469 232 469 231 417 c 128,-1,28
 230 365 230 365 246 323 c 128,-1,29
 262 281 262 281 314 265 c 1,0,1
EndSplineSet
EndChar
StartChar: asciitilde
Encoding: 126 126 95
Width: 686
VWidth: 1533
Flags: W
HStem: 222 62<431.244 516.249> 297 63<177.541 258.862>
Fore
603 317 m 1,0,1
 575 279 575 279 543.5 250.5 c 128,-1,2
 512 222 512 222 461 222 c 0,3,4
 429 222 429 222 400 233.5 c 128,-1,5
 371 245 371 245 343.5 259.5 c 128,-1,6
 316 274 316 274 286 285.5 c 128,-1,7
 256 297 256 297 221 297 c 0,8,9
 181 297 181 297 162 272 c 128,-1,10
 143 247 143 247 124 218 c 1,11,-1
 84 265 l 1,12,13
 100 285 100 285 113 302.5 c 128,-1,14
 126 320 126 320 142 333.5 c 128,-1,15
 158 347 158 347 178.5 353.5 c 128,-1,16
 199 360 199 360 227 360 c 0,17,18
 258 360 258 360 289 348 c 128,-1,19
 320 336 320 336 351 322 c 128,-1,20
 382 308 382 308 410 296 c 128,-1,21
 438 284 438 284 463 284 c 0,22,23
 498 284 498 284 521 310.5 c 128,-1,24
 544 337 544 337 561 363 c 1,25,-1
 603 317 l 1,0,1
EndSplineSet
EndChar
StartChar: uni0E33.alt1
Encoding: 65539 -1 96
Width: 573
VWidth: 1533
Flags: W
HStem: 0 21G<420 497> 593 31<170.768 346.085> 690 37<-401.491 -288.509> 895 40<-401.491 -288.509>
VStem: -468 39<754.856 867.418> -261 39<754.856 867.418> 420 77<0 515.312>
Fore
-222 813 m 256,0,1
 -222 762 -222 762 -258 726 c 128,-1,2
 -294 690 -294 690 -345 690 c 256,3,4
 -396 690 -396 690 -432 726 c 128,-1,5
 -468 762 -468 762 -468 813 c 256,6,7
 -468 863 -468 863 -432 899 c 128,-1,8
 -396 935 -396 935 -345 935 c 256,9,10
 -294 935 -294 935 -258 899 c 128,-1,11
 -222 863 -222 863 -222 813 c 256,0,1
420 0 m 1,12,-1
 420 422 l 2,13,14
 420 495 420 495 379.5 544 c 128,-1,15
 339 593 339 593 255 593 c 0,16,17
 209 593 209 593 177.5 579.5 c 128,-1,18
 146 566 146 566 125 543 c 128,-1,19
 104 520 104 520 92.5 492.5 c 128,-1,20
 81 465 81 465 77 437 c 1,21,-1
 -2 437 l 1,22,23
 12 518 12 518 77.5 571 c 128,-1,24
 143 624 143 624 255 624 c 0,25,26
 365 624 365 624 431 573.5 c 128,-1,27
 497 523 497 523 497 412 c 2,28,-1
 497 0 l 1,29,-1
 420 0 l 1,12,-1
-261 811 m 256,30,31
 -261 846 -261 846 -285.5 870.5 c 128,-1,32
 -310 895 -310 895 -345 895 c 256,33,34
 -380 895 -380 895 -404.5 870.5 c 128,-1,35
 -429 846 -429 846 -429 811 c 256,36,37
 -429 776 -429 776 -404.5 751.5 c 128,-1,38
 -380 727 -380 727 -345 727 c 256,39,40
 -310 727 -310 727 -285.5 751.5 c 128,-1,41
 -261 776 -261 776 -261 811 c 256,30,31
EndSplineSet
EndChar
StartChar: quotedbl
Encoding: 34 34 97
Width: 377
VWidth: 1533
Flags: W
HStem: 386 351<100 115 262 278>
VStem: 69 77<607.866 709.882> 232 76<606.81 709.371>
Fore
308 688 m 0,0,1
 308 615 308 615 296.5 537.5 c 128,-1,2
 285 460 285 460 278 386 c 1,3,-1
 262 386 l 1,4,5
 255 460 255 460 243.5 537.5 c 128,-1,6
 232 615 232 615 232 688 c 0,7,8
 232 707 232 707 240 722 c 128,-1,9
 248 737 248 737 270 737 c 256,10,11
 291 737 291 737 299.5 721 c 128,-1,12
 308 705 308 705 308 688 c 0,0,1
146 688 m 0,13,14
 146 615 146 615 134.5 537.5 c 128,-1,15
 123 460 123 460 115 386 c 1,16,-1
 100 386 l 1,17,18
 92 460 92 460 80.5 538 c 128,-1,19
 69 616 69 616 69 690 c 0,20,21
 69 708 69 708 78 722.5 c 128,-1,22
 87 737 87 737 109 737 c 256,23,24
 130 737 130 737 138 721 c 128,-1,25
 146 705 146 705 146 688 c 0,13,14
EndSplineSet
EndChar
StartChar: exclam
Encoding: 33 33 98
Width: 315
VWidth: 1533
Flags: W
HStem: -15 102<124.986 196.015> 719 20G<150 168.5>
VStem: 103 109.5<0.470459 72.0453 389.062 657.454 657.454 672.469>
Fore
213 642 m 0,0,1
 207 514 207 514 191.5 385 c 128,-1,2
 176 256 176 256 164 129 c 1,3,-1
 152 129 l 1,4,5
 140 255 140 255 121.5 385 c 128,-1,6
 103 515 103 515 103 642 c 0,7,8
 103 656 103 656 104.5 673 c 128,-1,9
 106 690 106 690 112 704.5 c 128,-1,10
 118 719 118 719 129.5 729 c 128,-1,11
 141 739 141 739 159 739 c 256,12,13
 178 739 178 739 188.5 729 c 128,-1,14
 199 719 199 719 205.5 704.5 c 128,-1,15
 212 690 212 690 212.5 673 c 128,-1,16
 213 656 213 656 213 642 c 0,0,1
212 37 m 256,17,18
 212 15 212 15 197 0 c 128,-1,19
 182 -15 182 -15 161 -15 c 256,20,21
 140 -15 140 -15 124.5 0 c 128,-1,22
 109 15 109 15 109 37 c 256,23,24
 109 58 109 58 124.5 72.5 c 128,-1,25
 140 87 140 87 161 87 c 0,26,27
 181 87 181 87 196.5 72.5 c 128,-1,28
 212 58 212 58 212 37 c 256,17,18
EndSplineSet
EndChar
StartChar: uni0E4E.alt1
Encoding: 65540 -1 99
Width: 0
VWidth: 1533
Flags: W
HStem: 653 31<-253.569 -214.991> 828 18<-249.702 -204> 972 31<-237.5 -221.217 -218.78 -190.142 -190.142 -146>
VStem: -440 90<709.793 782.664> -354 78<875.252 963.188>
Fore
-138 1006 m 1,0,-1
 -146 977 l 1,1,2
 -199 986 -199 986 -237.5 972 c 128,-1,3
 -276 958 -276 958 -276 915 c 0,4,5
 -276 892 -276 892 -250.5 872 c 128,-1,6
 -225 852 -225 852 -195 851 c 1,7,-1
 -204 828 l 1,8,9
 -232 825 -232 825 -258.5 819.5 c 128,-1,10
 -285 814 -285 814 -305 803.5 c 128,-1,11
 -325 793 -325 793 -337.5 778.5 c 128,-1,12
 -350 764 -350 764 -350 742 c 0,13,14
 -350 725 -350 725 -337 713 c 128,-1,15
 -324 701 -324 701 -302.5 694 c 128,-1,16
 -281 687 -281 687 -254.5 684 c 128,-1,17
 -228 681 -228 681 -202 684 c 1,18,-1
 -213 653 l 1,19,20
 -251 649 -251 649 -291 648 c 128,-1,21
 -331 647 -331 647 -364 656 c 128,-1,22
 -397 665 -397 665 -418.5 686 c 128,-1,23
 -440 707 -440 707 -440 742 c 0,24,25
 -440 793 -440 793 -392.5 816.5 c 128,-1,26
 -345 840 -345 840 -276 846 c 1,27,28
 -302 854 -302 854 -328 868.5 c 128,-1,29
 -354 883 -354 883 -354 921 c 0,30,31
 -354 954 -354 954 -336.5 974 c 128,-1,32
 -319 994 -319 994 -289 1003 c 128,-1,33
 -259 1012 -259 1012 -220 1012.5 c 128,-1,34
 -181 1013 -181 1013 -138 1006 c 1,0,-1
EndSplineSet
EndChar
StartChar: exclamdown
Encoding: 161 161 100
Width: 286
VWidth: 1533
Flags: W
HStem: 498 103<105.47 177.53>
VStem: 90 108<-101.757 -53.5154 -53.5154 -52.2423 -52.2423 4.80208 513.986 586.045>
Fore
136 460 m 1,0,-1
 150 460 l 1,1,-1
 198 -31 l 2,2,3
 199 -52 199 -52 198.5 -73.5 c 128,-1,4
 198 -95 198 -95 192 -112.5 c 128,-1,5
 186 -130 186 -130 174.5 -141.5 c 128,-1,6
 163 -153 163 -153 143 -153 c 256,7,8
 123 -153 123 -153 112 -142.5 c 128,-1,9
 101 -132 101 -132 95.5 -115 c 128,-1,10
 90 -98 90 -98 89.5 -76 c 128,-1,11
 89 -54 89 -54 90 -31 c 2,12,-1
 136 460 l 1,0,-1
90 550 m 256,13,14
 90 572 90 572 105 586.5 c 128,-1,15
 120 601 120 601 141 601 c 256,16,17
 163 601 163 601 178 586.5 c 128,-1,18
 193 572 193 572 193 550 c 256,19,20
 193 529 193 529 178 513.5 c 128,-1,21
 163 498 163 498 141 498 c 256,22,23
 120 498 120 498 105 513.5 c 128,-1,24
 90 529 90 529 90 550 c 256,13,14
EndSplineSet
EndChar
StartChar: cent
Encoding: 162 162 101
Width: 601
VWidth: 1533
Flags: W
HStem: -18 21G<320 359> 95 32<264.548 320> 560 29<264.033 320 359 417.297> 687 20G<320 359>
VStem: 74 79<253.572 432.217> 320 39<-18 95 589 707>
Fore
359 -18 m 1,0,-1
 320 -18 l 1,1,-1
 320 95 l 1,2,3
 270 98 270 98 224.5 118 c 128,-1,4
 179 138 179 138 146 170 c 128,-1,5
 113 202 113 202 93.5 246 c 128,-1,6
 74 290 74 290 74 342 c 256,7,8
 74 394 74 394 93.5 437.5 c 128,-1,9
 113 481 113 481 146 513.5 c 128,-1,10
 179 546 179 546 224.5 566 c 128,-1,11
 270 586 270 586 320 589 c 1,12,-1
 320 707 l 1,13,-1
 359 707 l 1,14,-1
 359 589 l 1,15,16
 434 584 434 584 493 549.5 c 128,-1,17
 552 515 552 515 570 448 c 1,18,-1
 495 448 l 1,19,20
 472 504 472 504 428.5 532 c 128,-1,21
 385 560 385 560 336 560 c 0,22,23
 296 560 296 560 263 543 c 128,-1,24
 230 526 230 526 205.5 497 c 128,-1,25
 181 468 181 468 167 429.5 c 128,-1,26
 153 391 153 391 153 348 c 0,27,28
 153 299 153 299 167 258.5 c 128,-1,29
 181 218 181 218 205.5 188.5 c 128,-1,30
 230 159 230 159 263.5 143 c 128,-1,31
 297 127 297 127 336 127 c 0,32,33
 386 127 386 127 430 154 c 128,-1,34
 474 181 474 181 495 238 c 1,35,-1
 570 238 l 1,36,37
 552 169 552 169 493 134.5 c 128,-1,38
 434 100 434 100 359 95 c 1,39,-1
 359 -18 l 1,0,-1
EndSplineSet
EndChar
StartChar: sterling
Encoding: 163 163 102
Width: 716
VWidth: 1533
Flags: W
HStem: -18 84<508.452 599.655> -15 41<84.719 180.114> 166 26<107.571 196.458 193.546 199.37 199.37 217.5 221 263.312> 348 34<156 238 343 503> 547 21G<549 603.613> 664 29<325.733 483.434>
VStem: -14 71<38.2078 124.162> 221 57<458.301 591.399> 271 86<181.28 267.687>
Fore
264 149 m 1,0,1
 242 158 242 158 217.5 162 c 128,-1,2
 193 166 193 166 166 166 c 0,3,4
 121 166 121 166 89 143 c 128,-1,5
 57 120 57 120 57 78 c 0,6,7
 57 49 57 49 80 37.5 c 128,-1,8
 103 26 103 26 136 26 c 0,9,10
 179 26 179 26 215 61.5 c 128,-1,11
 251 97 251 97 264 149 c 1,0,1
238 382 m 1,12,13
 230 405 230 405 225.5 429.5 c 128,-1,14
 221 454 221 454 221 484 c 0,15,16
 221 581 221 581 274 637 c 128,-1,17
 327 693 327 693 419 693 c 0,18,19
 489 693 489 693 543.5 667.5 c 128,-1,20
 598 642 598 642 632 578 c 1,21,-1
 552 547 l 1,22,23
 546 606 546 606 497.5 635 c 128,-1,24
 449 664 449 664 392 664 c 0,25,26
 347 664 347 664 312.5 631 c 128,-1,27
 278 598 278 598 278 557 c 0,28,29
 278 503 278 503 295.5 462.5 c 128,-1,30
 313 422 313 422 330 382 c 1,31,-1
 518 382 l 1,32,-1
 503 348 l 1,33,-1
 343 348 l 1,34,35
 350 327 350 327 353.5 304.5 c 128,-1,36
 357 282 357 282 357 256 c 0,37,38
 357 210 357 210 334 164 c 1,39,40
 371 150 371 150 401.5 132.5 c 128,-1,41
 432 115 432 115 459 100.5 c 128,-1,42
 486 86 486 86 511.5 76 c 128,-1,43
 537 66 537 66 563 66 c 0,44,45
 618 66 618 66 650 98 c 128,-1,46
 682 130 682 130 702 175 c 1,47,-1
 719 169 l 1,48,49
 710 133 710 133 693 99.5 c 128,-1,50
 676 66 676 66 651.5 40 c 128,-1,51
 627 14 627 14 595 -2 c 128,-1,52
 563 -18 563 -18 523 -18 c 0,53,54
 491 -18 491 -18 465.5 -4.5 c 128,-1,55
 440 9 440 9 415.5 30.5 c 128,-1,56
 391 52 391 52 365.5 76.5 c 128,-1,57
 340 101 340 101 311 123 c 1,58,59
 271 66 271 66 212 25.5 c 128,-1,60
 153 -15 153 -15 92 -15 c 0,61,62
 74 -15 74 -15 54.5 -9 c 128,-1,63
 35 -3 35 -3 20 8.5 c 128,-1,64
 5 20 5 20 -4.5 34.5 c 128,-1,65
 -14 49 -14 49 -14 67 c 0,66,67
 -14 97 -14 97 2 120.5 c 128,-1,68
 18 144 18 144 43.5 159.5 c 128,-1,69
 69 175 69 175 101 183.5 c 128,-1,70
 133 192 133 192 166 192 c 0,71,72
 195 192 195 192 221 189 c 128,-1,73
 247 186 247 186 270 181 c 1,74,75
 271 190 271 190 271 194.5 c 0,76,-1
 271 218 l 0,77,78
 271 258 271 258 263.5 289 c 128,-1,79
 256 320 256 320 247 348 c 1,80,-1
 141 348 l 1,81,-1
 156 382 l 1,82,-1
 238 382 l 1,12,13
EndSplineSet
EndChar
StartChar: currency
Encoding: 164 164 103
Width: 716
VWidth: 1533
Flags: W
HStem: 69 52<267.329 445.171> 566 50<267.814 444.671>
VStem: 83 50<253.829 431.913> 578 52<254.814 431.186>
Fore
356 566 m 256,0,1
 310 566 310 566 269 548 c 128,-1,2
 228 530 228 530 198.5 499.5 c 128,-1,3
 169 469 169 469 151 429 c 128,-1,4
 133 389 133 389 133 343 c 256,5,6
 133 297 133 297 151 256.5 c 128,-1,7
 169 216 169 216 198.5 186 c 128,-1,8
 228 156 228 156 269 138.5 c 128,-1,9
 310 121 310 121 356 121 c 256,10,11
 402 121 402 121 442.5 138.5 c 128,-1,12
 483 156 483 156 513 186 c 128,-1,13
 543 216 543 216 560.5 256.5 c 128,-1,14
 578 297 578 297 578 343 c 256,15,16
 578 389 578 389 560.5 429 c 128,-1,17
 543 469 543 469 513 499.5 c 128,-1,18
 483 530 483 530 442.5 548 c 128,-1,19
 402 566 402 566 356 566 c 256,0,1
530 132 m 1,20,21
 495 101 495 101 450.5 85 c 128,-1,22
 406 69 406 69 356 69 c 0,23,24
 307 69 307 69 263 85 c 128,-1,25
 219 101 219 101 184 129 c 1,26,-1
 124 69 l 1,27,-1
 84 109 l 1,28,-1
 144 169 l 1,29,30
 115 204 115 204 99 248.5 c 128,-1,31
 83 293 83 293 83 343 c 0,32,33
 83 392 83 392 99 437.5 c 128,-1,34
 115 483 115 483 146 518 c 1,35,-1
 84 578 l 1,36,-1
 124 618 l 1,37,-1
 186 558 l 1,38,39
 221 586 221 586 264 601 c 128,-1,40
 307 616 307 616 356 616 c 256,41,42
 405 616 405 616 449.5 600 c 128,-1,43
 494 584 494 584 529 555 c 1,44,-1
 592 618 l 1,45,-1
 632 578 l 1,46,-1
 569 515 l 1,47,48
 598 480 598 480 614 436 c 128,-1,49
 630 392 630 392 630 343 c 256,50,51
 630 294 630 294 614 250.5 c 128,-1,52
 598 207 598 207 570 172 c 1,53,-1
 633 109 l 1,54,-1
 593 69 l 1,55,-1
 530 132 l 1,20,21
EndSplineSet
EndChar
StartChar: yen
Encoding: 165 165 104
Width: 702
VWidth: 1533
Flags: W
HStem: 181 29<135 302 383 553> 302 29<135 284 386 553>
VStem: 302 81<2 181 210 302>
Fore
386 331 m 1,0,-1
 553 331 l 1,1,-1
 553 302 l 1,2,-1
 383 302 l 1,3,-1
 383 210 l 1,4,-1
 553 210 l 1,5,-1
 553 181 l 1,6,-1
 383 181 l 1,7,-1
 383 2 l 1,8,-1
 302 2 l 1,9,-1
 302 181 l 1,10,-1
 135 181 l 1,11,-1
 135 210 l 1,12,-1
 302 210 l 1,13,-1
 302 302 l 1,14,-1
 135 302 l 1,15,-1
 135 331 l 1,16,-1
 284 331 l 1,17,-1
 8 698 l 1,18,-1
 97 698 l 1,19,-1
 359 350 l 1,20,-1
 647 698 l 1,21,-1
 695 698 l 1,22,-1
 386 331 l 1,0,-1
EndSplineSet
EndChar
StartChar: brokenbar
Encoding: 166 166 105
Width: 246
VWidth: 1533
Flags: W
HStem: -196 21G<95 152>
VStem: 95 57<-196 190 370 754>
Fore
95 754 m 1,0,-1
 152 754 l 1,1,-1
 152 370 l 1,2,-1
 95 370 l 1,3,-1
 95 754 l 1,0,-1
95 190 m 1,4,-1
 152 190 l 1,5,-1
 152 -196 l 1,6,-1
 95 -196 l 1,7,-1
 95 190 l 1,4,-1
EndSplineSet
EndChar
StartChar: section
Encoding: 167 167 106
Width: 613
VWidth: 1533
Flags: W
HStem: -175 34<245.472 335.858> 710 29<261.214 406.003>
VStem: 69 83<259.515 383.185> 124 72<528.679 652.616> 465 84<-65.7703 48.9145 203.364 328.003>
Fore
179 452 m 1,0,1
 153 472 153 472 138.5 501 c 128,-1,2
 124 530 124 530 124 575 c 0,3,4
 124 618 124 618 141.5 649.5 c 128,-1,5
 159 681 159 681 188.5 701 c 128,-1,6
 218 721 218 721 254 730 c 128,-1,7
 290 739 290 739 327 739 c 0,8,9
 392 739 392 739 450.5 709 c 128,-1,10
 509 679 509 679 535 595 c 1,11,-1
 463 595 l 1,12,13
 448 659 448 659 412 684.5 c 128,-1,14
 376 710 376 710 327 710 c 0,15,16
 268 710 268 710 232 683 c 128,-1,17
 196 656 196 656 196 595 c 0,18,19
 196 550 196 550 222 524 c 128,-1,20
 248 498 248 498 286.5 481.5 c 128,-1,21
 325 465 325 465 371 451.5 c 128,-1,22
 417 438 417 438 455.5 419 c 128,-1,23
 494 400 494 400 520 368.5 c 128,-1,24
 546 337 546 337 546 285 c 256,25,26
 546 233 546 233 523.5 201 c 128,-1,27
 501 169 501 169 471 152 c 1,28,29
 506 133 506 133 527.5 99.5 c 128,-1,30
 549 66 549 66 549 20 c 0,31,32
 549 -28 549 -28 526.5 -64.5 c 128,-1,33
 504 -101 504 -101 467.5 -125.5 c 128,-1,34
 431 -150 431 -150 383.5 -162.5 c 128,-1,35
 336 -175 336 -175 285 -175 c 0,36,37
 244 -175 244 -175 201.5 -162.5 c 128,-1,38
 159 -150 159 -150 124.5 -125.5 c 128,-1,39
 90 -101 90 -101 67 -66.5 c 128,-1,40
 44 -32 44 -32 40 14 c 1,41,-1
 123 14 l 1,42,43
 124 -26 124 -26 138 -54.5 c 128,-1,44
 152 -83 152 -83 174 -103 c 128,-1,45
 196 -123 196 -123 225.5 -132 c 128,-1,46
 255 -141 255 -141 285 -141 c 0,47,48
 322 -141 322 -141 355 -134 c 128,-1,49
 388 -127 388 -127 411.5 -111 c 128,-1,50
 435 -95 435 -95 450 -69 c 128,-1,51
 465 -43 465 -43 465 -3 c 0,52,53
 465 41 465 41 435.5 65 c 128,-1,54
 406 89 406 89 361.5 103.5 c 128,-1,55
 317 118 317 118 266.5 129 c 128,-1,56
 216 140 216 140 171.5 158 c 128,-1,57
 127 176 127 176 98 210 c 128,-1,58
 69 244 69 244 69 304 c 0,59,60
 69 360 69 360 100.5 396 c 128,-1,61
 132 432 132 432 179 452 c 1,0,1
472 264 m 0,62,63
 472 310 472 310 444.5 333.5 c 128,-1,64
 417 357 417 357 376.5 372.5 c 128,-1,65
 336 388 336 388 288.5 400 c 128,-1,66
 241 412 241 412 202 434 c 1,67,68
 175 417 175 417 163.5 389.5 c 128,-1,69
 152 362 152 362 152 322 c 0,70,71
 152 278 152 278 179.5 254 c 128,-1,72
 207 230 207 230 249 216 c 128,-1,73
 291 202 291 202 341 193 c 128,-1,74
 391 184 391 184 435 167 c 1,75,76
 457 181 457 181 464.5 204 c 128,-1,77
 472 227 472 227 472 264 c 0,62,63
EndSplineSet
EndChar
StartChar: dieresis
Encoding: 168 168 107
Width: 392
VWidth: 1533
Flags: W
HStem: 673 112<61.5327 139.498 252.502 331.498>
VStem: 44 112<689.502 767.467> 236 112<689.502 767.467>
Fore
44 728 m 256,0,1
 44 751 44 751 61 768 c 128,-1,2
 78 785 78 785 101 785 c 256,3,4
 124 785 124 785 140 768 c 128,-1,5
 156 751 156 751 156 728 c 256,6,7
 156 705 156 705 140 689 c 128,-1,8
 124 673 124 673 101 673 c 256,9,10
 78 673 78 673 61 689 c 128,-1,11
 44 705 44 705 44 728 c 256,0,1
236 728 m 256,12,13
 236 751 236 751 252 768 c 128,-1,14
 268 785 268 785 293 785 c 0,15,16
 316 785 316 785 332 768 c 128,-1,17
 348 751 348 751 348 728 c 256,18,19
 348 705 348 705 332 689 c 128,-1,20
 316 673 316 673 293 673 c 0,21,22
 268 673 268 673 252 689 c 128,-1,23
 236 705 236 705 236 728 c 256,12,13
EndSplineSet
EndChar
StartChar: copyright
Encoding: 169 169 108
Width: 896
VWidth: 1533
Flags: W
HStem: -23 48<333.137 564.075> 146 30<379.874 527.712> 546 30<382.044 528.319> 693 46<333.696 564.109>
VStem: 58 55<246.052 473.266> 216 80<299.559 423.874> 783 54<243.975 475.193>
Fore
837 357 m 256,0,1
 837 278 837 278 805.5 209 c 128,-1,2
 774 140 774 140 721 88.5 c 128,-1,3
 668 37 668 37 597.5 7 c 128,-1,4
 527 -23 527 -23 449 -23 c 256,5,6
 371 -23 371 -23 299.5 7 c 128,-1,7
 228 37 228 37 174.5 88.5 c 128,-1,8
 121 140 121 140 89.5 209 c 128,-1,9
 58 278 58 278 58 357 c 256,10,11
 58 437 58 437 89.5 506.5 c 128,-1,12
 121 576 121 576 174.5 627.5 c 128,-1,13
 228 679 228 679 299.5 709 c 128,-1,14
 371 739 371 739 449 739 c 256,15,16
 527 739 527 739 597.5 709 c 128,-1,17
 668 679 668 679 721 627 c 128,-1,18
 774 575 774 575 805.5 506 c 128,-1,19
 837 437 837 437 837 357 c 256,0,1
783 359 m 256,20,21
 783 426 783 426 756.5 486.5 c 128,-1,22
 730 547 730 547 684 593 c 128,-1,23
 638 639 638 639 577.5 666 c 128,-1,24
 517 693 517 693 449 693 c 256,25,26
 382 693 382 693 320.5 666 c 128,-1,27
 259 639 259 639 213 593 c 128,-1,28
 167 547 167 547 140 486.5 c 128,-1,29
 113 426 113 426 113 359 c 256,30,31
 113 291 113 291 141 230.5 c 128,-1,32
 169 170 169 170 215 124 c 128,-1,33
 261 78 261 78 321.5 51.5 c 128,-1,34
 382 25 382 25 449 25 c 0,35,36
 515 25 515 25 575.5 51.5 c 128,-1,37
 636 78 636 78 682 124 c 128,-1,38
 728 170 728 170 755.5 230.5 c 128,-1,39
 783 291 783 291 783 359 c 256,20,21
664 276 m 1,40,41
 642 205 642 205 583 175.5 c 128,-1,42
 524 146 524 146 455 146 c 0,43,44
 409 146 409 146 366.5 161 c 128,-1,45
 324 176 324 176 290 204.5 c 128,-1,46
 256 233 256 233 236 273 c 128,-1,47
 216 313 216 313 216 360 c 256,48,49
 216 408 216 408 236 448 c 128,-1,50
 256 488 256 488 290 517 c 128,-1,51
 324 546 324 546 366.5 561 c 128,-1,52
 409 576 409 576 455 576 c 0,53,54
 524 576 524 576 583 546.5 c 128,-1,55
 642 517 642 517 664 446 c 1,56,-1
 592 446 l 1,57,58
 575 491 575 491 537.5 518.5 c 128,-1,59
 500 546 500 546 451 546 c 0,60,61
 415 546 415 546 386 530 c 128,-1,62
 357 514 357 514 337 487.5 c 128,-1,63
 317 461 317 461 306.5 429 c 128,-1,64
 296 397 296 397 296 365 c 0,65,66
 296 330 296 330 306 296 c 128,-1,67
 316 262 316 262 335 236 c 128,-1,68
 354 210 354 210 383 193 c 128,-1,69
 412 176 412 176 451 176 c 0,70,71
 500 176 500 176 537.5 204 c 128,-1,72
 575 232 575 232 593 276 c 1,73,-1
 664 276 l 1,40,41
EndSplineSet
EndChar
StartChar: ordfeminine
Encoding: 170 170 109
Width: 401
VWidth: 1533
Flags: W
HStem: 337 370<140 210 167 199 199 275.242> 337 25<117.789 232.915> 541 26<198.14 286.172 286.828 305> 681 26<135.18 271.202>
VStem: 15 368<347 448 416 448> 15 69<397.587 493.177> 305 58<416.675 438 438 541 569 645.242> 313 50<348.222 394>
Fore
324 347 m 1,0,1
 313 373 313 373 313 394 c 1,2,3
 284 360 284 360 247 348.5 c 128,-1,4
 210 337 210 337 167 337 c 0,5,6
 138 337 138 337 111 344 c 128,-1,7
 84 351 84 351 62.5 365 c 128,-1,8
 41 379 41 379 28 399.5 c 128,-1,9
 15 420 15 420 15 448 c 0,10,11
 15 484 15 484 37.5 507 c 128,-1,12
 60 530 60 530 94.5 544 c 128,-1,13
 129 558 129 558 169.5 562.5 c 128,-1,14
 210 567 210 567 245 567 c 2,15,-1
 267 567 l 2,16,17
 276 567 276 567 286.5 568 c 128,-1,18
 297 569 297 569 305 569 c 1,19,-1
 305 575 l 2,20,21
 305 618 305 618 280.5 649.5 c 128,-1,22
 256 681 256 681 199 681 c 0,23,24
 156 681 156 681 128 652.5 c 128,-1,25
 100 624 100 624 100 593 c 1,26,-1
 32 593 l 1,27,28
 48 658 48 658 94 682.5 c 128,-1,29
 140 707 140 707 199 707 c 0,30,31
 285 707 285 707 324 671.5 c 128,-1,32
 363 636 363 636 363 573 c 2,33,-1
 363 438 l 2,34,35
 363 386 363 386 383 347 c 1,36,-1
 324 347 l 1,0,1
245 541 m 2,37,38
 215 541 215 541 186.5 535.5 c 128,-1,39
 158 530 158 530 135 518.5 c 128,-1,40
 112 507 112 507 98 489 c 128,-1,41
 84 471 84 471 84 446 c 0,42,43
 84 412 84 412 114 387 c 128,-1,44
 144 362 144 362 186 362 c 0,45,46
 238 362 238 362 271.5 400 c 128,-1,47
 305 438 305 438 305 506 c 2,48,-1
 305 541 l 1,49,-1
 245 541 l 2,37,38
EndSplineSet
EndChar
StartChar: guillemotleft
Encoding: 171 171 110
Width: 561
VWidth: 1533
Flags: W
HStem: 75 432<218 218 218 218>
VStem: 74 384<291 472 291 291>
Fore
276 472 m 1,0,-1
 129 291 l 1,1,-1
 276 110 l 1,2,-1
 218 75 l 1,3,-1
 74 291 l 1,4,-1
 218 507 l 1,5,-1
 276 472 l 1,0,-1
458 472 m 1,6,-1
 311 291 l 1,7,-1
 458 110 l 1,8,-1
 400 75 l 1,9,-1
 258 291 l 1,10,-1
 400 507 l 1,11,-1
 458 472 l 1,6,-1
EndSplineSet
EndChar
StartChar: logicalnot
Encoding: 172 172 111
Width: 643
VWidth: 1533
Flags: W
HStem: 376 56<21 537>
VStem: 537 56<129 376>
Fore
537 376 m 1,0,-1
 21 376 l 1,1,-1
 21 432 l 1,2,-1
 593 432 l 1,3,-1
 593 129 l 1,4,-1
 537 129 l 1,5,-1
 537 376 l 1,0,-1
EndSplineSet
EndChar
StartChar: registered
Encoding: 174 174 112
Width: 896
VWidth: 1533
Flags: W
HStem: -23 48<333.137 564.075> 342 29<356 426.969 426.969 479.391> 534 29<356 420.15 420.15 476.716> 693 46<333.696 564.109>
VStem: 58 55<246.052 473.266> 294 62<155 342 371 534> 552 74<420.316 504.231> 783 54<243.975 475.345>
Fore
837 357 m 256,0,1
 837 278 837 278 805.5 209 c 128,-1,2
 774 140 774 140 721 88.5 c 128,-1,3
 668 37 668 37 597.5 7 c 128,-1,4
 527 -23 527 -23 449 -23 c 256,5,6
 371 -23 371 -23 299.5 7 c 128,-1,7
 228 37 228 37 174.5 88.5 c 128,-1,8
 121 140 121 140 89.5 209 c 128,-1,9
 58 278 58 278 58 357 c 256,10,11
 58 437 58 437 89.5 506.5 c 128,-1,12
 121 576 121 576 174.5 627.5 c 128,-1,13
 228 679 228 679 299.5 709 c 128,-1,14
 371 739 371 739 449 739 c 256,15,16
 527 739 527 739 597.5 709 c 128,-1,17
 668 679 668 679 721 627.5 c 128,-1,18
 774 576 774 576 805.5 506.5 c 128,-1,19
 837 437 837 437 837 357 c 256,0,1
783 359 m 256,20,21
 783 426 783 426 756.5 486.5 c 128,-1,22
 730 547 730 547 684 593 c 128,-1,23
 638 639 638 639 577.5 666 c 128,-1,24
 517 693 517 693 449 693 c 256,25,26
 382 693 382 693 320.5 666 c 128,-1,27
 259 639 259 639 213 593 c 128,-1,28
 167 547 167 547 140 486.5 c 128,-1,29
 113 426 113 426 113 359 c 256,30,31
 113 291 113 291 141 230.5 c 128,-1,32
 169 170 169 170 215 124 c 128,-1,33
 261 78 261 78 321.5 51.5 c 128,-1,34
 382 25 382 25 449 25 c 0,35,36
 515 25 515 25 575.5 51.5 c 128,-1,37
 636 78 636 78 682 124 c 128,-1,38
 728 170 728 170 755.5 230.5 c 128,-1,39
 783 291 783 291 783 359 c 256,20,21
584 155 m 1,40,41
 569 173 569 173 558 205.5 c 128,-1,42
 547 238 547 238 534 267.5 c 128,-1,43
 521 297 521 297 502.5 319.5 c 128,-1,44
 484 342 484 342 455 342 c 2,45,-1
 356 342 l 1,46,-1
 356 155 l 1,47,-1
 294 155 l 1,48,-1
 294 563 l 1,49,-1
 422 563 l 2,50,51
 448 563 448 563 483 560 c 128,-1,52
 518 557 518 557 549.5 546 c 128,-1,53
 581 535 581 535 603.5 514.5 c 128,-1,54
 626 494 626 494 626 457 c 0,55,56
 626 435 626 435 616 417.5 c 128,-1,57
 606 400 606 400 589.5 387 c 128,-1,58
 573 374 573 374 554 365 c 128,-1,59
 535 356 535 356 517 353 c 1,60,61
 553 348 553 348 570 324.5 c 128,-1,62
 587 301 587 301 598.5 270 c 128,-1,63
 610 239 610 239 621.5 207 c 128,-1,64
 633 175 633 175 656 155 c 1,65,-1
 584 155 l 1,40,41
552 457 m 0,66,67
 552 486 552 486 536 502 c 128,-1,68
 520 518 520 518 496 525 c 128,-1,69
 472 532 472 532 444.5 533 c 128,-1,70
 417 534 417 534 396 534 c 2,71,-1
 356 534 l 1,72,-1
 356 371 l 1,73,-1
 402 371 l 2,74,75
 426 371 426 371 452 372.5 c 128,-1,76
 478 374 478 374 500.5 381.5 c 128,-1,77
 523 389 523 389 537.5 407 c 128,-1,78
 552 425 552 425 552 457 c 0,66,67
EndSplineSet
EndChar
StartChar: macron
Encoding: 175 175 113
Width: 340
VWidth: 1533
Flags: W
HStem: 698 59<0 340>
VStem: 0 340<698 757 698 757 698 698>
Fore
0 757 m 1,0,-1
 340 757 l 1,1,-1
 340 698 l 1,2,-1
 0 698 l 1,3,-1
 0 757 l 1,0,-1
EndSplineSet
EndChar
StartChar: degree
Encoding: 176 176 114
Width: 383
VWidth: 1533
Flags: W
HStem: 382 43<140.059 243.48> 662 45<145.885 222.711>
VStem: 29 45<477.511 573.963> 310 43<477.511 573.602>
Fore
192 707 m 256,0,1
 225 707 225 707 254.5 694 c 128,-1,2
 284 681 284 681 305.5 658.5 c 128,-1,3
 327 636 327 636 340 606 c 128,-1,4
 353 576 353 576 353 543 c 256,5,6
 353 509 353 509 340 480 c 128,-1,7
 327 451 327 451 305.5 428.5 c 128,-1,8
 284 406 284 406 254.5 394 c 128,-1,9
 225 382 225 382 192 382 c 256,10,11
 158 382 158 382 128 394 c 128,-1,12
 98 406 98 406 76.5 428.5 c 128,-1,13
 55 451 55 451 42 480 c 128,-1,14
 29 509 29 509 29 543 c 256,15,16
 29 576 29 576 42 606 c 128,-1,17
 55 636 55 636 76.5 658.5 c 128,-1,18
 98 681 98 681 128 694 c 128,-1,19
 158 707 158 707 192 707 c 256,0,1
192 662 m 256,20,21
 167 662 167 662 145.5 653 c 128,-1,22
 124 644 124 644 108 628 c 128,-1,23
 92 612 92 612 83 589.5 c 128,-1,24
 74 567 74 567 74 543 c 0,25,26
 74 494 74 494 108.5 459.5 c 128,-1,27
 143 425 143 425 192 425 c 256,28,29
 241 425 241 425 275.5 459.5 c 128,-1,30
 310 494 310 494 310 543 c 0,31,32
 310 567 310 567 300.5 589.5 c 128,-1,33
 291 612 291 612 275 628 c 128,-1,34
 259 644 259 644 237.5 653 c 128,-1,35
 216 662 216 662 192 662 c 256,20,21
EndSplineSet
EndChar
StartChar: plusminus
Encoding: 177 177 115
Width: 662
VWidth: 1533
Flags: W
HStem: 0 49<46 616> 331 48<46 304 359 616>
VStem: 304 55<127 331 379 581>
Fore
359 331 m 1,0,-1
 359 127 l 1,1,-1
 304 127 l 1,2,-1
 304 331 l 1,3,-1
 46 331 l 1,4,-1
 46 379 l 1,5,-1
 304 379 l 1,6,-1
 304 581 l 1,7,-1
 359 581 l 1,8,-1
 359 379 l 1,9,-1
 616 379 l 1,10,-1
 616 331 l 1,11,-1
 359 331 l 1,0,-1
46 0 m 1,12,-1
 46 49 l 1,13,-1
 616 49 l 1,14,-1
 616 0 l 1,15,-1
 46 0 l 1,12,-1
EndSplineSet
EndChar
StartChar: twosuperior
Encoding: 178 178 116
Width: 424
VWidth: 1533
Flags: W
HStem: 282 49<92 383> 675 29<120.005 256.814>
VStem: 15 59<566 627.984> 313 60<511.439 631.893>
Fore
23 282 m 1,0,1
 29 324 29 324 51.5 351.5 c 128,-1,2
 74 379 74 379 103.5 399 c 128,-1,3
 133 419 133 419 167 434 c 128,-1,4
 201 449 201 449 232 466 c 0,5,6
 264 484 264 484 288.5 508 c 128,-1,7
 313 532 313 532 313 572 c 0,8,9
 313 613 313 613 284 644 c 128,-1,10
 255 675 255 675 196 675 c 0,11,12
 146 675 146 675 110.5 647 c 128,-1,13
 75 619 75 619 74 566 c 1,14,-1
 15 566 l 1,15,16
 25 635 25 635 76 669.5 c 128,-1,17
 127 704 127 704 196 704 c 0,18,19
 232 704 232 704 264 695.5 c 128,-1,20
 296 687 296 687 319.5 671 c 128,-1,21
 343 655 343 655 358 629.5 c 128,-1,22
 373 604 373 604 373 572 c 0,23,24
 373 515 373 515 332 483 c 128,-1,25
 291 451 291 451 240.5 428.5 c 128,-1,26
 190 406 190 406 145.5 385.5 c 128,-1,27
 101 365 101 365 92 331 c 1,28,-1
 383 331 l 1,29,-1
 383 282 l 1,30,-1
 23 282 l 1,0,1
EndSplineSet
EndChar
StartChar: threesuperior
Encoding: 179 179 117
Width: 424
VWidth: 1533
Flags: W
HStem: 273 26<137.394 279.443> 682 25<151.283 293.407>
VStem: 32 374<368 409 400 409 409 409> 57 60<587.991 654.542> 325 60<564.593 652.397> 348 58<343.929 449.671>
Fore
213 273 m 0,0,1
 144 273 144 273 93.5 306.5 c 128,-1,2
 43 340 43 340 32 409 c 1,3,-1
 92 409 l 1,4,5
 92 356 92 356 128 327.5 c 128,-1,6
 164 299 164 299 213 299 c 0,7,8
 265 299 265 299 306.5 326.5 c 128,-1,9
 348 354 348 354 348 402 c 0,10,11
 348 429 348 429 331 447.5 c 128,-1,12
 314 466 314 466 288 475 c 128,-1,13
 262 484 262 484 230 485 c 128,-1,14
 198 486 198 486 166 480 c 1,15,-1
 166 517 l 1,16,17
 199 511 199 511 229 515.5 c 128,-1,18
 259 520 259 520 280 532 c 128,-1,19
 301 544 301 544 313 562 c 128,-1,20
 325 580 325 580 325 601 c 0,21,22
 325 635 325 635 296.5 658.5 c 128,-1,23
 268 682 268 682 216 682 c 0,24,25
 172 682 172 682 146 655.5 c 128,-1,26
 120 629 120 629 117 584 c 1,27,-1
 57 584 l 1,28,29
 61 642 61 642 106.5 674.5 c 128,-1,30
 152 707 152 707 216 707 c 0,31,32
 285 707 285 707 335 681.5 c 128,-1,33
 385 656 385 656 385 601 c 0,34,35
 385 564 385 564 360.5 539 c 128,-1,36
 336 514 336 514 305 503 c 1,37,38
 345 495 345 495 375.5 470 c 128,-1,39
 406 445 406 445 406 400 c 0,40,41
 406 368 406 368 390 343.5 c 128,-1,42
 374 319 374 319 346.5 303.5 c 128,-1,43
 319 288 319 288 284.5 280.5 c 128,-1,44
 250 273 250 273 213 273 c 0,0,1
EndSplineSet
EndChar
StartChar: acute
Encoding: 180 180 118
Width: 280
VWidth: 1533
Flags: W
HStem: 650 193<98 273 273 273>
VStem: 66 238<652 810 652 652>
Fore
66 652 m 1,0,-1
 235 826 l 2,1,2
 248 843 248 843 273 843 c 0,3,4
 287 843 287 843 295.5 833 c 128,-1,5
 304 823 304 823 304 810 c 256,6,7
 304 796 304 796 294 786.5 c 128,-1,8
 284 777 284 777 262 760 c 2,9,-1
 98 650 l 1,10,-1
 66 652 l 1,0,-1
EndSplineSet
EndChar
StartChar: mu
Encoding: 181 181 119
Width: 679
VWidth: 1533
Flags: W
HStem: -18 36<239.211 409.54>
VStem: 74 79<-210 44 178.799 581> 530 76<166.313 253 253 581>
Fore
544 0 m 1,0,-1
 530 121 l 1,1,2
 500 52 500 52 438 17 c 128,-1,3
 376 -18 376 -18 302 -18 c 0,4,5
 212 -18 212 -18 153 44 c 1,6,-1
 153 -210 l 1,7,-1
 74 -210 l 1,8,-1
 74 581 l 1,9,-1
 155 581 l 1,10,-1
 155 235 l 2,11,12
 155 192 155 192 162.5 152.5 c 128,-1,13
 170 113 170 113 189.5 83.5 c 128,-1,14
 209 54 209 54 241 36 c 128,-1,15
 273 18 273 18 320 18 c 0,16,17
 371 18 371 18 410 37.5 c 128,-1,18
 449 57 449 57 476 90 c 128,-1,19
 503 123 503 123 516.5 165 c 128,-1,20
 530 207 530 207 530 253 c 2,21,-1
 530 581 l 1,22,-1
 606 581 l 1,23,-1
 606 0 l 1,24,-1
 544 0 l 1,0,-1
EndSplineSet
EndChar
StartChar: paragraph
Encoding: 182 182 120
Width: 561
VWidth: 1533
Flags: W
HStem: 678 40<307 385 440 532>
VStem: 29 278<381.516 586.717> 250 57<-150 262> 385 55<-150 678>
Fore
440 678 m 1,0,-1
 440 -150 l 1,1,-1
 385 -150 l 1,2,-1
 385 678 l 1,3,-1
 307 678 l 1,4,-1
 307 -150 l 1,5,-1
 250 -150 l 1,6,-1
 250 262 l 1,7,8
 140 262 140 262 84.5 327 c 128,-1,9
 29 392 29 392 29 498 c 0,10,11
 29 547 29 547 46 588 c 128,-1,12
 63 629 63 629 93 657 c 128,-1,13
 123 685 123 685 163.5 701.5 c 128,-1,14
 204 718 204 718 253 718 c 2,15,-1
 532 718 l 1,16,-1
 532 678 l 1,17,-1
 440 678 l 1,0,-1
EndSplineSet
EndChar
StartChar: periodcentered
Encoding: 183 183 121
Width: 259
VWidth: 1533
Flags: W
HStem: 236 112<90.5017 168.983>
VStem: 74 112<252.502 330.467>
Fore
74 291 m 256,0,1
 74 314 74 314 90 331 c 128,-1,2
 106 348 106 348 129 348 c 0,3,4
 153 348 153 348 169.5 331 c 128,-1,5
 186 314 186 314 186 291 c 256,6,7
 186 268 186 268 169.5 252 c 128,-1,8
 153 236 153 236 129 236 c 0,9,10
 106 236 106 236 90 252 c 128,-1,11
 74 268 74 268 74 291 c 256,0,1
EndSplineSet
EndChar
StartChar: cedilla
Encoding: 184 184 122
Width: 225
VWidth: 1533
Flags: W
HStem: -241 241<97 118 95 97 97 97> -241 32<28.5567 121.664>
VStem: 2 223<-225 -149 -227 -225> 150 75<-184.107 -117.679>
Fore
97 0 m 1,0,-1
 126 0 l 1,1,-1
 94 -77 l 1,2,3
 109 -72 109 -72 119.5 -72 c 128,-1,4
 130 -72 130 -72 144 -72 c 0,5,6
 175 -72 175 -72 200 -93.5 c 128,-1,7
 225 -115 225 -115 225 -149 c 0,8,9
 225 -172 225 -172 213.5 -189.5 c 128,-1,10
 202 -207 202 -207 183 -218.5 c 128,-1,11
 164 -230 164 -230 141 -235.5 c 128,-1,12
 118 -241 118 -241 95 -241 c 0,13,14
 67 -241 67 -241 43.5 -238.5 c 128,-1,15
 20 -236 20 -236 2 -225 c 1,16,-1
 12 -195 l 1,17,18
 40 -209 40 -209 80 -209 c 0,19,20
 104 -209 104 -209 127 -196.5 c 128,-1,21
 150 -184 150 -184 150 -155 c 0,22,23
 150 -133 150 -133 131.5 -118.5 c 128,-1,24
 113 -104 113 -104 97 -104 c 0,25,26
 83 -104 83 -104 69 -106.5 c 128,-1,27
 55 -109 55 -109 51 -110 c 1,28,-1
 97 0 l 1,0,-1
EndSplineSet
EndChar
StartChar: onesuperior
Encoding: 185 185 123
Width: 323
VWidth: 1533
Flags: W
HStem: 622 27<77 128.372>
VStem: 179 63<281 622>
Fore
179 622 m 1,0,-1
 77 622 l 1,1,-1
 77 649 l 1,2,3
 109 649 109 649 129 651 c 128,-1,4
 149 653 149 653 162.5 660.5 c 128,-1,5
 176 668 176 668 185.5 680.5 c 128,-1,6
 195 693 195 693 204 714 c 1,7,-1
 242 714 l 1,8,-1
 242 281 l 1,9,-1
 179 281 l 1,10,-1
 179 622 l 1,0,-1
EndSplineSet
EndChar
StartChar: ordmasculine
Encoding: 186 186 124
Width: 469
VWidth: 1533
Flags: W
HStem: 334 29<158.539 309.002> 675 29<161.437 307.444>
VStem: 29 72<441.981 595.548> 366 74<441.981 595.548>
Fore
235 334 m 256,0,1
 190 334 190 334 152.5 348.5 c 128,-1,2
 115 363 115 363 87.5 388.5 c 128,-1,3
 60 414 60 414 44.5 447.5 c 128,-1,4
 29 481 29 481 29 520 c 256,5,6
 29 558 29 558 45 591 c 128,-1,7
 61 624 61 624 89 649.5 c 128,-1,8
 117 675 117 675 154.5 689.5 c 128,-1,9
 192 704 192 704 235 704 c 0,10,11
 276 704 276 704 313.5 689.5 c 128,-1,12
 351 675 351 675 379.5 649.5 c 128,-1,13
 408 624 408 624 424 591 c 128,-1,14
 440 558 440 558 440 520 c 256,15,16
 440 481 440 481 424.5 447.5 c 128,-1,17
 409 414 409 414 381.5 388.5 c 128,-1,18
 354 363 354 363 316.5 348.5 c 128,-1,19
 279 334 279 334 235 334 c 256,0,1
235 675 m 256,20,21
 176 675 176 675 138.5 633.5 c 128,-1,22
 101 592 101 592 101 518 c 0,23,24
 101 449 101 449 135.5 406 c 128,-1,25
 170 363 170 363 235 363 c 0,26,27
 297 363 297 363 331.5 406 c 128,-1,28
 366 449 366 449 366 518 c 0,29,30
 366 592 366 592 329.5 633.5 c 128,-1,31
 293 675 293 675 235 675 c 256,20,21
EndSplineSet
EndChar
StartChar: guillemotright
Encoding: 187 187 125
Width: 561
VWidth: 1533
Flags: W
HStem: 75 432<343 343 343 343>
VStem: 103 385<110 291 110 110>
Fore
343 507 m 1,0,-1
 488 291 l 1,1,-1
 343 75 l 1,2,-1
 287 110 l 1,3,-1
 432 291 l 1,4,-1
 287 472 l 1,5,-1
 343 507 l 1,0,-1
161 507 m 1,6,-1
 305 291 l 1,7,-1
 161 75 l 1,8,-1
 103 110 l 1,9,-1
 250 291 l 1,10,-1
 103 472 l 1,11,-1
 161 507 l 1,6,-1
EndSplineSet
EndChar
StartChar: onequarter
Encoding: 188 188 126
Width: 1079
VWidth: 1533
Flags: W
HStem: -17 21<193 252.684 702 760> 100 33<527 702 760 842> 622 27<104 153.434> 685 20G<673.316 733>
VStem: 193 57<285 622> 702 58<0 100 133 327>
Fore
193 -17 m 1,0,-1
 687 705 l 1,1,-1
 733 705 l 1,2,-1
 239 -17 l 1,3,-1
 193 -17 l 1,0,-1
760 100 m 1,4,-1
 760 0 l 1,5,-1
 702 0 l 1,6,-1
 702 100 l 1,7,-1
 483 100 l 1,8,-1
 469 118 l 1,9,-1
 748 423 l 1,10,-1
 760 423 l 1,11,-1
 760 133 l 1,12,-1
 859 133 l 1,13,-1
 842 100 l 1,14,-1
 760 100 l 1,4,-1
527 133 m 1,15,-1
 702 133 l 1,16,-1
 702 327 l 1,17,-1
 527 133 l 1,15,-1
193 622 m 1,18,-1
 104 622 l 1,19,-1
 104 649 l 1,20,21
 136 649 136 649 154 651 c 128,-1,22
 172 653 172 653 183.5 660.5 c 128,-1,23
 195 668 195 668 202 680.5 c 128,-1,24
 209 693 209 693 218 714 c 1,25,-1
 250 714 l 1,26,-1
 250 285 l 1,27,-1
 193 285 l 1,28,-1
 193 622 l 1,18,-1
EndSplineSet
Ligature2: "'frac' Diagonal Fractions in Latin lookup 0 subtable" one fraction four
Ligature2: "'frac' Diagonal Fractions in Latin lookup 0 subtable" one slash four
EndChar
StartChar: onehalf
Encoding: 189 189 127
Width: 1079
VWidth: 1533
Flags: W
HStem: 0 49<632 923> 391 31<658.903 797.783> 622 27<101 150.434> 685 20G<661.177 719>
VStem: 190 57<285 622> 856 58<229.501 349.16>
Fore
221 -17 m 1,0,-1
 176 -17 l 1,1,-1
 675 705 l 1,2,-1
 719 705 l 1,3,-1
 221 -17 l 1,0,-1
566 0 m 1,4,5
 572 41 572 41 593.5 69 c 128,-1,6
 615 97 615 97 644 116.5 c 128,-1,7
 673 136 673 136 707.5 151.5 c 128,-1,8
 742 167 742 167 773 184 c 0,9,10
 805 201 805 201 830.5 225.5 c 128,-1,11
 856 250 856 250 856 290 c 0,12,13
 856 333 856 333 825 362 c 128,-1,14
 794 391 794 391 736 391 c 0,15,16
 687 391 687 391 651 363.5 c 128,-1,17
 615 336 615 336 615 282 c 1,18,-1
 555 282 l 1,19,20
 566 353 566 353 616.5 387.5 c 128,-1,21
 667 422 667 422 736 422 c 0,22,23
 771 422 771 422 803.5 413.5 c 128,-1,24
 836 405 836 405 860.5 389 c 128,-1,25
 885 373 885 373 899.5 347.5 c 128,-1,26
 914 322 914 322 914 290 c 0,27,28
 914 251 914 251 894.5 224.5 c 128,-1,29
 875 198 875 198 845.5 178.5 c 128,-1,30
 816 159 816 159 781.5 144.5 c 128,-1,31
 747 130 747 130 715.5 116.5 c 128,-1,32
 684 103 684 103 661 87 c 128,-1,33
 638 71 638 71 632 49 c 1,34,-1
 923 49 l 1,35,-1
 923 0 l 1,36,-1
 566 0 l 1,4,5
190 622 m 1,37,-1
 101 622 l 1,38,-1
 101 649 l 1,39,40
 133 649 133 649 151 651 c 128,-1,41
 169 653 169 653 180.5 660.5 c 128,-1,42
 192 668 192 668 198.5 680.5 c 128,-1,43
 205 693 205 693 215 714 c 1,44,-1
 247 714 l 1,45,-1
 247 285 l 1,46,-1
 190 285 l 1,47,-1
 190 622 l 1,37,-1
EndSplineSet
Ligature2: "'frac' Diagonal Fractions in Latin lookup 0 subtable" one fraction two
Ligature2: "'frac' Diagonal Fractions in Latin lookup 0 subtable" one slash two
EndChar
StartChar: threequarters
Encoding: 190 190 128
Width: 1079
VWidth: 1533
Flags: W
HStem: -17 21<311 369.795 791 849> 100 33<615 791 849 931> 279 28<191.218 333.739> 682 25<204.226 333.404>
VStem: 86 60<353.424 417> 110 59<587.925 650.699> 379 58<551.218 650.175> 402 58<351.374 457.338> 791 58<0 100 133 327>
Fore
311 -17 m 1,0,-1
 810 705 l 1,1,-1
 854 705 l 1,2,-1
 356 -17 l 1,3,-1
 311 -17 l 1,0,-1
849 100 m 1,4,-1
 849 0 l 1,5,-1
 791 0 l 1,6,-1
 791 100 l 1,7,-1
 570 100 l 1,8,-1
 558 118 l 1,9,-1
 836 423 l 1,10,-1
 849 423 l 1,11,-1
 849 133 l 1,12,-1
 946 133 l 1,13,-1
 931 100 l 1,14,-1
 849 100 l 1,4,-1
615 133 m 1,15,-1
 791 133 l 1,16,-1
 791 327 l 1,17,-1
 615 133 l 1,15,-1
267 279 m 0,18,19
 198 279 198 279 146.5 313.5 c 128,-1,20
 95 348 95 348 86 417 c 1,21,-1
 146 417 l 1,22,23
 146 363 146 363 182 335 c 128,-1,24
 218 307 218 307 267 307 c 0,25,26
 320 307 320 307 361 334.5 c 128,-1,27
 402 362 402 362 402 409 c 0,28,29
 402 437 402 437 385 455.5 c 128,-1,30
 368 474 368 474 342 483 c 128,-1,31
 316 492 316 492 283.5 493 c 128,-1,32
 251 494 251 494 219 488 c 1,33,-1
 219 524 l 1,34,35
 288 512 288 512 333.5 535 c 128,-1,36
 379 558 379 558 379 601 c 0,37,38
 379 635 379 635 350.5 658.5 c 128,-1,39
 322 682 322 682 270 682 c 0,40,41
 225 682 225 682 198.5 655.5 c 128,-1,42
 172 629 172 629 169 584 c 1,43,-1
 110 584 l 1,44,45
 117 642 117 642 162 674.5 c 128,-1,46
 207 707 207 707 270 707 c 0,47,48
 304 707 304 707 334.5 701 c 128,-1,49
 365 695 365 695 388 681.5 c 128,-1,50
 411 668 411 668 424 648.5 c 128,-1,51
 437 629 437 629 437 601 c 0,52,53
 437 564 437 564 412.5 542.5 c 128,-1,54
 388 521 388 521 357 511 c 1,55,56
 397 503 397 503 428.5 477.5 c 128,-1,57
 460 452 460 452 460 408 c 0,58,59
 460 374 460 374 443 350.5 c 128,-1,60
 426 327 426 327 399.5 310.5 c 128,-1,61
 373 294 373 294 338.5 286.5 c 128,-1,62
 304 279 304 279 267 279 c 0,18,19
EndSplineSet
Ligature2: "'frac' Diagonal Fractions in Latin lookup 0 subtable" three fraction four
Ligature2: "'frac' Diagonal Fractions in Latin lookup 0 subtable" three slash four
EndChar
StartChar: questiondown
Encoding: 191 191 129
Width: 550
VWidth: 1533
Flags: W
HStem: -152 31<246.924 369.617> 497 102<268.986 341.045>
VStem: 51 101<-22.5351 111.908> 253 103<511.955 583.53> 296 18<356.317 457> 438 82<-22.6833 77>
Fore
51 49 m 0,0,1
 51 90 51 90 69 120 c 128,-1,2
 87 150 87 150 115.5 175.5 c 128,-1,3
 144 201 144 201 176.5 225.5 c 128,-1,4
 209 250 209 250 236.5 281.5 c 128,-1,5
 264 313 264 313 280.5 355 c 128,-1,6
 297 397 297 397 296 457 c 1,7,-1
 314 457 l 1,8,9
 322 386 322 386 313.5 338.5 c 128,-1,10
 305 291 305 291 287.5 257.5 c 128,-1,11
 270 224 270 224 246 200 c 128,-1,12
 222 176 222 176 201.5 154 c 128,-1,13
 181 132 181 132 166.5 106.5 c 128,-1,14
 152 81 152 81 152 46 c 0,15,16
 152 -3 152 -3 162.5 -35 c 128,-1,17
 173 -67 173 -67 192.5 -86.5 c 128,-1,18
 212 -106 212 -106 237 -113.5 c 128,-1,19
 262 -121 262 -121 290 -121 c 0,20,21
 359 -121 359 -121 398.5 -73 c 128,-1,22
 438 -25 438 -25 438 77 c 1,23,-1
 520 77 l 1,24,25
 520 18 520 18 501.5 -24 c 128,-1,26
 483 -66 483 -66 451 -95 c 128,-1,27
 419 -124 419 -124 376.5 -138 c 128,-1,28
 334 -152 334 -152 287 -152 c 0,29,30
 244 -152 244 -152 201.5 -140.5 c 128,-1,31
 159 -129 159 -129 125.5 -104.5 c 128,-1,32
 92 -80 92 -80 71.5 -42.5 c 128,-1,33
 51 -5 51 -5 51 49 c 0,0,1
253 547 m 256,34,35
 253 569 253 569 268.5 584 c 128,-1,36
 284 599 284 599 305 599 c 256,37,38
 327 599 327 599 341.5 584 c 128,-1,39
 356 569 356 569 356 547 c 256,40,41
 356 526 356 526 341.5 511.5 c 128,-1,42
 327 497 327 497 305 497 c 256,43,44
 284 497 284 497 268.5 511.5 c 128,-1,45
 253 526 253 526 253 547 c 256,34,35
EndSplineSet
EndChar
StartChar: Aring
Encoding: 197 197 134
Width: 818
VWidth: 1533
Flags: W
HStem: 0 21G<8 67.6011 703.454 811> 366 37<273 504> 869 37<371.314 474.014>
VStem: 313 37<744.583 847.176> 495 37<744.259 847.761>
Fore
392 627 m 1,0,-1
 273 403 l 1,1,-1
 504 403 l 1,2,-1
 392 627 l 1,0,-1
423 869 m 256,3,4
 392 869 392 869 371 847.5 c 128,-1,5
 350 826 350 826 350 796 c 256,6,7
 350 765 350 765 371 744.5 c 128,-1,8
 392 724 392 724 423 724 c 256,9,10
 454 724 454 724 474.5 744.5 c 128,-1,11
 495 765 495 765 495 796 c 256,12,13
 495 826 495 826 474.5 847.5 c 128,-1,14
 454 869 454 869 423 869 c 256,3,4
423 906 m 0,15,16
 468 906 468 906 500 874.5 c 128,-1,17
 532 843 532 843 532 796 c 0,18,19
 532 759 532 759 510 730.5 c 128,-1,20
 488 702 488 702 452 691 c 1,21,-1
 811 0 l 1,22,-1
 714 0 l 1,23,-1
 521 366 l 1,24,-1
 251 366 l 1,25,-1
 57 0 l 1,26,-1
 8 0 l 1,27,-1
 388 693 l 1,28,29
 354 705 354 705 333.5 732.5 c 128,-1,30
 313 760 313 760 313 796 c 0,31,32
 313 843 313 843 345 874.5 c 128,-1,33
 377 906 377 906 423 906 c 0,15,16
EndSplineSet
EndChar
StartChar: AE
Encoding: 198 198 135
Width: 1096
VWidth: 1533
Flags: W
HStem: 0 37<639 1081> 366 37<328 555 639 972> 678 38<515 555 639 1081>
VStem: 555 84<37 366 403 678>
Fore
555 0 m 1,0,-1
 555 366 l 1,1,-1
 302 366 l 1,2,-1
 54 0 l 1,3,-1
 0 0 l 1,4,-1
 489 716 l 1,5,-1
 1081 716 l 1,6,-1
 1081 678 l 1,7,-1
 639 678 l 1,8,-1
 639 403 l 1,9,-1
 972 403 l 1,10,-1
 972 366 l 1,11,-1
 639 366 l 1,12,-1
 639 37 l 1,13,-1
 1081 37 l 1,14,-1
 1081 0 l 1,15,-1
 555 0 l 1,0,-1
555 678 m 1,16,-1
 515 678 l 1,17,-1
 328 403 l 1,18,-1
 555 403 l 1,19,-1
 555 678 l 1,16,-1
EndSplineSet
EndChar
StartChar: Eth
Encoding: 208 208 145
Width: 880
VWidth: 1533
Flags: W
HStem: 0 37<186 546> 366 37<17 103 186 392> 678 38<186 545.486>
VStem: 103 83<37 366 403 678> 741 101<235.824 499.101>
Fore
842 380 m 0,0,1
 842 301 842 301 819.5 232 c 128,-1,2
 797 163 797 163 742 111.5 c 128,-1,3
 687 60 687 60 595 30 c 128,-1,4
 503 0 503 0 363 0 c 2,5,-1
 103 0 l 1,6,-1
 103 366 l 1,7,-1
 17 366 l 1,8,-1
 17 403 l 1,9,-1
 103 403 l 1,10,-1
 103 716 l 1,11,-1
 357 716 l 2,12,13
 492 716 492 716 585 690 c 128,-1,14
 678 664 678 664 734.5 618.5 c 128,-1,15
 791 573 791 573 816.5 512 c 128,-1,16
 842 451 842 451 842 380 c 0,0,1
741 380 m 0,17,18
 741 443 741 443 723 497.5 c 128,-1,19
 705 552 705 552 663 592 c 128,-1,20
 621 632 621 632 551 655 c 128,-1,21
 481 678 481 678 379 678 c 2,22,-1
 186 678 l 1,23,-1
 186 403 l 1,24,-1
 392 403 l 1,25,-1
 392 366 l 1,26,-1
 186 366 l 1,27,-1
 186 37 l 1,28,-1
 379 37 l 2,29,30
 481 37 481 37 551 60 c 128,-1,31
 621 83 621 83 663 127.5 c 128,-1,32
 705 172 705 172 723 235.5 c 128,-1,33
 741 299 741 299 741 380 c 0,17,18
EndSplineSet
EndChar
StartChar: multiply
Encoding: 215 215 152
Width: 662
VWidth: 1533
Flags: W
Fore
331 250 m 1,0,-1
 87 3 l 1,1,-1
 48 43 l 1,2,-1
 291 291 l 1,3,-1
 48 538 l 1,4,-1
 87 578 l 1,5,-1
 331 331 l 1,6,-1
 575 578 l 1,7,-1
 615 538 l 1,8,-1
 371 291 l 1,9,-1
 615 43 l 1,10,-1
 575 3 l 1,11,-1
 331 250 l 1,0,-1
EndSplineSet
EndChar
StartChar: Oslash
Encoding: 216 216 153
Width: 949
VWidth: 1533
Flags: W
HStem: -25 36<369.744 589.767> 702 37<368.733 587.805>
VStem: 61 102<237.08 479.416> 797 103<235.887 479.935>
Fore
767 638 m 1,0,1
 828 584 828 584 864 512 c 128,-1,2
 900 440 900 440 900 357 c 0,3,4
 900 279 900 279 867 209.5 c 128,-1,5
 834 140 834 140 777.5 87.5 c 128,-1,6
 721 35 721 35 644 5 c 128,-1,7
 567 -25 567 -25 480 -25 c 0,8,9
 406 -25 406 -25 341 -4 c 128,-1,10
 276 17 276 17 222 55 c 1,11,-1
 101 -75 l 1,12,-1
 38 -75 l 1,13,-1
 187 84 l 1,14,15
 129 136 129 136 95 206 c 128,-1,16
 61 276 61 276 61 357 c 0,17,18
 61 437 61 437 94 506 c 128,-1,19
 127 575 127 575 184 627 c 128,-1,20
 241 679 241 679 317.5 709 c 128,-1,21
 394 739 394 739 480 739 c 0,22,23
 550 739 550 739 614 719 c 128,-1,24
 678 699 678 699 730 664 c 1,25,-1
 848 791 l 1,26,-1
 911 791 l 1,27,-1
 767 638 l 1,0,1
797 359 m 0,28,29
 797 426 797 426 775.5 483.5 c 128,-1,30
 754 541 754 541 718 586 c 1,31,-1
 265 101 l 1,32,33
 310 58 310 58 364.5 34.5 c 128,-1,34
 419 11 419 11 478 11 c 0,35,36
 543 11 543 11 600.5 37.5 c 128,-1,37
 658 64 658 64 701.5 111.5 c 128,-1,38
 745 159 745 159 771 222 c 128,-1,39
 797 285 797 285 797 359 c 0,28,29
163 359 m 0,40,41
 163 294 163 294 182 237.5 c 128,-1,42
 201 181 201 181 236 135 c 1,43,-1
 687 618 l 1,44,45
 642 658 642 658 589.5 680 c 128,-1,46
 537 702 537 702 478 702 c 0,47,48
 415 702 415 702 358 676 c 128,-1,49
 301 650 301 650 257 604 c 128,-1,50
 213 558 213 558 188 495 c 128,-1,51
 163 432 163 432 163 359 c 0,40,41
EndSplineSet
EndChar
StartChar: Thorn
Encoding: 222 222 159
Width: 700
VWidth: 1533
Flags: W
HStem: 0 21G<95 178> 167 38<178 206.908 206.908 271.392 271.392 313.635 313.635 346.212 346.212 359.5 385.5 450.17> 489 37<178 204.332 204.332 266.665 266.665 314.058 314.058 341.454 341.454 355.5 381 445.624>
VStem: 95 83<0 167 205 489 526 656> 552 106<281.411 417.277>
Fore
658 353 m 0,0,1
 658 313 658 313 642.5 284 c 128,-1,2
 627 255 627 255 600 235 c 128,-1,3
 573 215 573 215 538.5 202 c 128,-1,4
 504 189 504 189 466 181 c 0,5,6
 426 173 426 173 385.5 170 c 128,-1,7
 345 167 345 167 307 167 c 0,8,9
 268 166 268 166 236 166.5 c 128,-1,10
 204 167 204 167 178 167 c 1,11,-1
 178 0 l 1,12,-1
 95 0 l 1,13,-1
 95 656 l 1,14,-1
 176 656 l 1,15,-1
 176 526 l 1,16,17
 199 526 199 526 231.5 526.5 c 128,-1,18
 264 527 264 527 302 527 c 0,19,20
 340 526 340 526 381 523.5 c 128,-1,21
 422 521 422 521 461 514 c 0,22,23
 500 506 500 506 536 494.5 c 128,-1,24
 572 483 572 483 599 464 c 128,-1,25
 626 445 626 445 642 417 c 128,-1,26
 658 389 658 389 658 353 c 0,0,1
552 353 m 0,27,28
 552 400 552 400 521.5 427.5 c 128,-1,29
 491 455 491 455 447 469 c 128,-1,30
 403 483 403 483 355.5 486 c 128,-1,31
 308 489 308 489 273 489 c 2,32,-1
 178 489 l 1,33,-1
 178 205 l 1,34,-1
 268 205 l 2,35,36
 310 205 310 205 359.5 208.5 c 128,-1,37
 409 212 409 212 451.5 225.5 c 128,-1,38
 494 239 494 239 523 269 c 128,-1,39
 552 299 552 299 552 353 c 0,27,28
EndSplineSet
EndChar
StartChar: uni00DF
Encoding: 223 223 160
Width: 696
VWidth: 1533
Flags: W
HStem: -18 35<369.077 477.707> 417 31<324.104 366.119 366.119 428.373> 776 35<240.119 400.857>
VStem: 77 81<0 662.334> 486 101<545.048 704.759> 547 109<164.087 253.938>
Fore
158 0 m 1,0,-1
 77 0 l 1,1,-1
 77 532 l 2,2,3
 77 665 77 665 146 738 c 128,-1,4
 215 811 215 811 330 811 c 0,5,6
 377 811 377 811 423 800.5 c 128,-1,7
 469 790 469 790 506 767 c 128,-1,8
 543 744 543 744 565 706 c 128,-1,9
 587 668 587 668 587 615 c 0,10,11
 587 543 587 543 542.5 498.5 c 128,-1,12
 498 454 498 454 419 435 c 1,13,14
 463 435 463 435 505 418.5 c 128,-1,15
 547 402 547 402 580 372 c 128,-1,16
 613 342 613 342 634 301.5 c 128,-1,17
 655 261 655 261 656 213 c 0,18,19
 658 164 658 164 638 122 c 128,-1,20
 618 80 618 80 585 48.5 c 128,-1,21
 552 17 552 17 507.5 -0.5 c 128,-1,22
 463 -18 463 -18 414 -18 c 0,23,24
 374 -18 374 -18 326 -10 c 128,-1,25
 278 -2 278 -2 244 26 c 1,26,-1
 282 101 l 1,27,28
 288 89 288 89 302.5 73.5 c 128,-1,29
 317 58 317 58 335.5 46 c 128,-1,30
 354 34 354 34 375 25.5 c 128,-1,31
 396 17 396 17 417 17 c 0,32,33
 451 17 451 17 475.5 34.5 c 128,-1,34
 500 52 500 52 516 79.5 c 128,-1,35
 532 107 532 107 539.5 141.5 c 128,-1,36
 547 176 547 176 547 210 c 0,37,38
 547 248 547 248 537 286 c 128,-1,39
 527 324 527 324 507.5 353 c 128,-1,40
 488 382 488 382 457 399.5 c 128,-1,41
 426 417 426 417 385 417 c 0,42,43
 363 417 363 417 351.5 417 c 128,-1,44
 340 417 340 417 322 414 c 1,45,-1
 322 451 l 1,46,47
 339 446 339 446 350.5 447 c 128,-1,48
 362 448 362 448 382 448 c 0,49,50
 409 448 409 448 429 461.5 c 128,-1,51
 449 475 449 475 462 498 c 128,-1,52
 475 521 475 521 480.5 549.5 c 128,-1,53
 486 578 486 578 486 607 c 0,54,55
 486 699 486 699 442.5 737.5 c 128,-1,56
 399 776 399 776 330 776 c 0,57,58
 238 776 238 776 198 714 c 128,-1,59
 158 652 158 652 158 535 c 2,60,-1
 158 0 l 1,0,-1
EndSplineSet
EndChar
StartChar: ae
Encoding: 230 230 167
Width: 1036
VWidth: 1533
Flags: W
HStem: -15 38<175.936 317.561 649.494 815.591> 294 35.5<284.378 388.096 388.096 448> 333 38<550 894> 509 41<234.031 364.851 624.474 808.105>
VStem: 31 90<73.8374 224.179> 448 84<212.931 293.769> 915 83<165.235 216>
Fore
998 216 m 1,0,1
 975 110 975 110 908.5 46.5 c 128,-1,2
 842 -17 842 -17 731 -17 c 0,3,4
 655 -17 655 -17 583 18.5 c 128,-1,5
 511 54 511 54 475 126 c 1,6,7
 454 84 454 84 430 56.5 c 128,-1,8
 406 29 406 29 377 13 c 128,-1,9
 348 -3 348 -3 312 -9 c 128,-1,10
 276 -15 276 -15 228 -15 c 0,11,12
 189 -15 189 -15 153 -6 c 128,-1,13
 117 3 117 3 90 23.5 c 128,-1,14
 63 44 63 44 47 75 c 128,-1,15
 31 106 31 106 31 150 c 0,16,17
 31 222 31 222 77.5 259 c 128,-1,18
 124 296 124 296 190 312 c 128,-1,19
 256 328 256 328 327.5 329.5 c 128,-1,20
 399 331 399 331 448 331 c 1,21,-1
 448 353 l 2,22,23
 448 509 448 509 291 509 c 0,24,25
 265 509 265 509 239 500.5 c 128,-1,26
 213 492 213 492 192.5 476.5 c 128,-1,27
 172 461 172 461 159 438 c 128,-1,28
 146 415 146 415 146 386 c 1,29,-1
 60 386 l 1,30,31
 81 478 81 478 142.5 514 c 128,-1,32
 204 550 204 550 291 550 c 0,33,34
 322 550 322 550 354 545 c 128,-1,35
 386 540 386 540 415.5 527 c 128,-1,36
 445 514 445 514 468 493 c 128,-1,37
 491 472 491 472 503 440 c 1,38,39
 538 491 538 491 595.5 520.5 c 128,-1,40
 653 550 653 550 718 550 c 0,41,42
 833 550 833 550 898 499 c 128,-1,43
 963 448 963 448 987 333 c 1,44,-1
 540 333 l 1,45,46
 537 314 537 314 534.5 296.5 c 128,-1,47
 532 279 532 279 532 262 c 0,48,49
 532 213 532 213 545 169.5 c 128,-1,50
 558 126 558 126 585 93 c 128,-1,51
 612 60 612 60 651 40.5 c 128,-1,52
 690 21 690 21 742 21 c 0,53,54
 783 21 783 21 812.5 38 c 128,-1,55
 842 55 842 55 862.5 82.5 c 128,-1,56
 883 110 883 110 896 145.5 c 128,-1,57
 909 181 909 181 915 216 c 1,58,-1
 998 216 l 1,0,1
894 371 m 1,59,60
 874 435 874 435 830.5 473 c 128,-1,61
 787 511 787 511 718 511 c 0,62,63
 644 511 644 511 606.5 474 c 128,-1,64
 569 437 569 437 550 371 c 1,65,-1
 894 371 l 1,59,60
448 294 m 1,66,-1
 350 294 l 2,67,68
 311 294 311 294 270.5 289 c 128,-1,69
 230 284 230 284 197 268.5 c 128,-1,70
 164 253 164 253 142.5 224.5 c 128,-1,71
 121 196 121 196 121 150 c 0,72,73
 121 87 121 87 158.5 55 c 128,-1,74
 196 23 196 23 258 23 c 0,75,76
 307 23 307 23 343 40 c 128,-1,77
 379 57 379 57 402 87 c 128,-1,78
 425 117 425 117 436.5 157.5 c 128,-1,79
 448 198 448 198 448 244 c 2,80,-1
 448 294 l 1,66,-1
EndSplineSet
EndChar
StartChar: eth
Encoding: 240 240 177
Width: 650
VWidth: 1533
Flags: W
HStem: -14 32<227.242 426.405> 507 33<224.478 425.375>
VStem: 29 81<159.561 366.953> 541 78<180.839 344.564>
Fore
619 264 m 0,0,1
 619 199 619 199 595.5 148 c 128,-1,2
 572 97 572 97 532 61 c 128,-1,3
 492 25 492 25 438.5 5.5 c 128,-1,4
 385 -14 385 -14 324 -14 c 256,5,6
 262 -14 262 -14 208.5 5.5 c 128,-1,7
 155 25 155 25 115 61 c 128,-1,8
 75 97 75 97 52 148 c 128,-1,9
 29 199 29 199 29 262 c 0,10,11
 29 327 29 327 52 378 c 128,-1,12
 75 429 75 429 115.5 465 c 128,-1,13
 156 501 156 501 210 520.5 c 128,-1,14
 264 540 264 540 325 540 c 0,15,16
 399 540 399 540 458 512 c 1,17,18
 428 561 428 561 391 602.5 c 128,-1,19
 354 644 354 644 311 678 c 1,20,-1
 124 589 l 1,21,-1
 106 629 l 1,22,-1
 270 707 l 1,23,24
 232 733 232 733 190.5 752 c 128,-1,25
 149 771 149 771 104 788 c 1,26,-1
 118 829 l 1,27,28
 225 793 225 793 319 730 c 1,29,-1
 454 796 l 1,30,-1
 474 756 l 1,31,-1
 359 701 l 1,32,33
 397 673 397 673 443 623 c 128,-1,34
 489 573 489 573 528 512.5 c 128,-1,35
 567 452 567 452 593 386 c 128,-1,36
 619 320 619 320 619 264 c 0,0,1
541 262 m 256,37,38
 541 314 541 314 529 359.5 c 128,-1,39
 517 405 517 405 490 438 c 128,-1,40
 463 471 463 471 422.5 489 c 128,-1,41
 382 507 382 507 325 507 c 256,42,43
 268 507 268 507 227.5 489 c 128,-1,44
 187 471 187 471 161 438 c 128,-1,45
 135 405 135 405 122.5 360.5 c 128,-1,46
 110 316 110 316 110 264 c 256,47,48
 110 212 110 212 122.5 166.5 c 128,-1,49
 135 121 135 121 162 88 c 128,-1,50
 189 55 189 55 229.5 36.5 c 128,-1,51
 270 18 270 18 327 18 c 256,52,53
 383 18 383 18 424 36.5 c 128,-1,54
 465 55 465 55 491 88 c 128,-1,55
 517 121 517 121 529 165.5 c 128,-1,56
 541 210 541 210 541 262 c 256,37,38
EndSplineSet
EndChar
StartChar: divide
Encoding: 247 247 184
Width: 657
VWidth: 1533
Flags: W
HStem: 0 127<284.08 371.92> 262 57<44 613> 455 125<284.08 371.92>
VStem: 265 126<19.08 107.405 474.08 561.436>
Fore
613 319 m 1,0,-1
 613 262 l 1,1,-1
 44 262 l 1,2,-1
 44 319 l 1,3,-1
 613 319 l 1,0,-1
265 518 m 256,4,5
 265 544 265 544 283.5 562 c 128,-1,6
 302 580 302 580 328 580 c 256,7,8
 354 580 354 580 372.5 562 c 128,-1,9
 391 544 391 544 391 518 c 256,10,11
 391 492 391 492 372.5 473.5 c 128,-1,12
 354 455 354 455 328 455 c 256,13,14
 302 455 302 455 283.5 473.5 c 128,-1,15
 265 492 265 492 265 518 c 256,4,5
265 63 m 256,16,17
 265 89 265 89 283.5 108 c 128,-1,18
 302 127 302 127 328 127 c 256,19,20
 354 127 354 127 372.5 108 c 128,-1,21
 391 89 391 89 391 63 c 256,22,23
 391 37 391 37 372.5 18.5 c 128,-1,24
 354 0 354 0 328 0 c 256,25,26
 302 0 302 0 283.5 18.5 c 128,-1,27
 265 37 265 37 265 63 c 256,16,17
EndSplineSet
EndChar
StartChar: oslash
Encoding: 248 248 185
Width: 746
VWidth: 1533
Flags: W
HStem: -12 37<286.756 472.24> 566 35<285.957 472.629>
VStem: 37 95<198.549 402.444> 626 96<189.927 401.988>
Fore
209 101 m 1,0,1
 244 66 244 66 287 45.5 c 128,-1,2
 330 25 330 25 379 25 c 256,3,4
 428 25 428 25 472.5 46 c 128,-1,5
 517 67 517 67 551.5 104 c 128,-1,6
 586 141 586 141 606 190 c 128,-1,7
 626 239 626 239 626 296 c 0,8,9
 626 391 626 391 573 460 c 1,10,-1
 209 101 l 1,0,1
549 492 m 1,11,12
 514 527 514 527 471 546.5 c 128,-1,13
 428 566 428 566 379 566 c 256,14,15
 330 566 330 566 285.5 545 c 128,-1,16
 241 524 241 524 206.5 487.5 c 128,-1,17
 172 451 172 451 152 402 c 128,-1,18
 132 353 132 353 132 296 c 0,19,20
 132 250 132 250 145.5 208 c 128,-1,21
 159 166 159 166 184 130 c 1,22,-1
 549 492 l 1,11,12
0 -52 m 1,23,-1
 133 81 l 1,24,25
 89 123 89 123 63 177.5 c 128,-1,26
 37 232 37 232 37 294 c 0,27,28
 37 359 37 359 63.5 415 c 128,-1,29
 90 471 90 471 137 512 c 128,-1,30
 184 553 184 553 247 577 c 128,-1,31
 310 601 310 601 380 601 c 0,32,33
 440 601 440 601 494.5 582.5 c 128,-1,34
 549 564 549 564 593 534 c 1,35,-1
 690 630 l 1,36,-1
 747 630 l 1,37,-1
 624 509 l 1,38,39
 668 469 668 469 695 414 c 128,-1,40
 722 359 722 359 722 294 c 0,41,42
 722 232 722 232 695 176 c 128,-1,43
 668 120 668 120 621.5 78.5 c 128,-1,44
 575 37 575 37 513 12.5 c 128,-1,45
 451 -12 451 -12 380 -12 c 0,46,47
 319 -12 319 -12 264.5 6.5 c 128,-1,48
 210 25 210 25 166 55 c 1,49,-1
 55 -52 l 1,50,-1
 0 -52 l 1,23,-1
EndSplineSet
EndChar
StartChar: thorn
Encoding: 254 254 191
Width: 714
VWidth: 1533
Flags: W
HStem: 0 21G<69 152> 184 35<152 363.182> 538 34<152 446.295> 696 20G<69 150>
VStem: 69 83<0 184 219 538 572 716> 567 109<302.212 452.139>
Fore
676 385 m 0,0,1
 676 325 676 325 644 286 c 128,-1,2
 612 247 612 247 555 224 c 128,-1,3
 498 201 498 201 420.5 192.5 c 128,-1,4
 343 184 343 184 253 184 c 2,5,-1
 152 184 l 1,6,-1
 152 0 l 1,7,-1
 69 0 l 1,8,-1
 69 716 l 1,9,-1
 150 716 l 1,10,-1
 150 572 l 1,11,-1
 256 572 l 2,12,13
 461 572 461 572 568.5 530.5 c 128,-1,14
 676 489 676 489 676 385 c 0,0,1
567 386 m 0,15,16
 567 454 567 454 496.5 496 c 128,-1,17
 426 538 426 538 259 538 c 2,18,-1
 152 538 l 1,19,-1
 152 219 l 1,20,-1
 255 219 l 2,21,22
 412 219 412 219 489.5 255 c 128,-1,23
 567 291 567 291 567 386 c 0,15,16
EndSplineSet
EndChar
StartChar: Lslash
Encoding: 321 321 193
Width: 657
VWidth: 1533
Flags: W
HStem: 0 37<199 644> 696 20G<115 199>
VStem: 115 84<37 716>
Fore
399 497 m 1,0,-1
 399 475 l 1,1,-1
 29 314 l 1,2,-1
 29 336 l 1,3,-1
 399 497 l 1,0,-1
115 0 m 1,4,-1
 115 716 l 1,5,-1
 199 716 l 1,6,-1
 199 37 l 1,7,-1
 644 37 l 1,8,-1
 644 0 l 1,9,-1
 115 0 l 1,4,-1
EndSplineSet
EndChar
StartChar: lslash
Encoding: 322 322 194
Width: 280
VWidth: 1533
Flags: W
HStem: 0 21G<103 186> 696 20G<103 186>
VStem: 38 218<397 512 843 857> 103 83<0 425 446 460 483 716>
Fore
103 0 m 1,0,-1
 103 425 l 1,1,-1
 38 397 l 1,2,-1
 38 420 l 1,3,-1
 103 446 l 1,4,-1
 103 716 l 1,5,-1
 186 716 l 1,6,-1
 186 483 l 1,7,-1
 256 512 l 1,8,-1
 256 492 l 1,9,-1
 186 460 l 1,10,-1
 186 0 l 1,11,-1
 103 0 l 1,0,-1
EndSplineSet
EndChar
StartChar: OE
Encoding: 338 338 195
Width: 1278
VWidth: 1533
Flags: W
HStem: -26 29<306.27 540.16> 0 37<806 1265> 366 37<806 1154> 678 38<806 1265> 710 29<307.142 540.999>
VStem: 29 101<225.59 483.998> 724 82<37 103 229.471 366 403 484.412 612 678>
Fore
724 0 m 1,0,-1
 724 103 l 1,1,2
 670 41 670 41 592 7.5 c 128,-1,3
 514 -26 514 -26 423 -26 c 0,4,5
 342 -26 342 -26 270.5 1.5 c 128,-1,6
 199 29 199 29 145.5 79.5 c 128,-1,7
 92 130 92 130 60.5 200.5 c 128,-1,8
 29 271 29 271 29 356 c 256,9,10
 29 440 29 440 61.5 510.5 c 128,-1,11
 94 581 94 581 147.5 631.5 c 128,-1,12
 201 682 201 682 273 710.5 c 128,-1,13
 345 739 345 739 425 739 c 0,14,15
 515 739 515 739 592.5 705.5 c 128,-1,16
 670 672 670 672 724 612 c 1,17,-1
 724 716 l 1,18,-1
 1265 716 l 1,19,-1
 1265 678 l 1,20,-1
 806 678 l 1,21,-1
 806 403 l 1,22,-1
 1154 403 l 1,23,-1
 1154 366 l 1,24,-1
 806 366 l 1,25,-1
 806 37 l 1,26,-1
 1265 37 l 1,27,-1
 1265 0 l 1,28,-1
 724 0 l 1,0,-1
718 357 m 0,29,30
 718 428 718 428 700 492.5 c 128,-1,31
 682 557 682 557 647 605 c 128,-1,32
 612 653 612 653 556 681.5 c 128,-1,33
 500 710 500 710 425 710 c 0,34,35
 348 710 348 710 293 681.5 c 128,-1,36
 238 653 238 653 202 605 c 128,-1,37
 166 557 166 557 148 492.5 c 128,-1,38
 130 428 130 428 130 356 c 256,39,40
 130 284 130 284 148 220 c 128,-1,41
 166 156 166 156 201 108 c 128,-1,42
 236 60 236 60 291.5 31.5 c 128,-1,43
 347 3 347 3 423 3 c 256,44,45
 500 3 500 3 555 31.5 c 128,-1,46
 610 60 610 60 646 109 c 128,-1,47
 682 158 682 158 700 221.5 c 128,-1,48
 718 285 718 285 718 357 c 0,29,30
EndSplineSet
EndChar
StartChar: oe
Encoding: 339 339 196
Width: 1042
VWidth: 1533
Flags: W
HStem: -15 38<205.066 385.854 677.029 834.085> 333 38<583 923> 509 38<199.866 386.691 661.217 836.357>
VStem: 20 80<184.542 347.857> 489 77<215.25 279.727 279.727 319.33> 934 69<126.454 190>
Fore
570 333 m 1,0,1
 564 316 564 316 565 297.5 c 128,-1,2
 566 279 566 279 566 262 c 0,3,4
 566 218 566 218 578 174 c 128,-1,5
 590 130 590 130 614.5 96.5 c 128,-1,6
 639 63 639 63 676.5 42 c 128,-1,7
 714 21 714 21 764 21 c 0,8,9
 797 21 797 21 827 35 c 128,-1,10
 857 49 857 49 880 72 c 128,-1,11
 903 95 903 95 917 125.5 c 128,-1,12
 931 156 931 156 934 190 c 1,13,-1
 1003 190 l 1,14,15
 1001 143 1001 143 979.5 104.5 c 128,-1,16
 958 66 958 66 925 39 c 128,-1,17
 892 12 892 12 850 -2.5 c 128,-1,18
 808 -17 808 -17 764 -17 c 0,19,20
 690 -17 690 -17 628.5 16 c 128,-1,21
 567 49 567 49 527 112 c 1,22,23
 491 48 491 48 428.5 16.5 c 128,-1,24
 366 -15 366 -15 293 -15 c 0,25,26
 232 -15 232 -15 181 6.5 c 128,-1,27
 130 28 130 28 95 66 c 128,-1,28
 60 104 60 104 40 154.5 c 128,-1,29
 20 205 20 205 20 265 c 256,30,31
 20 325 20 325 39 377 c 128,-1,32
 58 429 58 429 94 466.5 c 128,-1,33
 130 504 130 504 180 525.5 c 128,-1,34
 230 547 230 547 293 547 c 0,35,36
 365 547 365 547 426.5 515.5 c 128,-1,37
 488 484 488 484 526 425 c 1,38,39
 561 484 561 484 621 517 c 128,-1,40
 681 550 681 550 751 550 c 0,41,42
 802 550 802 550 846.5 535.5 c 128,-1,43
 891 521 891 521 924.5 493.5 c 128,-1,44
 958 466 958 466 980.5 425.5 c 128,-1,45
 1003 385 1003 385 1007 333 c 1,46,-1
 570 333 l 1,0,1
923 371 m 1,47,48
 906 432 906 432 859.5 473 c 128,-1,49
 813 514 813 514 747 514 c 0,50,51
 682 514 682 514 639 471.5 c 128,-1,52
 596 429 596 429 583 371 c 1,53,-1
 923 371 l 1,47,48
489 265 m 256,54,55
 489 313 489 313 479 357.5 c 128,-1,56
 469 402 469 402 446 435.5 c 128,-1,57
 423 469 423 469 385.5 489 c 128,-1,58
 348 509 348 509 293 509 c 256,59,60
 238 509 238 509 201 489 c 128,-1,61
 164 469 164 469 142 435.5 c 128,-1,62
 120 402 120 402 110 358 c 128,-1,63
 100 314 100 314 100 267 c 256,64,65
 100 219 100 219 110 175.5 c 128,-1,66
 120 132 120 132 143 98 c 128,-1,67
 166 64 166 64 203.5 43.5 c 128,-1,68
 241 23 241 23 294 23 c 0,69,70
 350 23 350 23 386.5 43 c 128,-1,71
 423 63 423 63 446 96.5 c 128,-1,72
 469 130 469 130 479 174 c 128,-1,73
 489 218 489 218 489 265 c 256,54,55
EndSplineSet
EndChar
StartChar: florin
Encoding: 402 402 202
Width: 716
VWidth: 1533
Flags: W
HStem: -222 33<99.5251 205.794> 468 27<253 347 428 527> 751 39<506.487 601.415>
VStem: 350 78<440.452 468 495 521>
Fore
350 495 m 1,0,-1
 351 521 l 2,1,2
 357 575 357 575 377 623.5 c 128,-1,3
 397 672 397 672 428.5 708.5 c 128,-1,4
 460 745 460 745 503.5 767.5 c 128,-1,5
 547 790 547 790 604 790 c 0,6,7
 613 790 613 790 627 783.5 c 128,-1,8
 641 777 641 777 654 768.5 c 128,-1,9
 667 760 667 760 678.5 749.5 c 128,-1,10
 690 739 690 739 696 730 c 1,11,-1
 618 695 l 1,12,13
 612 713 612 713 590.5 732 c 128,-1,14
 569 751 569 751 555 751 c 0,15,16
 527 751 527 751 507.5 738 c 128,-1,17
 488 725 488 725 474 703 c 128,-1,18
 460 681 460 681 452.5 654 c 128,-1,19
 445 627 445 627 442 599 c 2,20,-1
 428 495 l 1,21,-1
 534 495 l 1,22,-1
 527 468 l 1,23,-1
 423 468 l 1,24,-1
 370 28 l 2,25,26
 363 -20 363 -20 343.5 -65 c 128,-1,27
 324 -110 324 -110 289.5 -144.5 c 128,-1,28
 255 -179 255 -179 206.5 -200.5 c 128,-1,29
 158 -222 158 -222 95 -222 c 0,30,31
 75 -222 75 -222 52 -205.5 c 128,-1,32
 29 -189 29 -189 18 -163 c 1,33,-1
 94 -146 l 1,34,35
 106 -159 106 -159 123.5 -174 c 128,-1,36
 141 -189 141 -189 172 -189 c 0,37,38
 212 -189 212 -189 244 -143 c 128,-1,39
 276 -97 276 -97 285 -20 c 2,40,-1
 347 468 l 1,41,-1
 245 468 l 1,42,-1
 253 495 l 1,43,-1
 350 495 l 1,0,-1
EndSplineSet
EndChar
StartChar: circumflex
Encoding: 710 710 203
Width: 364
VWidth: 1533
Flags: W
HStem: 679 186<150 319 150 150>
VStem: 15 335<679 679 679 679>
Fore
319 679 m 1,0,-1
 182 800 l 1,1,-1
 48 679 l 1,2,-1
 15 679 l 1,3,-1
 150 865 l 1,4,-1
 216 865 l 1,5,-1
 350 679 l 1,6,-1
 319 679 l 1,0,-1
EndSplineSet
EndChar
StartChar: caron
Encoding: 711 711 204
Width: 343
VWidth: 1533
Flags: W
HStem: 642 186<2 202 2 2>
VStem: 2 335<828 828 828 828>
Fore
202 642 m 1,0,-1
 136 642 l 1,1,-1
 2 828 l 1,2,-1
 34 828 l 1,3,-1
 169 707 l 1,4,-1
 307 828 l 1,5,-1
 337 828 l 1,6,-1
 202 642 l 1,0,-1
EndSplineSet
EndChar
StartChar: breve
Encoding: 728 728 205
Width: 309
VWidth: 1533
Flags: W
HStem: 641 63<72.7238 233.198> 641 176
VStem: -3 313<744 817 817 817 817 817>
Fore
310 817 m 1,0,1
 307 744 307 744 266 692.5 c 128,-1,2
 225 641 225 641 153 641 c 0,3,4
 80 641 80 641 40 692.5 c 128,-1,5
 0 744 0 744 -3 817 c 1,6,-1
 21 817 l 1,7,8
 32 768 32 768 60.5 736 c 128,-1,9
 89 704 89 704 153 704 c 256,10,11
 218 704 218 704 245.5 736 c 128,-1,12
 273 768 273 768 282 817 c 1,13,-1
 310 817 l 1,0,1
EndSplineSet
EndChar
StartChar: dotaccent
Encoding: 729 729 206
Width: 280
VWidth: 1533
Flags: W
HStem: 642 111<101.986 178.983>
VStem: 84 112<659.017 696 696 735.467>
Fore
84 696 m 1,0,1
 84 719 84 719 100.5 736 c 128,-1,2
 117 753 117 753 140 753 c 256,3,4
 163 753 163 753 179.5 736 c 128,-1,5
 196 719 196 719 196 696 c 0,6,7
 196 675 196 675 179.5 658.5 c 128,-1,8
 163 642 163 642 140 642 c 256,9,10
 117 642 117 642 101.5 658.5 c 128,-1,11
 86 675 86 675 86 696 c 1,12,-1
 84 696 l 1,0,1
EndSplineSet
EndChar
StartChar: ring
Encoding: 730 730 207
Width: 280
VWidth: 1533
Flags: W
HStem: 644 37<89.1568 192.346> 828 37<89.1568 192.346>
VStem: 31 36<703.155 806.026> 213 37<702.571 806.611>
Fore
141 865 m 0,0,1
 187 865 187 865 218.5 832.5 c 128,-1,2
 250 800 250 800 250 754 c 256,3,4
 250 708 250 708 218.5 676 c 128,-1,5
 187 644 187 644 141 644 c 0,6,7
 97 644 97 644 64 676 c 128,-1,8
 31 708 31 708 31 754 c 256,9,10
 31 800 31 800 64 832.5 c 128,-1,11
 97 865 97 865 141 865 c 0,0,1
141 828 m 256,12,13
 110 828 110 828 88.5 806.5 c 128,-1,14
 67 785 67 785 67 754 c 256,15,16
 67 724 67 724 88.5 702.5 c 128,-1,17
 110 681 110 681 141 681 c 256,18,19
 172 681 172 681 192.5 702.5 c 128,-1,20
 213 724 213 724 213 754 c 256,21,22
 213 785 213 785 192.5 806.5 c 128,-1,23
 172 828 172 828 141 828 c 256,12,13
EndSplineSet
EndChar
StartChar: ogonek
Encoding: 731 731 208
Width: 280
VWidth: 1533
Flags: W
HStem: -239 38<91.4131 175.622> 11 4<196.232 242>
VStem: 3 75<-185.742 -87.7672>
Fore
245 11 m 1,0,1
 216 0 216 0 186 -14 c 128,-1,2
 156 -28 156 -28 132.5 -46 c 128,-1,3
 109 -64 109 -64 93.5 -87 c 128,-1,4
 78 -110 78 -110 78 -138 c 0,5,6
 78 -164 78 -164 92 -182.5 c 128,-1,7
 106 -201 106 -201 141 -201 c 0,8,9
 155 -201 155 -201 170.5 -195.5 c 128,-1,10
 186 -190 186 -190 201 -183 c 128,-1,11
 216 -176 216 -176 229 -167.5 c 128,-1,12
 242 -159 242 -159 251 -153 c 1,13,-1
 264 -176 l 1,14,15
 238 -196 238 -196 194 -217.5 c 128,-1,16
 150 -239 150 -239 100 -239 c 0,17,18
 55 -239 55 -239 29 -213 c 128,-1,19
 3 -187 3 -187 3 -147 c 0,20,21
 3 -113 3 -113 24.5 -87 c 128,-1,22
 46 -61 46 -61 79.5 -42 c 128,-1,23
 113 -23 113 -23 156 -9 c 128,-1,24
 199 5 199 5 242 15 c 1,25,-1
 245 11 l 1,0,1
EndSplineSet
EndChar
StartChar: tilde
Encoding: 732 732 209
Width: 360
VWidth: 1533
Flags: W
HStem: 681 118<0 360 336 336> 681 56<228.359 296.909> 736 55<63.5823 134.92>
Fore
0 681 m 1,0,1
 6 711 6 711 21 736 c 0,2,3
 34 757 34 757 55.5 774 c 128,-1,4
 77 791 77 791 112 791 c 0,5,6
 136 791 136 791 157.5 782.5 c 128,-1,7
 179 774 179 774 198.5 764 c 128,-1,8
 218 754 218 754 235.5 745.5 c 128,-1,9
 253 737 253 737 270 737 c 0,10,11
 288 737 288 737 300.5 746.5 c 128,-1,12
 313 756 313 756 320 768 c 0,13,14
 330 782 330 782 336 799 c 1,15,-1
 360 799 l 1,16,17
 354 765 354 765 340 739 c 0,18,19
 328 718 328 718 306 699.5 c 128,-1,20
 284 681 284 681 245 681 c 0,21,22
 219 681 219 681 199 689.5 c 128,-1,23
 179 698 179 698 162.5 708.5 c 128,-1,24
 146 719 146 719 129 727.5 c 128,-1,25
 112 736 112 736 92 736 c 0,26,27
 74 736 74 736 61 727.5 c 128,-1,28
 48 719 48 719 40 708 c 0,29,30
 31 696 31 696 26 681 c 1,31,-1
 0 681 l 1,0,1
EndSplineSet
EndChar
StartChar: hungarumlaut
Encoding: 733 733 210
Width: 280
VWidth: 1533
Flags: W
HStem: 650 193<121 149 2 133 285 285>
VStem: -31 353<652 808 369 500>
Fore
-31 652 m 1,0,-1
 100 826 l 2,1,2
 113 843 113 843 133 843 c 0,3,4
 149 843 149 843 159.5 833 c 128,-1,5
 170 823 170 823 170 808 c 0,6,7
 170 796 170 796 161 786 c 128,-1,8
 152 776 152 776 132 759 c 2,9,-1
 2 650 l 1,10,-1
 -31 652 l 1,0,-1
121 650 m 1,11,-1
 251 826 l 2,12,13
 265 843 265 843 285 843 c 0,14,15
 301 843 301 843 311.5 833 c 128,-1,16
 322 823 322 823 322 808 c 0,17,18
 322 796 322 796 313 786 c 128,-1,19
 304 776 304 776 284 759 c 2,20,-1
 153 650 l 1,21,-1
 121 650 l 1,11,-1
EndSplineSet
EndChar
StartChar: uni0E01
Encoding: 3585 3585 212
Width: 717
VWidth: 1533
Flags: W
HStem: 0 21G<92 169 549 626> 391 26<138 193> 593 31<276.904 398.402>
VStem: 92 77<0 332.931> 549 77<0 495.997>
Fore
549 0 m 1,0,-1
 549 422 l 2,1,2
 549 465 549 465 532 497 c 128,-1,3
 515 529 515 529 487.5 550.5 c 128,-1,4
 460 572 460 572 424 582.5 c 128,-1,5
 388 593 388 593 350 593 c 0,6,7
 310 593 310 593 273 581.5 c 128,-1,8
 236 570 236 570 207.5 547 c 128,-1,9
 179 524 179 524 160 491 c 128,-1,10
 141 458 141 458 138 417 c 1,11,-1
 238 417 l 1,12,-1
 238 386 l 1,13,14
 201 368 201 368 185 335 c 128,-1,15
 169 302 169 302 169 262 c 2,16,-1
 169 0 l 1,17,-1
 92 0 l 1,18,-1
 92 247 l 2,19,20
 92 299 92 299 116.5 338 c 128,-1,21
 141 377 141 377 193 391 c 1,22,-1
 58 391 l 1,23,24
 63 451 63 451 88 494.5 c 128,-1,25
 113 538 113 538 153 566.5 c 128,-1,26
 193 595 193 595 243.5 609.5 c 128,-1,27
 294 624 294 624 350 624 c 0,28,29
 400 624 400 624 450 612.5 c 128,-1,30
 500 601 500 601 539 575.5 c 128,-1,31
 578 550 578 550 602 509.5 c 128,-1,32
 626 469 626 469 626 411 c 2,33,-1
 626 0 l 1,34,-1
 549 0 l 1,0,-1
EndSplineSet
EndChar
StartChar: uni0E02
Encoding: 3586 3586 213
Width: 714
VWidth: 1533
Flags: W
HStem: 0 38<235 546> 293 38<100.171 213.079> 506 38<99.9183 213.079> 590 34<158.328 273.499>
VStem: 15 54<361.73 475.144> 158 77<38 210> 244 38<361.921 475.166> 351 68<353.549 485.876> 546 76<38 613>
Fore
158 0 m 1,0,-1
 158 221 l 1,1,2
 195 233 195 233 229.5 250 c 128,-1,3
 264 267 264 267 291.5 291.5 c 128,-1,4
 319 316 319 316 335 348 c 128,-1,5
 351 380 351 380 351 425 c 0,6,7
 351 457 351 457 341 487 c 128,-1,8
 331 517 331 517 312.5 540 c 128,-1,9
 294 563 294 563 266.5 576.5 c 128,-1,10
 239 590 239 590 205 590 c 0,11,12
 170 590 170 590 135.5 574 c 128,-1,13
 101 558 101 558 87 523 c 1,14,15
 118 544 118 544 156 544 c 0,16,17
 209 544 209 544 245.5 507.5 c 128,-1,18
 282 471 282 471 282 419 c 256,19,20
 282 366 282 366 245.5 329.5 c 128,-1,21
 209 293 209 293 156 293 c 0,22,23
 90 293 90 293 52.5 339 c 128,-1,24
 15 385 15 385 15 448 c 0,25,26
 15 489 15 489 33 522 c 128,-1,27
 51 555 51 555 79 577 c 128,-1,28
 107 599 107 599 144 611.5 c 128,-1,29
 181 624 181 624 219 624 c 0,30,31
 259 624 259 624 295 610 c 128,-1,32
 331 596 331 596 358.5 571 c 128,-1,33
 386 546 386 546 402.5 511.5 c 128,-1,34
 419 477 419 477 419 435 c 0,35,36
 419 392 419 392 404 357 c 128,-1,37
 389 322 389 322 364 293 c 128,-1,38
 339 264 339 264 306 243 c 128,-1,39
 273 222 273 222 235 210 c 1,40,-1
 235 38 l 1,41,-1
 546 38 l 1,42,-1
 546 613 l 1,43,-1
 622 613 l 1,44,-1
 622 0 l 1,45,-1
 158 0 l 1,0,-1
244 419 m 256,46,47
 244 454 244 454 218 480 c 128,-1,48
 192 506 192 506 156 506 c 256,49,50
 121 506 121 506 95 480 c 128,-1,51
 69 454 69 454 69 419 c 256,52,53
 69 383 69 383 95 357 c 128,-1,54
 121 331 121 331 156 331 c 256,55,56
 192 331 192 331 218 357 c 128,-1,57
 244 383 244 383 244 419 c 256,46,47
EndSplineSet
EndChar
StartChar: uni0E03
Encoding: 3587 3587 214
Width: 745
VWidth: 1533
Flags: W
HStem: 0 38<265 576> 287 38<100.171 213.079> 500 38<99.9183 213.079> 590 34<121.91 207.422 302.81 363.632>
VStem: 15 54<355.725 468.925> 189 76<38 210> 244 38<355.834 469.079> 402 69<373.432 495.785> 576 77<38 613>
Fore
189 0 m 1,0,-1
 189 221 l 1,1,2
 228 236 228 236 266.5 257 c 128,-1,3
 305 278 305 278 335 305.5 c 128,-1,4
 365 333 365 333 383.5 369.5 c 128,-1,5
 402 406 402 406 402 455 c 0,6,7
 402 474 402 474 398 497 c 128,-1,8
 394 520 394 520 385 540.5 c 128,-1,9
 376 561 376 561 360.5 575.5 c 128,-1,10
 345 590 345 590 320 590 c 0,11,12
 299 590 299 590 284.5 580 c 128,-1,13
 270 570 270 570 258 555 c 1,14,15
 241 575 241 575 223 582.5 c 128,-1,16
 205 590 205 590 179 590 c 0,17,18
 149 590 149 590 121.5 568.5 c 128,-1,19
 94 547 94 547 87 517 c 1,20,21
 118 538 118 538 156 538 c 0,22,23
 209 538 209 538 245.5 501.5 c 128,-1,24
 282 465 282 465 282 412 c 256,25,26
 282 360 282 360 245.5 323.5 c 128,-1,27
 209 287 209 287 156 287 c 0,28,29
 90 287 90 287 52.5 333 c 128,-1,30
 15 379 15 379 15 442 c 0,31,32
 15 475 15 475 26 508 c 128,-1,33
 37 541 37 541 57.5 567 c 128,-1,34
 78 593 78 593 108 608.5 c 128,-1,35
 138 624 138 624 175 624 c 0,36,37
 199 624 199 624 220 615.5 c 128,-1,38
 241 607 241 607 256 587 c 1,39,40
 268 604 268 604 289.5 614 c 128,-1,41
 311 624 311 624 333 624 c 0,42,43
 370 624 370 624 396 610 c 128,-1,44
 422 596 422 596 438.5 572.5 c 128,-1,45
 455 549 455 549 463 519 c 128,-1,46
 471 489 471 489 471 457 c 0,47,48
 471 414 471 414 453 375 c 128,-1,49
 435 336 435 336 407 303.5 c 128,-1,50
 379 271 379 271 341.5 247.5 c 128,-1,51
 304 224 304 224 265 210 c 1,52,-1
 265 38 l 1,53,-1
 576 38 l 1,54,-1
 576 613 l 1,55,-1
 653 613 l 1,56,-1
 653 0 l 1,57,-1
 189 0 l 1,0,-1
244 412 m 256,58,59
 244 448 244 448 218 474 c 128,-1,60
 192 500 192 500 156 500 c 256,61,62
 121 500 121 500 95 474 c 128,-1,63
 69 448 69 448 69 412 c 256,64,65
 69 377 69 377 95 351 c 128,-1,66
 121 325 121 325 156 325 c 256,67,68
 192 325 192 325 218 351 c 128,-1,69
 244 377 244 377 244 412 c 256,58,59
EndSplineSet
EndChar
StartChar: uni0E04
Encoding: 3588 3588 215
Width: 758
VWidth: 1533
Flags: W
HStem: 0 21G<95 178.063 590 667> 212 38<317.678 430.254> 425 38<317.817 430.234> 593 31<306.129 426.083>
VStem: 77 78<302.995 482.731> 97 70<128.162 180.504> 461 39<280.834 393.729> 590 77<0 493.513>
Fore
590 0 m 1,0,-1
 590 422 l 2,1,2
 590 463 590 463 571 494.5 c 128,-1,3
 552 526 552 526 521.5 548 c 128,-1,4
 491 570 491 570 453 581.5 c 128,-1,5
 415 593 415 593 379 593 c 0,6,7
 337 593 337 593 296.5 580 c 128,-1,8
 256 567 256 567 224.5 542 c 128,-1,9
 193 517 193 517 174 481 c 128,-1,10
 155 445 155 445 155 399 c 0,11,12
 155 327 155 327 162.5 258 c 128,-1,13
 170 189 170 189 167 117 c 1,14,-1
 241 353 l 2,15,16
 256 400 256 400 289 431.5 c 128,-1,17
 322 463 322 463 374 463 c 0,18,19
 428 463 428 463 464 427 c 128,-1,20
 500 391 500 391 500 337 c 0,21,22
 500 285 500 285 463 248.5 c 128,-1,23
 426 212 426 212 374 212 c 0,24,25
 339 212 339 212 306 232.5 c 128,-1,26
 273 253 273 253 259 287 c 1,27,-1
 172 0 l 1,28,-1
 95 0 l 1,29,-1
 97 55 l 2,30,31
 100 141 100 141 88.5 225.5 c 128,-1,32
 77 310 77 310 77 396 c 0,33,34
 77 455 77 455 105 498 c 128,-1,35
 133 541 133 541 177 568.5 c 128,-1,36
 221 596 221 596 274.5 610 c 128,-1,37
 328 624 328 624 379 624 c 0,38,39
 428 624 428 624 479 612.5 c 128,-1,40
 530 601 530 601 571.5 575.5 c 128,-1,41
 613 550 613 550 640 510.5 c 128,-1,42
 667 471 667 471 667 412 c 2,43,-1
 667 0 l 1,44,-1
 590 0 l 1,0,-1
461 337 m 256,45,46
 461 373 461 373 435 399 c 128,-1,47
 409 425 409 425 374 425 c 256,48,49
 339 425 339 425 313 399 c 128,-1,50
 287 373 287 373 287 337 c 256,51,52
 287 302 287 302 313 276 c 128,-1,53
 339 250 339 250 374 250 c 256,54,55
 409 250 409 250 435 276 c 128,-1,56
 461 302 461 302 461 337 c 256,45,46
EndSplineSet
EndChar
StartChar: uni0E05
Encoding: 3589 3589 216
Width: 758
VWidth: 1533
Flags: W
HStem: 0 21G<95 178.063 590 667> 212 38<317.678 430.254> 425 38<317.606 430.234> 587 39<218.804 317.589 433.603 539.272>
VStem: 72 78<318.065 445.631> 98 74<69 154.461> 461 39<280.834 393.729> 590 77<0 488.779>
Fore
590 0 m 1,0,-1
 590 448 l 2,1,2
 590 472 590 472 585 497.5 c 128,-1,3
 580 523 580 523 566.5 543 c 128,-1,4
 553 563 553 563 533.5 575 c 128,-1,5
 514 587 514 587 484 587 c 128,-1,6
 454 587 454 587 429.5 571 c 128,-1,7
 405 555 405 555 391 527 c 1,8,-1
 374 527 l 1,9,10
 363 555 363 555 338 571 c 128,-1,11
 313 587 313 587 284 587 c 0,12,13
 247 587 247 587 221.5 570 c 128,-1,14
 196 553 196 553 180 526.5 c 128,-1,15
 164 500 164 500 157 467 c 128,-1,16
 150 434 150 434 150 403 c 0,17,18
 150 334 150 334 159.5 266.5 c 128,-1,19
 169 199 169 199 172 130 c 1,20,21
 182 164 182 164 194.5 221 c 128,-1,22
 207 278 207 278 228.5 331.5 c 128,-1,23
 250 385 250 385 284.5 424 c 128,-1,24
 319 463 319 463 374 463 c 0,25,26
 428 463 428 463 464 427 c 128,-1,27
 500 391 500 391 500 337 c 0,28,29
 500 285 500 285 463 248.5 c 128,-1,30
 426 212 426 212 374 212 c 0,31,32
 339 212 339 212 306 232.5 c 128,-1,33
 273 253 273 253 259 287 c 1,34,-1
 172 0 l 1,35,-1
 95 0 l 1,36,37
 97 17 97 17 97.5 34.5 c 128,-1,38
 98 52 98 52 98 69 c 0,39,40
 98 152 98 152 85 234.5 c 128,-1,41
 72 317 72 317 72 400 c 0,42,43
 72 443 72 443 84.5 483.5 c 128,-1,44
 97 524 97 524 120.5 555.5 c 128,-1,45
 144 587 144 587 179.5 606.5 c 128,-1,46
 215 626 215 626 262 626 c 0,47,48
 297 626 297 626 331.5 613.5 c 128,-1,49
 366 601 366 601 383 566 c 1,50,51
 406 598 406 598 436 612 c 128,-1,52
 466 626 466 626 506 626 c 0,53,54
 581 626 581 626 624 580 c 128,-1,55
 667 534 667 534 667 460 c 2,56,-1
 667 0 l 1,57,-1
 590 0 l 1,0,-1
461 337 m 256,58,59
 461 373 461 373 435 399 c 128,-1,60
 409 425 409 425 374 425 c 256,61,62
 339 425 339 425 313 399 c 128,-1,63
 287 373 287 373 287 337 c 256,64,65
 287 302 287 302 313 276 c 128,-1,66
 339 250 339 250 374 250 c 256,67,68
 409 250 409 250 435 276 c 128,-1,69
 461 302 461 302 461 337 c 256,58,59
EndSplineSet
EndChar
StartChar: uni0E06
Encoding: 3590 3590 217
Width: 821
VWidth: 1533
Flags: W
HStem: -8 42<156.139 269.043> 218 42<162.456 263.016> 287 38<100.171 213.079> 500 38<99.9183 213.079> 590 34<121.91 207.422 303.711 373.751>
VStem: 15 54<355.725 468.925> 83 43<63.8906 183.991> 244 38<355.834 469.079> 293 77<119.866 184 248 278.236> 402 69<435.063 557.406> 653 77<46 613>
Fore
653 0 m 1,0,-1
 370 184 l 1,1,2
 370 143 370 143 365 107.5 c 128,-1,3
 360 72 360 72 345.5 46.5 c 128,-1,4
 331 21 331 21 302 6.5 c 128,-1,5
 273 -8 273 -8 224 -8 c 0,6,7
 166 -8 166 -8 124.5 28 c 128,-1,8
 83 64 83 64 83 126 c 0,9,10
 83 163 83 163 103.5 192 c 128,-1,11
 124 221 124 221 155.5 238.5 c 128,-1,12
 187 256 187 256 224 260 c 128,-1,13
 261 264 261 264 293 248 c 1,14,15
 293 291 293 291 310 317 c 128,-1,16
 327 343 327 343 347.5 366 c 128,-1,17
 368 389 368 389 385 415.5 c 128,-1,18
 402 442 402 442 402 486 c 0,19,20
 402 523 402 523 382.5 556.5 c 128,-1,21
 363 590 363 590 320 590 c 0,22,23
 299 590 299 590 284.5 580 c 128,-1,24
 270 570 270 570 258 555 c 1,25,26
 241 575 241 575 223 582.5 c 128,-1,27
 205 590 205 590 179 590 c 0,28,29
 149 590 149 590 121.5 568.5 c 128,-1,30
 94 547 94 547 87 517 c 1,31,32
 118 538 118 538 156 538 c 0,33,34
 209 538 209 538 245.5 501.5 c 128,-1,35
 282 465 282 465 282 412 c 256,36,37
 282 360 282 360 245.5 323.5 c 128,-1,38
 209 287 209 287 156 287 c 0,39,40
 90 287 90 287 52.5 333 c 128,-1,41
 15 379 15 379 15 442 c 0,42,43
 15 475 15 475 26 508 c 128,-1,44
 37 541 37 541 57.5 567 c 128,-1,45
 78 593 78 593 108 608.5 c 128,-1,46
 138 624 138 624 175 624 c 0,47,48
 199 624 199 624 220 615.5 c 128,-1,49
 241 607 241 607 256 587 c 1,50,51
 270 607 270 607 293 615.5 c 128,-1,52
 316 624 316 624 339 624 c 0,53,54
 402 624 402 624 436.5 586.5 c 128,-1,55
 471 549 471 549 471 488 c 0,56,57
 471 458 471 458 463 440 c 128,-1,58
 455 422 455 422 444.5 408 c 128,-1,59
 434 394 434 394 420 380 c 128,-1,60
 406 366 406 366 395.5 346.5 c 128,-1,61
 385 327 385 327 377.5 298.5 c 128,-1,62
 370 270 370 270 370 227 c 1,63,-1
 653 46 l 1,64,-1
 653 613 l 1,65,-1
 730 613 l 1,66,-1
 730 0 l 1,67,-1
 653 0 l 1,0,-1
244 412 m 256,68,69
 244 448 244 448 218 474 c 128,-1,70
 192 500 192 500 156 500 c 256,71,72
 121 500 121 500 95 474 c 128,-1,73
 69 448 69 448 69 412 c 256,74,75
 69 377 69 377 95 351 c 128,-1,76
 121 325 121 325 156 325 c 256,77,78
 192 325 192 325 218 351 c 128,-1,79
 244 377 244 377 244 412 c 256,68,69
293 210 m 1,80,81
 279 216 279 216 263.5 217 c 128,-1,82
 248 218 248 218 233 218 c 0,83,84
 192 218 192 218 159 194 c 128,-1,85
 126 170 126 170 126 126 c 0,86,87
 126 86 126 86 151 60 c 128,-1,88
 176 34 176 34 216 34 c 256,89,90
 256 34 256 34 274.5 63 c 128,-1,91
 293 92 293 92 293 127 c 2,92,-1
 293 210 l 1,80,81
EndSplineSet
EndChar
StartChar: uni0E07
Encoding: 3591 3591 218
Width: 625
VWidth: 1533
Flags: W
HStem: 0 38<297 455> 371 38<318.128 418.242> 583 41<317.923 430.185>
VStem: 250 38<439.159 553.486> 455 77<38 399 439.963 552.635>
Fore
270 0 m 1,0,1
 256 38 256 38 226 93.5 c 128,-1,2
 196 149 196 149 158 203.5 c 128,-1,3
 120 258 120 258 78.5 303 c 128,-1,4
 37 348 37 348 0 366 c 1,5,-1
 67 414 l 1,6,7
 103 392 103 392 139.5 346.5 c 128,-1,8
 176 301 176 301 208.5 245.5 c 128,-1,9
 241 190 241 190 264.5 134 c 128,-1,10
 288 78 288 78 297 38 c 1,11,-1
 455 38 l 1,12,-1
 455 399 l 1,13,14
 438 383 438 383 417 377 c 128,-1,15
 396 371 396 371 374 371 c 0,16,17
 322 371 322 371 286 408 c 128,-1,18
 250 445 250 445 250 497 c 0,19,20
 250 553 250 553 288.5 588.5 c 128,-1,21
 327 624 327 624 382 624 c 0,22,23
 454 624 454 624 493 580.5 c 128,-1,24
 532 537 532 537 532 468 c 2,25,-1
 532 0 l 1,26,-1
 270 0 l 1,0,1
461 497 m 256,27,28
 461 532 461 532 435 557.5 c 128,-1,29
 409 583 409 583 374 583 c 256,30,31
 339 583 339 583 313.5 557.5 c 128,-1,32
 288 532 288 532 288 497 c 256,33,34
 288 461 288 461 313.5 435 c 128,-1,35
 339 409 339 409 374 409 c 256,36,37
 409 409 409 409 435 435 c 128,-1,38
 461 461 461 461 461 497 c 256,27,28
EndSplineSet
EndChar
StartChar: uni0E08
Encoding: 3592 3592 219
Width: 650
VWidth: 1533
Flags: W
HStem: 0 21G<472.548 558> 156 39<206.598 320.355> 370 38<207.279 320.124> 593 29<216.696 359.562>
VStem: 0 84<394 467.235> 136 40<225.766 338.439> 489 69<104 192.453> 512 77<265.407 493.536>
Fore
589 391 m 0,0,1
 589 293 589 293 573.5 195.5 c 128,-1,2
 558 98 558 98 558 0 c 1,3,-1
 481 0 l 1,4,-1
 380 239 l 1,5,6
 368 202 368 202 334.5 179 c 128,-1,7
 301 156 301 156 262 156 c 0,8,9
 209 156 209 156 172.5 192 c 128,-1,10
 136 228 136 228 136 282 c 256,11,12
 136 336 136 336 172.5 372 c 128,-1,13
 209 408 209 408 262 408 c 0,14,15
 310 408 310 408 341.5 384 c 128,-1,16
 373 360 373 360 391 317 c 2,17,-1
 491 83 l 1,18,-1
 489 104 l 2,19,20
 488 182 488 182 500 259.5 c 128,-1,21
 512 337 512 337 512 415 c 0,22,23
 512 458 512 458 495 492 c 128,-1,24
 478 526 478 526 450.5 548 c 128,-1,25
 423 570 423 570 386.5 581.5 c 128,-1,26
 350 593 350 593 310 593 c 0,27,28
 267 593 267 593 226.5 579.5 c 128,-1,29
 186 566 186 566 154.5 540 c 128,-1,30
 123 514 123 514 103.5 477 c 128,-1,31
 84 440 84 440 84 394 c 1,32,-1
 0 394 l 1,33,34
 8 451 8 451 37 494 c 128,-1,35
 66 537 66 537 109 566 c 128,-1,36
 152 595 152 595 204 608.5 c 128,-1,37
 256 622 256 622 310 622 c 0,38,39
 366 622 366 622 417 609 c 128,-1,40
 468 596 468 596 506 568.5 c 128,-1,41
 544 541 544 541 566.5 497.5 c 128,-1,42
 589 454 589 454 589 391 c 0,0,1
351 282 m 256,43,44
 351 317 351 317 325 343.5 c 128,-1,45
 299 370 299 370 264 370 c 256,46,47
 228 370 228 370 202 343.5 c 128,-1,48
 176 317 176 317 176 282 c 256,49,50
 176 247 176 247 202 221 c 128,-1,51
 228 195 228 195 264 195 c 256,52,53
 299 195 299 195 325 221 c 128,-1,54
 351 247 351 247 351 282 c 256,43,44
EndSplineSet
EndChar
StartChar: uni0E09
Encoding: 3593 3593 220
Width: 788
VWidth: 1533
Flags: W
HStem: -12 32<543.29 661.545> 156 39<84.0924 183.246> 368 41<83.1381 197.053> 593 31<326.803 442.793>
VStem: 15 39<224.912 339.22> 58 78<449.596 523.327> 221 80<66 132.582 132.582 184 225.954 283.373> 618 77<285 502.965> 699 37<57.1613 176.016>
Fore
736 120 m 0,0,1
 736 66 736 66 697 27 c 128,-1,2
 658 -12 658 -12 604 -12 c 0,3,4
 569 -12 569 -12 541.5 3 c 128,-1,5
 514 18 514 18 496 42.5 c 128,-1,6
 478 67 478 67 473 99.5 c 128,-1,7
 468 132 468 132 478 164 c 1,8,9
 429 129 429 129 383 87.5 c 128,-1,10
 337 46 337 46 299 0 c 1,11,-1
 221 0 l 1,12,-1
 221 184 l 1,13,14
 204 169 204 169 182.5 162.5 c 128,-1,15
 161 156 161 156 140 156 c 0,16,17
 87 156 87 156 51 193 c 128,-1,18
 15 230 15 230 15 282 c 0,19,20
 15 339 15 339 53.5 374 c 128,-1,21
 92 409 92 409 147 409 c 0,22,23
 219 409 219 409 251.5 373 c 128,-1,24
 284 337 284 337 294.5 285 c 128,-1,25
 305 233 305 233 301 173 c 128,-1,26
 297 113 297 113 297 66 c 1,27,28
 362 136 362 136 445.5 193 c 128,-1,29
 529 250 529 250 618 285 c 1,30,-1
 618 422 l 2,31,32
 618 471 618 471 596.5 504 c 128,-1,33
 575 537 575 537 541 556.5 c 128,-1,34
 507 576 507 576 466 584.5 c 128,-1,35
 425 593 425 593 383 593 c 0,36,37
 345 593 345 593 304.5 584.5 c 128,-1,38
 264 576 264 576 229.5 558 c 128,-1,39
 195 540 195 540 169.5 510 c 128,-1,40
 144 480 144 480 136 437 c 1,41,-1
 58 437 l 1,42,43
 67 492 67 492 101.5 528 c 128,-1,44
 136 564 136 564 183 585.5 c 128,-1,45
 230 607 230 607 283 615.5 c 128,-1,46
 336 624 336 624 383 624 c 0,47,48
 437 624 437 624 492 615 c 128,-1,49
 547 606 547 606 592.5 582 c 128,-1,50
 638 558 638 558 666.5 516.5 c 128,-1,51
 695 475 695 475 695 409 c 2,52,-1
 695 278 l 1,53,54
 675 274 675 274 657 266.5 c 128,-1,55
 639 259 639 259 622 250 c 1,56,57
 672 242 672 242 704 205.5 c 128,-1,58
 736 169 736 169 736 120 c 0,0,1
699 117 m 256,59,60
 699 155 699 155 670 184 c 128,-1,61
 641 213 641 213 603 213 c 256,62,63
 564 213 564 213 535 184 c 128,-1,64
 506 155 506 155 506 117 c 256,65,66
 506 78 506 78 535 49 c 128,-1,67
 564 20 564 20 603 20 c 256,68,69
 641 20 641 20 670 49 c 128,-1,70
 699 78 699 78 699 117 c 256,59,60
227 282 m 256,71,72
 227 317 227 317 201 342.5 c 128,-1,73
 175 368 175 368 140 368 c 256,74,75
 104 368 104 368 79 342.5 c 128,-1,76
 54 317 54 317 54 282 c 256,77,78
 54 247 54 247 79 221 c 128,-1,79
 104 195 104 195 140 195 c 256,80,81
 175 195 175 195 201 221 c 128,-1,82
 227 247 227 247 227 282 c 256,71,72
EndSplineSet
EndChar
StartChar: uni0E0A
Encoding: 3594 3594 221
Width: 714
VWidth: 1533
Flags: W
HStem: 0 38<235 546> 293 38<100.171 213.079> 506 38<99.9183 213.079> 590 34<158.328 273.499>
VStem: 15 54<361.73 475.144> 158 77<38 210> 244 38<361.921 475.166> 351 68<353.549 485.876> 546 76<38 439.129>
Fore
650 613 m 1,0,1
 649 595 649 595 635.5 576 c 128,-1,2
 622 557 622 557 604 540 c 128,-1,3
 586 523 586 523 565 509 c 128,-1,4
 544 495 544 495 529 488 c 1,5,6
 564 474 564 474 593 447 c 128,-1,7
 622 420 622 420 622 379 c 2,8,-1
 622 0 l 1,9,-1
 158 0 l 1,10,-1
 158 221 l 1,11,12
 195 233 195 233 229.5 250 c 128,-1,13
 264 267 264 267 291.5 291.5 c 128,-1,14
 319 316 319 316 335 348 c 128,-1,15
 351 380 351 380 351 425 c 0,16,17
 351 457 351 457 341 487 c 128,-1,18
 331 517 331 517 312.5 540 c 128,-1,19
 294 563 294 563 266.5 576.5 c 128,-1,20
 239 590 239 590 205 590 c 0,21,22
 170 590 170 590 135.5 574 c 128,-1,23
 101 558 101 558 87 523 c 1,24,25
 118 544 118 544 156 544 c 0,26,27
 209 544 209 544 245.5 507.5 c 128,-1,28
 282 471 282 471 282 419 c 256,29,30
 282 366 282 366 245.5 329.5 c 128,-1,31
 209 293 209 293 156 293 c 0,32,33
 90 293 90 293 52.5 339 c 128,-1,34
 15 385 15 385 15 448 c 0,35,36
 15 489 15 489 33 522 c 128,-1,37
 51 555 51 555 79 577 c 128,-1,38
 107 599 107 599 144 611.5 c 128,-1,39
 181 624 181 624 219 624 c 0,40,41
 259 624 259 624 295 610 c 128,-1,42
 331 596 331 596 358.5 571 c 128,-1,43
 386 546 386 546 402.5 511.5 c 128,-1,44
 419 477 419 477 419 435 c 0,45,46
 419 392 419 392 404 357 c 128,-1,47
 389 322 389 322 364 293 c 128,-1,48
 339 264 339 264 306 243 c 128,-1,49
 273 222 273 222 235 210 c 1,50,-1
 235 38 l 1,51,-1
 546 38 l 1,52,-1
 546 377 l 2,53,54
 546 422 546 422 525 446.5 c 128,-1,55
 504 471 504 471 466 488 c 1,56,57
 501 506 501 506 525.5 539.5 c 128,-1,58
 550 573 550 573 557 613 c 1,59,-1
 650 613 l 1,0,1
244 419 m 256,60,61
 244 454 244 454 218 480 c 128,-1,62
 192 506 192 506 156 506 c 256,63,64
 121 506 121 506 95 480 c 128,-1,65
 69 454 69 454 69 419 c 256,66,67
 69 383 69 383 95 357 c 128,-1,68
 121 331 121 331 156 331 c 256,69,70
 192 331 192 331 218 357 c 128,-1,71
 244 383 244 383 244 419 c 256,60,61
EndSplineSet
EndChar
StartChar: uni0E0B
Encoding: 3595 3595 222
Width: 745
VWidth: 1533
Flags: W
HStem: 0 38<265 576> 287 38<100.171 213.079> 500 38<99.9183 213.079> 590 34<121.91 207.422 302.81 363.632>
VStem: 15 54<355.725 468.925> 189 76<38 210> 244 38<355.834 469.079> 402 69<373.432 495.785> 576 77<38 439.129>
Fore
681 613 m 1,0,1
 679 595 679 595 666 576 c 128,-1,2
 653 557 653 557 634.5 540 c 128,-1,3
 616 523 616 523 595.5 509 c 128,-1,4
 575 495 575 495 560 488 c 1,5,6
 595 474 595 474 624 447 c 128,-1,7
 653 420 653 420 653 379 c 2,8,-1
 653 0 l 1,9,-1
 189 0 l 1,10,-1
 189 221 l 1,11,12
 228 236 228 236 266.5 257 c 128,-1,13
 305 278 305 278 335 305.5 c 128,-1,14
 365 333 365 333 383.5 369.5 c 128,-1,15
 402 406 402 406 402 455 c 0,16,17
 402 474 402 474 398 497 c 128,-1,18
 394 520 394 520 385 540.5 c 128,-1,19
 376 561 376 561 360.5 575.5 c 128,-1,20
 345 590 345 590 320 590 c 0,21,22
 299 590 299 590 284.5 580 c 128,-1,23
 270 570 270 570 258 555 c 1,24,25
 241 575 241 575 223 582.5 c 128,-1,26
 205 590 205 590 179 590 c 0,27,28
 149 590 149 590 121.5 568.5 c 128,-1,29
 94 547 94 547 87 517 c 1,30,31
 118 538 118 538 156 538 c 0,32,33
 209 538 209 538 245.5 501.5 c 128,-1,34
 282 465 282 465 282 412 c 256,35,36
 282 360 282 360 245.5 323.5 c 128,-1,37
 209 287 209 287 156 287 c 0,38,39
 90 287 90 287 52.5 333 c 128,-1,40
 15 379 15 379 15 442 c 0,41,42
 15 475 15 475 26 508 c 128,-1,43
 37 541 37 541 57.5 567 c 128,-1,44
 78 593 78 593 108 608.5 c 128,-1,45
 138 624 138 624 175 624 c 0,46,47
 199 624 199 624 220 615.5 c 128,-1,48
 241 607 241 607 256 587 c 1,49,50
 268 604 268 604 289.5 614 c 128,-1,51
 311 624 311 624 333 624 c 0,52,53
 370 624 370 624 396 610 c 128,-1,54
 422 596 422 596 438.5 572.5 c 128,-1,55
 455 549 455 549 463 519 c 128,-1,56
 471 489 471 489 471 457 c 0,57,58
 471 414 471 414 453 375 c 128,-1,59
 435 336 435 336 407 303.5 c 128,-1,60
 379 271 379 271 341.5 247.5 c 128,-1,61
 304 224 304 224 265 210 c 1,62,-1
 265 38 l 1,63,-1
 576 38 l 1,64,-1
 576 377 l 2,65,66
 576 422 576 422 555.5 446.5 c 128,-1,67
 535 471 535 471 497 488 c 1,68,69
 532 506 532 506 556.5 539.5 c 128,-1,70
 581 573 581 573 587 613 c 1,71,-1
 681 613 l 1,0,1
244 412 m 256,72,73
 244 448 244 448 218 474 c 128,-1,74
 192 500 192 500 156 500 c 256,75,76
 121 500 121 500 95 474 c 128,-1,77
 69 448 69 448 69 412 c 256,78,79
 69 377 69 377 95 351 c 128,-1,80
 121 325 121 325 156 325 c 256,81,82
 192 325 192 325 218 351 c 128,-1,83
 244 377 244 377 244 412 c 256,72,73
EndSplineSet
EndChar
StartChar: uni0E0C
Encoding: 3596 3596 223
Width: 1068
VWidth: 1533
Flags: W
HStem: -8 42<200.078 299.201 553.746 666.459> 207 38<205.758 305.872> 391 26<138 193> 593 31<276.904 462.839>
VStem: 92 77<63.7842 176.046 218 243.273 243.273 247 247 301.47> 336 38<62.8256 176.584> 484 39<58.7461 171.105> 549 77<270 328.546 328.546 381.451> 698 38<59.4213 150.961> 900 77<66 613>
Fore
898 0 m 1,0,1
 863 44 863 44 819.5 83.5 c 128,-1,2
 776 123 776 123 730 156 c 1,3,4
 736 138 736 138 736 115 c 0,5,6
 736 63 736 63 699 26 c 128,-1,7
 662 -11 662 -11 610 -11 c 256,8,9
 558 -11 558 -11 521 26 c 128,-1,10
 484 63 484 63 484 115 c 0,11,12
 484 163 484 163 517 198 c 128,-1,13
 550 233 550 233 596 241 c 1,14,-1
 549 268 l 1,15,16
 549 330 549 330 548 389 c 128,-1,17
 547 448 547 448 530.5 493 c 128,-1,18
 514 538 514 538 472.5 565.5 c 128,-1,19
 431 593 431 593 350 593 c 0,20,21
 310 593 310 593 273 581.5 c 128,-1,22
 236 570 236 570 207.5 547 c 128,-1,23
 179 524 179 524 160 491 c 128,-1,24
 141 458 141 458 138 417 c 1,25,-1
 238 417 l 1,26,-1
 238 386 l 1,27,28
 210 373 210 373 196 354.5 c 128,-1,29
 182 336 182 336 176 314.5 c 128,-1,30
 170 293 170 293 169.5 268.5 c 128,-1,31
 169 244 169 244 169 218 c 1,32,33
 186 233 186 233 207 239 c 128,-1,34
 228 245 228 245 250 245 c 0,35,36
 302 245 302 245 338 208.5 c 128,-1,37
 374 172 374 172 374 120 c 0,38,39
 374 63 374 63 335.5 27.5 c 128,-1,40
 297 -8 297 -8 242 -8 c 0,41,42
 170 -8 170 -8 131 36 c 128,-1,43
 92 80 92 80 92 149 c 2,44,-1
 92 247 l 2,45,46
 92 299 92 299 116.5 338 c 128,-1,47
 141 377 141 377 193 391 c 1,48,-1
 58 391 l 1,49,50
 63 451 63 451 88 494.5 c 128,-1,51
 113 538 113 538 153 566.5 c 128,-1,52
 193 595 193 595 243.5 609.5 c 128,-1,53
 294 624 294 624 350 624 c 0,54,55
 448 624 448 624 504 600 c 128,-1,56
 560 576 560 576 586.5 531 c 128,-1,57
 613 486 613 486 619.5 420 c 128,-1,58
 626 354 626 354 626 270 c 1,59,60
 702 232 702 232 771 179 c 128,-1,61
 840 126 840 126 900 66 c 1,62,-1
 900 613 l 1,63,-1
 977 613 l 1,64,-1
 977 0 l 1,65,-1
 898 0 l 1,0,1
698 115 m 256,66,67
 698 150 698 150 671.5 176 c 128,-1,68
 645 202 645 202 610 202 c 256,69,70
 575 202 575 202 549 176 c 128,-1,71
 523 150 523 150 523 115 c 256,72,73
 523 80 523 80 549 54 c 128,-1,74
 575 28 575 28 610 28 c 256,75,76
 645 28 645 28 671.5 54 c 128,-1,77
 698 80 698 80 698 115 c 256,66,67
336 120 m 256,78,79
 336 155 336 155 310.5 181 c 128,-1,80
 285 207 285 207 250 207 c 256,81,82
 215 207 215 207 189 181 c 128,-1,83
 163 155 163 155 163 120 c 256,84,85
 163 84 163 84 189 59 c 128,-1,86
 215 34 215 34 250 34 c 256,87,88
 285 34 285 34 310.5 59 c 128,-1,89
 336 84 336 84 336 120 c 256,78,79
EndSplineSet
EndChar
StartChar: uni0E0D
Encoding: 3597 3597 224
Width: 1068
VWidth: 1533
Flags: W
HStem: -279 34<730 798.514> -279 49<639.076 760.557> -71 40<605.431 716.569> -8 42<192.463 307.178> 0 38<626 900> 207 38<205.758 305.872> 391 26<138 193> 593 31<276.904 399.184>
VStem: 92 77<63.7842 176.046 218 243.273 243.273 247 247 301.47> 336 38<62.8256 176.584> 543 38<-205.47 -95.6858> 549 77<38 495.997> 741 38<-203.37 -95.6858> 900 77<-119.421 -49 38 613>
Fore
549 0 m 1,0,-1
 549 422 l 2,1,2
 549 465 549 465 532 497 c 128,-1,3
 515 529 515 529 487.5 550.5 c 128,-1,4
 460 572 460 572 424 582.5 c 128,-1,5
 388 593 388 593 350 593 c 0,6,7
 310 593 310 593 273 581.5 c 128,-1,8
 236 570 236 570 207.5 547 c 128,-1,9
 179 524 179 524 160 491 c 128,-1,10
 141 458 141 458 138 417 c 1,11,-1
 238 417 l 1,12,-1
 238 386 l 1,13,14
 210 373 210 373 196 354.5 c 128,-1,15
 182 336 182 336 176 314.5 c 128,-1,16
 170 293 170 293 169.5 268.5 c 128,-1,17
 169 244 169 244 169 218 c 1,18,19
 186 233 186 233 207 239 c 128,-1,20
 228 245 228 245 250 245 c 0,21,22
 302 245 302 245 338 208.5 c 128,-1,23
 374 172 374 172 374 120 c 0,24,25
 374 63 374 63 335.5 27.5 c 128,-1,26
 297 -8 297 -8 242 -8 c 0,27,28
 170 -8 170 -8 131 36 c 128,-1,29
 92 80 92 80 92 149 c 2,30,-1
 92 247 l 2,31,32
 92 299 92 299 116.5 338 c 128,-1,33
 141 377 141 377 193 391 c 1,34,-1
 58 391 l 1,35,36
 63 451 63 451 88 494.5 c 128,-1,37
 113 538 113 538 153 566.5 c 128,-1,38
 193 595 193 595 243.5 609.5 c 128,-1,39
 294 624 294 624 350 624 c 0,40,41
 400 624 400 624 450 613.5 c 128,-1,42
 500 603 500 603 539 577.5 c 128,-1,43
 578 552 578 552 602 511.5 c 128,-1,44
 626 471 626 471 626 411 c 2,45,-1
 626 38 l 1,46,-1
 900 38 l 1,47,-1
 900 613 l 1,48,-1
 977 613 l 1,49,-1
 977 0 l 1,50,-1
 549 0 l 1,0,-1
974 -49 m 1,51,52
 971 -100 971 -100 948 -142 c 128,-1,53
 925 -184 925 -184 888.5 -214.5 c 128,-1,54
 852 -245 852 -245 806 -262 c 128,-1,55
 760 -279 760 -279 713 -279 c 0,56,57
 681 -279 681 -279 651 -272 c 128,-1,58
 621 -265 621 -265 596.5 -250.5 c 128,-1,59
 572 -236 572 -236 557.5 -211 c 128,-1,60
 543 -186 543 -186 543 -149 c 0,61,62
 543 -100 543 -100 577.5 -65.5 c 128,-1,63
 612 -31 612 -31 661 -31 c 256,64,65
 710 -31 710 -31 744.5 -65.5 c 128,-1,66
 779 -100 779 -100 779 -149 c 0,67,68
 779 -176 779 -176 765 -202 c 128,-1,69
 751 -228 751 -228 730 -245 c 1,70,71
 768 -244 768 -244 799.5 -227 c 128,-1,72
 831 -210 831 -210 853 -182.5 c 128,-1,73
 875 -155 875 -155 887.5 -120.5 c 128,-1,74
 900 -86 900 -86 900 -49 c 1,75,-1
 974 -49 l 1,51,52
741 -150 m 256,76,77
 741 -117 741 -117 718 -94 c 128,-1,78
 695 -71 695 -71 661 -71 c 256,79,80
 627 -71 627 -71 604 -94 c 128,-1,81
 581 -117 581 -117 581 -150 c 256,82,83
 581 -184 581 -184 604 -207 c 128,-1,84
 627 -230 627 -230 661 -230 c 256,85,86
 695 -230 695 -230 718 -207 c 128,-1,87
 741 -184 741 -184 741 -150 c 256,76,77
336 120 m 256,88,89
 336 155 336 155 310.5 181 c 128,-1,90
 285 207 285 207 250 207 c 256,91,92
 215 207 215 207 189 181 c 128,-1,93
 163 155 163 155 163 120 c 256,94,95
 163 84 163 84 189 59 c 128,-1,96
 215 34 215 34 250 34 c 256,97,98
 285 34 285 34 310.5 59 c 128,-1,99
 336 84 336 84 336 120 c 256,88,89
EndSplineSet
Substitution2: "Single Substitution lookup 22 subtable" uni0E0D.alt1
Substitution2: "Single Substitution lookup 22 subtable" uni0E0D.alt1
EndChar
StartChar: uni0E0E
Encoding: 3598 3598 225
Width: 846
VWidth: 1533
Flags: W
HStem: -245.5 38<220.469 227.5 251.5 255.917 255.917 266.788 261.353 346.386> -93.5 34.5<292.437 382.5 402.5 438.096 595.625 636> -86.5 37<222.016 232 257 265.099 265.099 274.062 269.58 371.647> -8 42<82.7354 197.042> 207 38<84.0924 183.914> 391 26<267 328> 593 31<405.479 527.992>
VStem: 15 39<62.4229 177.667> 115 69<-179.827 -119.786> 227 67.5<106.855 176.046 219.134 281.638> 678 76<-193 495.997>
Fore
678 -245 m 1,0,1
 638 -216 638 -216 598 -190 c 128,-1,2
 558 -164 558 -164 514 -143 c 1,3,4
 483 -163 483 -163 457 -182 c 128,-1,5
 431 -201 431 -201 405 -216.5 c 128,-1,6
 379 -232 379 -232 348 -241 c 128,-1,7
 317 -250 317 -250 278 -250 c 0,8,9
 256 -250 256 -250 227.5 -245.5 c 128,-1,10
 199 -241 199 -241 174 -229.5 c 128,-1,11
 149 -218 149 -218 132 -198.5 c 128,-1,12
 115 -179 115 -179 115 -152 c 0,13,14
 115 -121 115 -121 132.5 -100.5 c 128,-1,15
 150 -80 150 -80 176 -67.5 c 128,-1,16
 202 -55 202 -55 232 -49.5 c 128,-1,17
 262 -44 262 -44 287 -44 c 0,18,19
 345 -44 345 -44 402.5 -59 c 128,-1,20
 460 -74 460 -74 514 -97 c 1,21,22
 573 -63 573 -63 636 -52 c 1,23,-1
 636 -89 l 1,24,25
 615 -94 615 -94 595 -100 c 128,-1,26
 575 -106 575 -106 557 -117 c 1,27,28
 590 -133 590 -133 619.5 -152.5 c 128,-1,29
 649 -172 649 -172 678 -193 c 1,30,-1
 678 422 l 2,31,32
 678 465 678 465 661 497 c 128,-1,33
 644 529 644 529 616.5 550.5 c 128,-1,34
 589 572 589 572 553 582.5 c 128,-1,35
 517 593 517 593 478 593 c 0,36,37
 438 593 438 593 401.5 581.5 c 128,-1,38
 365 570 365 570 336.5 547 c 128,-1,39
 308 524 308 524 289 491 c 128,-1,40
 270 458 270 458 267 417 c 1,41,-1
 366 417 l 1,42,-1
 366 386 l 1,43,44
 325 370 325 370 311 333.5 c 128,-1,45
 297 297 297 297 295 253.5 c 128,-1,46
 293 210 293 210 294.5 164 c 128,-1,47
 296 118 296 118 285 79.5 c 128,-1,48
 274 41 274 41 243.5 16.5 c 128,-1,49
 213 -8 213 -8 147 -8 c 0,50,51
 92 -8 92 -8 53.5 27.5 c 128,-1,52
 15 63 15 63 15 120 c 0,53,54
 15 172 15 172 51 208.5 c 128,-1,55
 87 245 87 245 140 245 c 0,56,57
 161 245 161 245 182.5 239 c 128,-1,58
 204 233 204 233 221 218 c 1,59,60
 221 255 221 255 223 282.5 c 128,-1,61
 225 310 225 310 235 330.5 c 128,-1,62
 245 351 245 351 266.5 366.5 c 128,-1,63
 288 382 288 382 328 391 c 1,64,-1
 187 391 l 1,65,66
 192 451 192 451 217 494.5 c 128,-1,67
 242 538 242 538 282 566.5 c 128,-1,68
 322 595 322 595 372.5 609.5 c 128,-1,69
 423 624 423 624 478 624 c 0,70,71
 529 624 529 624 579 613.5 c 128,-1,72
 629 603 629 603 668 577.5 c 128,-1,73
 707 552 707 552 730.5 511.5 c 128,-1,74
 754 471 754 471 754 411 c 2,75,-1
 754 -245 l 1,76,-1
 678 -245 l 1,0,1
227 120 m 256,77,78
 227 155 227 155 201 181 c 128,-1,79
 175 207 175 207 140 207 c 256,80,81
 104 207 104 207 79 181 c 128,-1,82
 54 155 54 155 54 120 c 256,83,84
 54 84 54 84 79 59 c 128,-1,85
 104 34 104 34 140 34 c 256,86,87
 175 34 175 34 201 59 c 128,-1,88
 227 84 227 84 227 120 c 256,77,78
471 -123 m 1,89,90
 428 -104 428 -104 382.5 -93.5 c 128,-1,91
 337 -83 337 -83 291 -83 c 0,92,93
 276 -83 276 -83 257 -86.5 c 128,-1,94
 238 -90 238 -90 221.5 -98 c 128,-1,95
 205 -106 205 -106 194.5 -119 c 128,-1,96
 184 -132 184 -132 184 -152 c 0,97,98
 184 -169 184 -169 194.5 -180.5 c 128,-1,99
 205 -192 205 -192 220 -198.5 c 128,-1,100
 235 -205 235 -205 251.5 -207.5 c 128,-1,101
 268 -210 268 -210 282 -210 c 0,102,103
 337 -210 337 -210 381.5 -181.5 c 128,-1,104
 426 -153 426 -153 471 -123 c 1,89,90
EndSplineSet
Substitution2: "Single Substitution lookup 22 subtable" uni0E0E.alt1
Substitution2: "Single Substitution lookup 22 subtable" uni0E0E.alt1
EndChar
StartChar: uni0E0F
Encoding: 3599 3599 226
Width: 846
VWidth: 1533
Flags: W
HStem: -259 40<145.647 218.928> -92 38<154.535 262.429> -8 42<82.7354 197.042> 207 38<84.0924 183.914> 391 26<267 328> 593 31<405.479 527.204>
VStem: 15 39<62.4229 177.667> 61 54<-195.811 -115.187> 227 67.5<106.855 176.046 219.134 281.638> 678 76<-193 495.997>
Fore
678 -245 m 1,0,-1
 573 -147 l 1,1,-1
 466 -253 l 1,2,3
 445 -224 445 -224 418.5 -198.5 c 128,-1,4
 392 -173 392 -173 363 -152 c 1,5,6
 342 -172 342 -172 323.5 -191 c 128,-1,7
 305 -210 305 -210 284.5 -225.5 c 128,-1,8
 264 -241 264 -241 240 -250 c 128,-1,9
 216 -259 216 -259 184 -259 c 0,10,11
 161 -259 161 -259 139.5 -253 c 128,-1,12
 118 -247 118 -247 100.5 -235.5 c 128,-1,13
 83 -224 83 -224 72 -205.5 c 128,-1,14
 61 -187 61 -187 61 -161 c 256,15,16
 61 -135 61 -135 74 -115 c 128,-1,17
 87 -95 87 -95 106.5 -81 c 128,-1,18
 126 -67 126 -67 150.5 -60.5 c 128,-1,19
 175 -54 175 -54 198 -54 c 0,20,21
 244 -54 244 -54 284 -67.5 c 128,-1,22
 324 -81 324 -81 363 -104 c 1,23,24
 385 -89 385 -89 408 -78 c 128,-1,25
 431 -67 431 -67 457 -61 c 1,26,-1
 457 -98 l 1,27,28
 422 -109 422 -109 396 -126 c 1,29,30
 417 -143 417 -143 435.5 -160.5 c 128,-1,31
 454 -178 454 -178 471 -198 c 1,32,-1
 573 -97 l 1,33,-1
 678 -193 l 1,34,-1
 678 422 l 2,35,36
 678 465 678 465 661 497 c 128,-1,37
 644 529 644 529 616.5 550.5 c 128,-1,38
 589 572 589 572 553 582.5 c 128,-1,39
 517 593 517 593 478 593 c 0,40,41
 438 593 438 593 401.5 581.5 c 128,-1,42
 365 570 365 570 336.5 547 c 128,-1,43
 308 524 308 524 289 491 c 128,-1,44
 270 458 270 458 267 417 c 1,45,-1
 366 417 l 1,46,-1
 366 386 l 1,47,48
 325 370 325 370 311 333.5 c 128,-1,49
 297 297 297 297 295 253.5 c 128,-1,50
 293 210 293 210 294.5 164 c 128,-1,51
 296 118 296 118 285 79.5 c 128,-1,52
 274 41 274 41 243.5 16.5 c 128,-1,53
 213 -8 213 -8 147 -8 c 0,54,55
 92 -8 92 -8 53.5 27.5 c 128,-1,56
 15 63 15 63 15 120 c 0,57,58
 15 172 15 172 51 208.5 c 128,-1,59
 87 245 87 245 140 245 c 0,60,61
 161 245 161 245 182.5 239 c 128,-1,62
 204 233 204 233 221 218 c 1,63,64
 221 255 221 255 223 282.5 c 128,-1,65
 225 310 225 310 235 330.5 c 128,-1,66
 245 351 245 351 266.5 366.5 c 128,-1,67
 288 382 288 382 328 391 c 1,68,-1
 187 391 l 1,69,70
 192 451 192 451 217 494.5 c 128,-1,71
 242 538 242 538 282 566.5 c 128,-1,72
 322 595 322 595 372.5 609.5 c 128,-1,73
 423 624 423 624 478 624 c 0,74,75
 529 624 529 624 579 612.5 c 128,-1,76
 629 601 629 601 668 575.5 c 128,-1,77
 707 550 707 550 730.5 509.5 c 128,-1,78
 754 469 754 469 754 411 c 2,79,-1
 754 -245 l 1,80,-1
 678 -245 l 1,0,-1
227 120 m 256,81,82
 227 155 227 155 201 181 c 128,-1,83
 175 207 175 207 140 207 c 256,84,85
 104 207 104 207 79 181 c 128,-1,86
 54 155 54 155 54 120 c 256,87,88
 54 84 54 84 79 59 c 128,-1,89
 104 34 104 34 140 34 c 256,90,91
 175 34 175 34 201 59 c 128,-1,92
 227 84 227 84 227 120 c 256,81,82
330 -132 m 1,93,94
 301 -113 301 -113 270 -102.5 c 128,-1,95
 239 -92 239 -92 204 -92 c 0,96,97
 173 -92 173 -92 144 -109.5 c 128,-1,98
 115 -127 115 -127 115 -161 c 0,99,100
 115 -192 115 -192 139.5 -205.5 c 128,-1,101
 164 -219 164 -219 190 -219 c 0,102,103
 213 -219 213 -219 232 -210.5 c 128,-1,104
 251 -202 251 -202 267.5 -190 c 128,-1,105
 284 -178 284 -178 299 -162 c 128,-1,106
 314 -146 314 -146 330 -132 c 1,93,94
EndSplineSet
Substitution2: "Single Substitution lookup 22 subtable" uni0E0F.alt1
Substitution2: "Single Substitution lookup 22 subtable" uni0E0F.alt1
EndChar
StartChar: uni0E10
Encoding: 3600 3600 227
Width: 640
VWidth: 1533
Flags: W
HStem: -262 37<352.55 450.836> -251 41<29.8447 116.46> -215 39<416.595 453.527> -124 43<30.8296 116.717> -69 38<412.257 504.191> 0 21G<441.783 530> 113 39<138.271 251.175> 327 38<138.271 250.744> 399 38<110 484> 500 47<402.132 476.194> 569 52<168.06 276.689>
VStem: -44 53<-200.218 -135.264> 69 38<183.094 295.439> 213 35<-79.4218 -54> 356 41<-163.09 -82.2847> 457 73<69.875 126.609 126.609 165 165 192.3> 479.5 79<291.947 311 320.5 345.375 345.375 365.438 365.438 399> 520 46<-162.846 -82.6934>
Fore
587 613 m 1,0,1
 580 567 580 567 543 533.5 c 128,-1,2
 506 500 506 500 458 500 c 0,3,4
 425 500 425 500 399 510.5 c 128,-1,5
 373 521 373 521 348.5 534 c 128,-1,6
 324 547 324 547 299 558 c 128,-1,7
 274 569 274 569 244 569 c 0,8,9
 187 569 187 569 148.5 531.5 c 128,-1,10
 110 494 110 494 110 437 c 1,11,-1
 564 437 l 1,12,-1
 564 415 l 2,13,14
 564 363 564 363 558.5 311 c 128,-1,15
 553 259 553 259 546.5 207.5 c 128,-1,16
 540 156 540 156 534.5 104 c 128,-1,17
 529 52 529 52 530 0 c 1,18,-1
 454 0 l 1,19,-1
 319 221 l 1,20,21
 311 175 311 175 276.5 144 c 128,-1,22
 242 113 242 113 195 113 c 0,23,24
 141 113 141 113 105 149.5 c 128,-1,25
 69 186 69 186 69 239 c 256,26,27
 69 293 69 293 105 329 c 128,-1,28
 141 365 141 365 195 365 c 0,29,30
 242 365 242 365 274.5 341 c 128,-1,31
 307 317 307 317 330 279 c 2,32,-1
 457 69 l 1,33,-1
 457 87 l 2,34,35
 455 126 455 126 460 165 c 128,-1,36
 470 243 l 128,-1,37
 475 282 475 282 479.5 320.5 c 128,-1,38
 484 359 484 359 484 399 c 1,39,-1
 15 399 l 1,40,41
 15 443 15 443 29 483 c 128,-1,42
 43 523 43 523 68.5 553.5 c 128,-1,43
 94 584 94 584 130.5 602.5 c 128,-1,44
 167 621 167 621 215 621 c 0,45,46
 255 621 255 621 283 609.5 c 128,-1,47
 311 598 311 598 335 584 c 128,-1,48
 359 570 359 570 380.5 558.5 c 128,-1,49
 402 547 402 547 429 547 c 0,50,51
 455 547 455 547 476 567 c 128,-1,52
 497 587 497 587 497 613 c 1,53,-1
 587 613 l 1,0,1
566 -135 m 0,54,55
 566 -161 566 -161 554.5 -185 c 128,-1,56
 543 -209 543 -209 524.5 -225.5 c 128,-1,57
 506 -242 506 -242 481.5 -252 c 128,-1,58
 457 -262 457 -262 431 -262 c 0,59,60
 391 -262 391 -262 355.5 -247.5 c 128,-1,61
 320 -233 320 -233 294 -202 c 1,62,63
 287 -218 287 -218 274.5 -231 c 128,-1,64
 262 -244 262 -244 250 -256 c 1,65,-1
 209 -256 l 1,66,67
 193 -221 193 -221 172 -195 c 1,68,69
 150 -221 150 -221 120 -236 c 128,-1,70
 90 -251 90 -251 57 -251 c 0,71,72
 20 -251 20 -251 -12 -230 c 128,-1,73
 -44 -209 -44 -209 -44 -167 c 256,74,75
 -44 -126 -44 -126 -10.5 -103.5 c 128,-1,76
 23 -81 23 -81 60 -81 c 0,77,78
 95 -81 95 -81 123.5 -96.5 c 128,-1,79
 152 -112 152 -112 175 -136 c 1,80,81
 187 -117 187 -117 197 -96 c 128,-1,82
 207 -75 207 -75 213 -54 c 1,83,-1
 248 -54 l 1,84,85
 236 -115 236 -115 199 -164 c 1,86,87
 210 -176 210 -176 218.5 -190 c 128,-1,88
 227 -204 227 -204 235 -219 c 1,89,90
 270 -175 270 -175 285 -124 c 1,91,92
 304 -167 304 -167 338.5 -196 c 128,-1,93
 373 -225 373 -225 422 -225 c 0,94,95
 429 -225 429 -225 441.5 -222 c 128,-1,96
 454 -219 454 -219 461 -215 c 1,97,98
 422 -215 422 -215 389 -191 c 128,-1,99
 356 -167 356 -167 356 -123 c 0,100,101
 356 -81 356 -81 387.5 -56 c 128,-1,102
 419 -31 419 -31 458 -31 c 0,103,104
 504 -31 504 -31 535 -60 c 128,-1,105
 566 -89 566 -89 566 -135 c 0,54,55
282 239 m 256,106,107
 282 274 282 274 256 300.5 c 128,-1,108
 230 327 230 327 195 327 c 256,109,110
 159 327 159 327 133 300.5 c 128,-1,111
 107 274 107 274 107 239 c 256,112,113
 107 204 107 204 133 178 c 128,-1,114
 159 152 159 152 195 152 c 256,115,116
 230 152 230 152 256 178 c 128,-1,117
 282 204 282 204 282 239 c 256,106,107
520 -123 m 256,118,119
 520 -97 520 -97 500.5 -83 c 128,-1,120
 481 -69 481 -69 458 -69 c 256,121,122
 435 -69 435 -69 416 -83 c 128,-1,123
 397 -97 397 -97 397 -123 c 256,124,125
 397 -149 397 -149 416 -162.5 c 128,-1,126
 435 -176 435 -176 458 -176 c 256,127,128
 481 -176 481 -176 500.5 -162.5 c 128,-1,129
 520 -149 520 -149 520 -123 c 256,118,119
152 -167 m 1,130,131
 133 -149 133 -149 111.5 -136.5 c 128,-1,132
 90 -124 90 -124 64 -124 c 0,133,134
 48 -124 48 -124 28.5 -135.5 c 128,-1,135
 9 -147 9 -147 9 -167 c 0,136,137
 9 -190 9 -190 28.5 -200 c 128,-1,138
 48 -210 48 -210 67 -210 c 0,139,140
 94 -210 94 -210 114.5 -197 c 128,-1,141
 135 -184 135 -184 152 -167 c 1,130,131
EndSplineSet
Substitution2: "Single Substitution lookup 22 subtable" uni0E10.alt1
Substitution2: "Single Substitution lookup 22 subtable" uni0E10.alt1
EndChar
StartChar: uni0E11
Encoding: 3601 3601 228
Width: 852
VWidth: 1533
Flags: W
HStem: 0 21G<235 326.232 684 760> 287 38<100.171 213.079> 500 38<99.9183 213.079> 590 34<121.91 207.422 305.006 358.633>
VStem: 15 54<355.725 468.925> 235 76<67 271.251> 244 38<355.834 469.079> 402 69<404.91 537.703> 684 76<0 27.5693 27.5693 104.785 104.785 431.761 431.761 514.035>
Fore
684 0 m 1,0,1
 684 14 684 14 684.5 56 c 128,-1,2
 685 98 685 98 685 154 c 128,-1,3
 685 210 685 210 685 272 c 128,-1,4
 685 334 685 334 685 387 c 128,-1,5
 685 440 685 440 683.5 476 c 128,-1,6
 682 512 682 512 679 517 c 1,7,-1
 661 526 l 1,8,-1
 313 0 l 1,9,-1
 235 0 l 1,10,-1
 235 219 l 2,11,12
 235 251 235 251 261 276 c 128,-1,13
 287 301 287 301 318.5 328.5 c 128,-1,14
 350 356 350 356 376 391 c 128,-1,15
 402 426 402 426 402 478 c 0,16,17
 402 498 402 498 398 518 c 128,-1,18
 394 538 394 538 385 554 c 128,-1,19
 376 570 376 570 359.5 580 c 128,-1,20
 343 590 343 590 320 590 c 0,21,22
 299 590 299 590 284.5 580 c 128,-1,23
 270 570 270 570 258 555 c 1,24,25
 241 575 241 575 223 582.5 c 128,-1,26
 205 590 205 590 179 590 c 0,27,28
 149 590 149 590 121.5 568.5 c 128,-1,29
 94 547 94 547 87 517 c 1,30,31
 118 538 118 538 156 538 c 0,32,33
 209 538 209 538 245.5 501.5 c 128,-1,34
 282 465 282 465 282 412 c 256,35,36
 282 360 282 360 245.5 323.5 c 128,-1,37
 209 287 209 287 156 287 c 0,38,39
 90 287 90 287 52.5 333 c 128,-1,40
 15 379 15 379 15 442 c 0,41,42
 15 475 15 475 26 508 c 128,-1,43
 37 541 37 541 57.5 567 c 128,-1,44
 78 593 78 593 108 608.5 c 128,-1,45
 138 624 138 624 175 624 c 0,46,47
 199 624 199 624 220 615.5 c 128,-1,48
 241 607 241 607 256 587 c 1,49,50
 271 607 271 607 295 615.5 c 128,-1,51
 319 624 319 624 342 624 c 0,52,53
 408 624 408 624 439.5 582.5 c 128,-1,54
 471 541 471 541 471 480 c 0,55,56
 471 432 471 432 445.5 400 c 128,-1,57
 420 368 420 368 390 342 c 128,-1,58
 360 316 360 316 335.5 291.5 c 128,-1,59
 311 267 311 267 311 238 c 2,60,-1
 311 67 l 1,61,-1
 675 621 l 1,62,63
 710 621 710 621 735 602.5 c 128,-1,64
 760 584 760 584 760 547 c 2,65,-1
 760 0 l 1,66,-1
 684 0 l 1,0,1
244 412 m 256,67,68
 244 448 244 448 218 474 c 128,-1,69
 192 500 192 500 156 500 c 256,70,71
 121 500 121 500 95 474 c 128,-1,72
 69 448 69 448 69 412 c 256,73,74
 69 377 69 377 95 351 c 128,-1,75
 121 325 121 325 156 325 c 256,76,77
 192 325 192 325 218 351 c 128,-1,78
 244 377 244 377 244 412 c 256,67,68
EndSplineSet
EndChar
